<?xml version="1.0" encoding="UTF-8" standalone="no"?>
<!-- Created with Inkscape (http://www.inkscape.org/) -->

<svg
   xmlns:dc="http://purl.org/dc/elements/1.1/"
   xmlns:cc="http://creativecommons.org/ns#"
   xmlns:rdf="http://www.w3.org/1999/02/22-rdf-syntax-ns#"
   xmlns:svg="http://www.w3.org/2000/svg"
   xmlns="http://www.w3.org/2000/svg"
   xmlns:sodipodi="http://sodipodi.sourceforge.net/DTD/sodipodi-0.dtd"
   xmlns:inkscape="http://www.inkscape.org/namespaces/inkscape"
   width="16"
   height="16"
   id="svg24489"
   version="1.1"
   inkscape:version="0.48.3.1 r9886"
   sodipodi:docname="Palm Tree1.svg">
  <defs
     id="defs24491">
    <clipPath
       clipPathUnits="userSpaceOnUse"
       id="clipPath4250">
      <path
         inkscape:connector-curvature="0"
         d="m 27.36029,542.40485 0,21.59961 32.40035,0 0,-21.59961 -32.40035,0 z"
         clip-rule="evenodd"
         id="path4252" />
    </clipPath>
    <clipPath
       clipPathUnits="userSpaceOnUse"
       id="clipPath5778">
      <path
         inkscape:connector-curvature="0"
         d="m 27.36029,506.40555 0,21.59958 32.40035,0 0,-21.59958 -32.40035,0 z"
         clip-rule="evenodd"
         id="path5780" />
    </clipPath>
    <clipPath
       clipPathUnits="userSpaceOnUse"
       id="clipPath6668">
      <path
         inkscape:connector-curvature="0"
         d="m 27.36029,470.40625 0,21.59958 32.40035,0 0,-21.59958 -32.40035,0 z"
         clip-rule="evenodd"
         id="path6670" />
    </clipPath>
    <clipPath
       clipPathUnits="userSpaceOnUse"
       id="clipPath8468">
      <path
         inkscape:connector-curvature="0"
         d="m 27.36029,434.40695 0,21.59958 32.40035,0 0,-21.59958 -32.40035,0 z"
         clip-rule="evenodd"
         id="path8470" />
    </clipPath>
    <clipPath
       clipPathUnits="userSpaceOnUse"
       id="clipPath8446">
      <path
         inkscape:connector-curvature="0"
         d="m 27.36029,434.40695 0,21.59958 32.40035,0 0,-21.59958 -32.40035,0 z"
         clip-rule="evenodd"
         id="path8448" />
    </clipPath>
    <clipPath
       clipPathUnits="userSpaceOnUse"
       id="clipPath8502">
      <path
         inkscape:connector-curvature="0"
         d="m 27.36029,398.40765 0,21.59958 32.40035,0 0,-21.59958 -32.40035,0 z"
         clip-rule="evenodd"
         id="path8504" />
    </clipPath>
  </defs>
  <sodipodi:namedview
     id="base"
     pagecolor="#ffffff"
     bordercolor="#666666"
     borderopacity="1.0"
     inkscape:pageopacity="0.0"
     inkscape:pageshadow="2"
     inkscape:zoom="15.839192"
     inkscape:cx="12.178444"
     inkscape:cy="6.0185818"
     inkscape:document-units="px"
     inkscape:current-layer="layer1"
     showgrid="false"
     inkscape:window-width="1317"
     inkscape:window-height="744"
     inkscape:window-x="49"
     inkscape:window-y="24"
     inkscape:window-maximized="1" />
  <metadata
     id="metadata24494">
    <rdf:RDF>
      <cc:Work
         rdf:about="">
        <dc:format>image/svg+xml</dc:format>
        <dc:type
           rdf:resource="http://purl.org/dc/dcmitype/StillImage" />
        <dc:title />
      </cc:Work>
    </rdf:RDF>
  </metadata>
  <g
     inkscape:label="Capa 1"
     inkscape:groupmode="layer"
     id="layer1"
     transform="translate(0,-1036.3622)">
    <path
       inkscape:connector-curvature="0"
       d="m 8.449981,1036.3622 0.905358,0 0,0.3019 -0.905358,0 0,-0.3019 z"
       style="fill:#000000;fill-opacity:1;fill-rule:evenodd;stroke:none"
       id="path8506" />
    <path
       inkscape:connector-curvature="0"
       d="m 9.05355,1036.6641 1.508919,0 0,0.3019 -1.508919,0 0,-0.3019 z"
       style="fill:#000000;fill-opacity:1;fill-rule:evenodd;stroke:none"
       id="path8508" />
    <path
       inkscape:connector-curvature="0"
       d="m 4.224988,1036.966 0.603573,0 0,0.3019 -0.603573,0 0,-0.3019 z"
       style="fill:#000000;fill-opacity:1;fill-rule:evenodd;stroke:none"
       id="path8510" />
    <path
       inkscape:connector-curvature="0"
       d="m 9.05355,1036.966 1.207138,0 0,0.3019 -1.207138,0 0,-0.3019 z"
       style="fill:#000000;fill-opacity:1;fill-rule:evenodd;stroke:none"
       id="path8512" />
    <path
       inkscape:connector-curvature="0"
       d="m 10.562469,1036.966 0.301788,0 0,0.3019 -0.301788,0 0,-0.3019 z"
       style="fill:#000000;fill-opacity:1;fill-rule:evenodd;stroke:none"
       id="path8514" />
    <path
       inkscape:connector-curvature="0"
       d="m 4.526777,1037.2679 0.905354,0 0,0.3019 -0.905354,0 0,-0.3019 z"
       style="fill:#000000;fill-opacity:1;fill-rule:evenodd;stroke:none"
       id="path8516" />
    <path
       inkscape:connector-curvature="0"
       d="m 8.751765,1037.2679 0.301785,0 0,0.3019 -0.301785,0 0,-0.3019 z"
       style="fill:#000000;fill-opacity:1;fill-rule:evenodd;stroke:none"
       id="path8518" />
    <path
       inkscape:connector-curvature="0"
       d="m 9.355339,1037.2679 0.603569,0 0,0.3019 -0.603569,0 0,-0.3019 z"
       style="fill:#000000;fill-opacity:1;fill-rule:evenodd;stroke:none"
       id="path8520" />
    <path
       inkscape:connector-curvature="0"
       d="m 10.864257,1037.2679 0.301789,0 0,0.3019 -0.301789,0 0,-0.3019 z"
       style="fill:#000000;fill-opacity:1;fill-rule:evenodd;stroke:none"
       id="path8522" />
    <path
       inkscape:connector-curvature="0"
       d="m 4.224988,1037.5698 2.112501,0 0,0.3018 -2.112501,0 0,-0.3018 z"
       style="fill:#000000;fill-opacity:1;fill-rule:evenodd;stroke:none"
       id="path8524" />
    <path
       inkscape:connector-curvature="0"
       d="m 9.355339,1037.5698 0.30178,0 0,0.3018 -0.30178,0 0,-0.3018 z"
       style="fill:#000000;fill-opacity:1;fill-rule:evenodd;stroke:none"
       id="path8526" />
    <path
       inkscape:connector-curvature="0"
       d="m 10.260688,1037.5698 0.301781,0 0,0.3018 -0.301781,0 0,-0.3018 z"
       style="fill:#000000;fill-opacity:1;fill-rule:evenodd;stroke:none"
       id="path8528" />
    <path
       inkscape:connector-curvature="0"
       d="m 5.130346,1037.8716 0.905354,0 0,0.3019 -0.905354,0 0,-0.3019 z"
       style="fill:#000000;fill-opacity:1;fill-rule:evenodd;stroke:none"
       id="path8530" />
    <path
       inkscape:connector-curvature="0"
       d="m 6.337489,1037.8716 0.301788,0 0,0.3019 -0.301788,0 0,-0.3019 z"
       style="fill:#000000;fill-opacity:1;fill-rule:evenodd;stroke:none"
       id="path8532" />
    <path
       inkscape:connector-curvature="0"
       d="m 9.355339,1037.8716 0.30178,0 0,0.3019 -0.30178,0 0,-0.3019 z"
       style="fill:#000000;fill-opacity:1;fill-rule:evenodd;stroke:none"
       id="path8534" />
    <path
       inkscape:connector-curvature="0"
       d="m 4.828561,1038.1735 0.301785,0 0,0.3019 -0.301785,0 0,-0.3019 z"
       style="fill:#000000;fill-opacity:1;fill-rule:evenodd;stroke:none"
       id="path8536" />
    <path
       inkscape:connector-curvature="0"
       d="m 5.733919,1038.1735 0.301781,0 0,0.3019 -0.301781,0 0,-0.3019 z"
       style="fill:#000000;fill-opacity:1;fill-rule:evenodd;stroke:none"
       id="path8538" />
    <path
       inkscape:connector-curvature="0"
       d="m 6.337489,1038.1735 0.301788,0 0,0.3019 -0.301788,0 0,-0.3019 z"
       style="fill:#000000;fill-opacity:1;fill-rule:evenodd;stroke:none"
       id="path8540" />
    <path
       inkscape:connector-curvature="0"
       d="m 4.526777,1038.4754 0.301784,0 0,0.3019 -0.301784,0 0,-0.3019 z"
       style="fill:#000000;fill-opacity:1;fill-rule:evenodd;stroke:none"
       id="path8542" />
    <path
       inkscape:connector-curvature="0"
       d="m 9.355339,1038.4754 0.30178,0 0,0.3019 -0.30178,0 0,-0.3019 z"
       style="fill:#000000;fill-opacity:1;fill-rule:evenodd;stroke:none"
       id="path8544" />
    <path
       inkscape:connector-curvature="0"
       d="m 4.526777,1038.7773 0.301784,0 0,0.3019 -0.301784,0 0,-0.3019 z"
       style="fill:#000000;fill-opacity:1;fill-rule:evenodd;stroke:none"
       id="path8546" />
    <path
       inkscape:connector-curvature="0"
       d="m 4.526777,1039.0792 0.301784,0 0,0.3019 -0.301784,0 0,-0.3019 z"
       style="fill:#000000;fill-opacity:1;fill-rule:evenodd;stroke:none"
       id="path8548" />
    <path
       inkscape:connector-curvature="0"
       d="m 4.224988,1039.683 0.301789,0 0,0.3018 -0.301789,0 0,-0.3018 z"
       style="fill:#000000;fill-opacity:1;fill-rule:evenodd;stroke:none"
       id="path8550" />
    <path
       inkscape:connector-curvature="0"
       d="m 9.657119,1039.683 0.301789,0 0,0.3018 -0.301789,0 0,-0.3018 z"
       style="fill:#000000;fill-opacity:1;fill-rule:evenodd;stroke:none"
       id="path8552" />
    <path
       inkscape:connector-curvature="0"
       d="m 9.657119,1039.9848 0.301789,0 0,0.3019 -0.301789,0 0,-0.3019 z"
       style="fill:#000000;fill-opacity:1;fill-rule:evenodd;stroke:none"
       id="path8554" />
    <path
       inkscape:connector-curvature="0"
       d="m 12.976758,1040.2867 0.603569,0 0,0.3019 -0.603569,0 0,-0.3019 z"
       style="fill:#000000;fill-opacity:1;fill-rule:evenodd;stroke:none"
       id="path8556" />
    <path
       inkscape:connector-curvature="0"
       d="m 2.1125,1040.5886 0.603569,0 0,0.3019 -0.603569,0 0,-0.3019 z"
       style="fill:#000000;fill-opacity:1;fill-rule:evenodd;stroke:none"
       id="path8558" />
    <path
       inkscape:connector-curvature="0"
       d="m 4.224988,1040.5886 0.301789,0 0,0.3019 -0.301789,0 0,-0.3019 z"
       style="fill:#000000;fill-opacity:1;fill-rule:evenodd;stroke:none"
       id="path8560" />
    <path
       inkscape:connector-curvature="0"
       d="m 12.674969,1040.5886 2.112492,0 0,0.3019 -2.112492,0 0,-0.3019 z"
       style="fill:#000000;fill-opacity:1;fill-rule:evenodd;stroke:none"
       id="path8562" />
    <path
       inkscape:connector-curvature="0"
       d="m 1.810712,1040.8905 0.603573,0 0,0.3019 -0.603573,0 0,-0.3019 z"
       style="fill:#000000;fill-opacity:1;fill-rule:evenodd;stroke:none"
       id="path8564" />
    <path
       inkscape:connector-curvature="0"
       d="m 13.278538,1040.8905 1.508923,0 0,0.3019 -1.508923,0 0,-0.3019 z"
       style="fill:#000000;fill-opacity:1;fill-rule:evenodd;stroke:none"
       id="path8566" />
    <path
       inkscape:connector-curvature="0"
       d="m 15.089246,1040.8905 0.301788,0 0,0.3019 -0.301788,0 0,-0.3019 z"
       style="fill:#000000;fill-opacity:1;fill-rule:evenodd;stroke:none"
       id="path8568" />
    <path
       inkscape:connector-curvature="0"
       d="m 0.905358,1041.1924 1.810711,0 0,0.3019 -1.810711,0 0,-0.3019 z"
       style="fill:#000000;fill-opacity:1;fill-rule:evenodd;stroke:none"
       id="path8570" />
    <path
       inkscape:connector-curvature="0"
       d="m 12.976758,1041.1924 1.20713,0 0,0.3019 -1.20713,0 0,-0.3019 z"
       style="fill:#000000;fill-opacity:1;fill-rule:evenodd;stroke:none"
       id="path8572" />
    <path
       inkscape:connector-curvature="0"
       d="m 14.485677,1041.1924 0.301784,0 0,0.3019 -0.301784,0 0,-0.3019 z"
       style="fill:#000000;fill-opacity:1;fill-rule:evenodd;stroke:none"
       id="path8574" />
    <path
       inkscape:connector-curvature="0"
       d="m 15.089246,1041.1924 0.301788,0 0,0.3019 -0.301788,0 0,-0.3019 z"
       style="fill:#000000;fill-opacity:1;fill-rule:evenodd;stroke:none"
       id="path8576" />
    <path
       inkscape:connector-curvature="0"
       d="m 0.603569,1041.4943 1.508931,0 0,0.3019 -1.508931,0 0,-0.3019 z"
       style="fill:#000000;fill-opacity:1;fill-rule:evenodd;stroke:none"
       id="path8578" />
    <path
       inkscape:connector-curvature="0"
       d="m 2.716069,1041.4943 0.301789,0 0,0.3019 -0.301789,0 0,-0.3019 z"
       style="fill:#000000;fill-opacity:1;fill-rule:evenodd;stroke:none"
       id="path8580" />
    <path
       inkscape:connector-curvature="0"
       d="m 12.674969,1041.4943 0.301789,0 0,0.3019 -0.301789,0 0,-0.3019 z"
       style="fill:#000000;fill-opacity:1;fill-rule:evenodd;stroke:none"
       id="path8582" />
    <path
       inkscape:connector-curvature="0"
       d="m 13.580327,1041.4943 0.30178,0 0,0.3019 -0.30178,0 0,-0.3019 z"
       style="fill:#000000;fill-opacity:1;fill-rule:evenodd;stroke:none"
       id="path8584" />
    <path
       inkscape:connector-curvature="0"
       d="m 14.485677,1041.4943 0.301784,0 0,0.3019 -0.301784,0 0,-0.3019 z"
       style="fill:#000000;fill-opacity:1;fill-rule:evenodd;stroke:none"
       id="path8586" />
    <path
       inkscape:connector-curvature="0"
       d="m 0.603569,1041.7962 0.301789,0 0,0.3019 -0.301789,0 0,-0.3019 z"
       style="fill:#000000;fill-opacity:1;fill-rule:evenodd;stroke:none"
       id="path8588" />
    <path
       inkscape:connector-curvature="0"
       d="m 1.207143,1041.7962 0.905357,0 0,0.3019 -0.905357,0 0,-0.3019 z"
       style="fill:#000000;fill-opacity:1;fill-rule:evenodd;stroke:none"
       id="path8590" />
    <path
       inkscape:connector-curvature="0"
       d="m 2.716069,1041.7962 0.301789,0 0,0.3019 -0.301789,0 0,-0.3019 z"
       style="fill:#000000;fill-opacity:1;fill-rule:evenodd;stroke:none"
       id="path8592" />
    <path
       inkscape:connector-curvature="0"
       d="m 12.373184,1041.7962 0.301785,0 0,0.3019 -0.301785,0 0,-0.3019 z"
       style="fill:#000000;fill-opacity:1;fill-rule:evenodd;stroke:none"
       id="path8594" />
    <path
       inkscape:connector-curvature="0"
       d="m 13.580327,1041.7962 0.30178,0 0,0.3019 -0.30178,0 0,-0.3019 z"
       style="fill:#000000;fill-opacity:1;fill-rule:evenodd;stroke:none"
       id="path8596" />
    <path
       inkscape:connector-curvature="0"
       d="m 2.1125,1042.0981 0.301785,0 0,0.3019 -0.301785,0 0,-0.3019 z"
       style="fill:#000000;fill-opacity:1;fill-rule:evenodd;stroke:none"
       id="path8598" />
    <path
       inkscape:connector-curvature="0"
       d="m 13.580327,1042.0981 0.30178,0 0,0.3019 -0.30178,0 0,-0.3019 z"
       style="fill:#000000;fill-opacity:1;fill-rule:evenodd;stroke:none"
       id="path8600" />
    <path
       inkscape:connector-curvature="0"
       d="m 14.485677,1042.0981 0.301784,0 0,0.3019 -0.301784,0 0,-0.3019 z"
       style="fill:#000000;fill-opacity:1;fill-rule:evenodd;stroke:none"
       id="path8602" />
    <path
       inkscape:connector-curvature="0"
       d="m 2.1125,1042.4 0.301785,0 0,0.3018 -0.301785,0 0,-0.3018 z"
       style="fill:#000000;fill-opacity:1;fill-rule:evenodd;stroke:none"
       id="path8604" />
    <path
       inkscape:connector-curvature="0"
       d="m 13.580327,1042.4 0.30178,0 0,0.3018 -0.30178,0 0,-0.3018 z"
       style="fill:#000000;fill-opacity:1;fill-rule:evenodd;stroke:none"
       id="path8606" />
    <path
       inkscape:connector-curvature="0"
       d="m 13.580327,1042.7018 0.30178,0 0,0.3019 -0.30178,0 0,-0.3019 z"
       style="fill:#000000;fill-opacity:1;fill-rule:evenodd;stroke:none"
       id="path8608" />
    <path
       inkscape:connector-curvature="0"
       d="m 2.414285,1043.0037 0.301784,0 0,0.3019 -0.301784,0 0,-0.3019 z"
       style="fill:#000000;fill-opacity:1;fill-rule:evenodd;stroke:none"
       id="path8610" />
    <path
       inkscape:connector-curvature="0"
       d="m 13.580327,1043.0037 0.30178,0 0,0.3019 -0.30178,0 0,-0.3019 z"
       style="fill:#000000;fill-opacity:1;fill-rule:evenodd;stroke:none"
       id="path8612" />
    <path
       inkscape:connector-curvature="0"
       d="m 5.733919,1043.3056 0.905358,0 0,0.3019 -0.905358,0 0,-0.3019 z"
       style="fill:#000000;fill-opacity:1;fill-rule:evenodd;stroke:none"
       id="path8614" />
    <path
       inkscape:connector-curvature="0"
       d="m 7.242846,1043.3056 0.90535,0 0,0.3019 -0.90535,0 0,-0.3019 z"
       style="fill:#000000;fill-opacity:1;fill-rule:evenodd;stroke:none"
       id="path8616" />
    <path
       inkscape:connector-curvature="0"
       d="m 13.580327,1043.3056 0.30178,0 0,0.3019 -0.30178,0 0,-0.3019 z"
       style="fill:#000000;fill-opacity:1;fill-rule:evenodd;stroke:none"
       id="path8618" />
    <path
       inkscape:connector-curvature="0"
       d="m 2.414285,1043.6075 0.301784,0 0,0.3019 -0.301784,0 0,-0.3019 z"
       style="fill:#000000;fill-opacity:1;fill-rule:evenodd;stroke:none"
       id="path8620" />
    <path
       inkscape:connector-curvature="0"
       d="m 5.432131,1043.6075 0.603569,0 0,0.3019 -0.603569,0 0,-0.3019 z"
       style="fill:#000000;fill-opacity:1;fill-rule:evenodd;stroke:none"
       id="path8622" />
    <path
       inkscape:connector-curvature="0"
       d="m 6.337489,1043.6075 1.207138,0 0,0.3019 -1.207138,0 0,-0.3019 z"
       style="fill:#000000;fill-opacity:1;fill-rule:evenodd;stroke:none"
       id="path8624" />
    <path
       inkscape:connector-curvature="0"
       d="m 7.846408,1043.6075 0.301788,0 0,0.3019 -0.301788,0 0,-0.3019 z"
       style="fill:#000000;fill-opacity:1;fill-rule:evenodd;stroke:none"
       id="path8626" />
    <path
       inkscape:connector-curvature="0"
       d="m 13.580327,1043.6075 0.30178,0 0,0.3019 -0.30178,0 0,-0.3019 z"
       style="fill:#000000;fill-opacity:1;fill-rule:evenodd;stroke:none"
       id="path8628" />
    <path
       inkscape:connector-curvature="0"
       d="m 2.414285,1043.9094 0.301784,0 0,0.3019 -0.301784,0 0,-0.3019 z"
       style="fill:#000000;fill-opacity:1;fill-rule:evenodd;stroke:none"
       id="path8630" />
    <path
       inkscape:connector-curvature="0"
       d="m 5.432131,1043.9094 0.301788,0 0,0.3019 -0.301788,0 0,-0.3019 z"
       style="fill:#000000;fill-opacity:1;fill-rule:evenodd;stroke:none"
       id="path8632" />
    <path
       inkscape:connector-curvature="0"
       d="m 6.337489,1043.9094 1.207138,0 0,0.3019 -1.207138,0 0,-0.3019 z"
       style="fill:#000000;fill-opacity:1;fill-rule:evenodd;stroke:none"
       id="path8634" />
    <path
       inkscape:connector-curvature="0"
       d="m 2.414285,1044.2113 0.301784,0 0,0.3018 -0.301784,0 0,-0.3018 z"
       style="fill:#000000;fill-opacity:1;fill-rule:evenodd;stroke:none"
       id="path8636" />
    <path
       inkscape:connector-curvature="0"
       d="m 5.733919,1044.2113 0.60357,0 0,0.3018 -0.60357,0 0,-0.3018 z"
       style="fill:#000000;fill-opacity:1;fill-rule:evenodd;stroke:none"
       id="path8638" />
    <path
       inkscape:connector-curvature="0"
       d="m 6.639277,1044.2113 0.301781,0 0,0.3018 -0.301781,0 0,-0.3018 z"
       style="fill:#000000;fill-opacity:1;fill-rule:evenodd;stroke:none"
       id="path8640" />
    <path
       inkscape:connector-curvature="0"
       d="m 7.242846,1044.2113 0.603562,0 0,0.3018 -0.603562,0 0,-0.3018 z"
       style="fill:#000000;fill-opacity:1;fill-rule:evenodd;stroke:none"
       id="path8642" />
    <path
       inkscape:connector-curvature="0"
       d="m 2.414285,1044.5131 0.301784,0 0,0.3019 -0.301784,0 0,-0.3019 z"
       style="fill:#000000;fill-opacity:1;fill-rule:evenodd;stroke:none"
       id="path8644" />
    <path
       inkscape:connector-curvature="0"
       d="m 5.733919,1044.5131 0.301781,0 0,0.3019 -0.301781,0 0,-0.3019 z"
       style="fill:#000000;fill-opacity:1;fill-rule:evenodd;stroke:none"
       id="path8646" />
    <path
       inkscape:connector-curvature="0"
       d="m 6.639277,1044.5131 0.301781,0 0,0.3019 -0.301781,0 0,-0.3019 z"
       style="fill:#000000;fill-opacity:1;fill-rule:evenodd;stroke:none"
       id="path8648" />
    <path
       inkscape:connector-curvature="0"
       d="m 7.544627,1044.5131 0.301781,0 0,0.3019 -0.301781,0 0,-0.3019 z"
       style="fill:#000000;fill-opacity:1;fill-rule:evenodd;stroke:none"
       id="path8650" />
    <path
       inkscape:connector-curvature="0"
       d="m 6.639277,1044.815 0.301781,0 0,0.3019 -0.301781,0 0,-0.3019 z"
       style="fill:#000000;fill-opacity:1;fill-rule:evenodd;stroke:none"
       id="path8652" />
    <path
       inkscape:connector-curvature="0"
       d="m 7.544627,1044.815 0.301781,0 0,0.3019 -0.301781,0 0,-0.3019 z"
       style="fill:#000000;fill-opacity:1;fill-rule:evenodd;stroke:none"
       id="path8654" />
    <path
       inkscape:connector-curvature="0"
       d="m 6.639277,1045.1169 0.301781,0 0,0.3019 -0.301781,0 0,-0.3019 z"
       style="fill:#000000;fill-opacity:1;fill-rule:evenodd;stroke:none"
       id="path8656" />
    <path
       inkscape:connector-curvature="0"
       d="m 6.639277,1045.4188 0.301781,0 0,0.3019 -0.301781,0 0,-0.3019 z"
       style="fill:#000000;fill-opacity:1;fill-rule:evenodd;stroke:none"
       id="path8658" />
    <path
       inkscape:connector-curvature="0"
       d="m 6.639277,1045.7207 0.301781,0 0,0.3019 -0.301781,0 0,-0.3019 z"
       style="fill:#000000;fill-opacity:1;fill-rule:evenodd;stroke:none"
       id="path8660" />
    <path
       inkscape:connector-curvature="0"
       d="m 6.941058,1046.3245 0.301788,0 0,0.3019 -0.301788,0 0,-0.3019 z"
       style="fill:#000000;fill-opacity:1;fill-rule:evenodd;stroke:none"
       id="path8662" />
    <path
       inkscape:connector-curvature="0"
       d="m 13.882107,1046.3245 0.60357,0 0,0.3019 -0.60357,0 0,-0.3019 z"
       style="fill:#000000;fill-opacity:1;fill-rule:evenodd;stroke:none"
       id="path8664" />
    <path
       inkscape:connector-curvature="0"
       d="m 14.485677,1046.6264 0.905357,0 0,0.3019 -0.905357,0 0,-0.3019 z"
       style="fill:#000000;fill-opacity:1;fill-rule:evenodd;stroke:none"
       id="path8666" />
    <path
       inkscape:connector-curvature="0"
       d="m 14.485677,1046.9283 1.207142,0 0,0.3018 -1.207142,0 0,-0.3018 z"
       style="fill:#000000;fill-opacity:1;fill-rule:evenodd;stroke:none"
       id="path8668" />
    <path
       inkscape:connector-curvature="0"
       d="m 6.639277,1047.2301 0.301781,0 0,0.3019 -0.301781,0 0,-0.3019 z"
       style="fill:#000000;fill-opacity:1;fill-rule:evenodd;stroke:none"
       id="path8670" />
    <path
       inkscape:connector-curvature="0"
       d="m 14.183888,1047.2301 0.301789,0 0,0.3019 -0.301789,0 0,-0.3019 z"
       style="fill:#000000;fill-opacity:1;fill-rule:evenodd;stroke:none"
       id="path8672" />
    <path
       inkscape:connector-curvature="0"
       d="m 15.089246,1047.2301 0.301788,0 0,0.3019 -0.301788,0 0,-0.3019 z"
       style="fill:#000000;fill-opacity:1;fill-rule:evenodd;stroke:none"
       id="path8674" />
    <path
       inkscape:connector-curvature="0"
       d="m 14.183888,1047.532 0.301789,0 0,0.3019 -0.301789,0 0,-0.3019 z"
       style="fill:#000000;fill-opacity:1;fill-rule:evenodd;stroke:none"
       id="path8676" />
    <path
       inkscape:connector-curvature="0"
       d="m 15.089246,1047.532 0.301788,0 0,0.3019 -0.301788,0 0,-0.3019 z"
       style="fill:#000000;fill-opacity:1;fill-rule:evenodd;stroke:none"
       id="path8678" />
    <path
       inkscape:connector-curvature="0"
       d="m 15.089246,1047.8339 0.301788,0 0,0.3019 -0.301788,0 0,-0.3019 z"
       style="fill:#000000;fill-opacity:1;fill-rule:evenodd;stroke:none"
       id="path8680" />
    <path
       inkscape:connector-curvature="0"
       d="m 0,1048.1358 0.905358,0 0,0.3019 -0.905358,0 0,-0.3019 z"
       style="fill:#000000;fill-opacity:1;fill-rule:evenodd;stroke:none"
       id="path8682" />
    <path
       inkscape:connector-curvature="0"
       d="m 15.089246,1048.1358 0.301788,0 0,0.3019 -0.301788,0 0,-0.3019 z"
       style="fill:#000000;fill-opacity:1;fill-rule:evenodd;stroke:none"
       id="path8684" />
    <path
       inkscape:connector-curvature="0"
       d="m 0.603569,1048.4377 0.603574,0 0,0.3019 -0.603574,0 0,-0.3019 z"
       style="fill:#000000;fill-opacity:1;fill-rule:evenodd;stroke:none"
       id="path8686" />
    <path
       inkscape:connector-curvature="0"
       d="m 9.958908,1048.4377 0.30178,0 0,0.3019 -0.30178,0 0,-0.3019 z"
       style="fill:#000000;fill-opacity:1;fill-rule:evenodd;stroke:none"
       id="path8688" />
    <path
       inkscape:connector-curvature="0"
       d="m 0.301789,1048.7396 1.810711,0 0,0.3019 -1.810711,0 0,-0.3019 z"
       style="fill:#000000;fill-opacity:1;fill-rule:evenodd;stroke:none"
       id="path8690" />
    <path
       inkscape:connector-curvature="0"
       d="m 9.958908,1048.7396 0.603561,0 0,0.3019 -0.603561,0 0,-0.3019 z"
       style="fill:#000000;fill-opacity:1;fill-rule:evenodd;stroke:none"
       id="path8692" />
    <path
       inkscape:connector-curvature="0"
       d="m 15.089246,1048.7396 0.301788,0 0,0.3019 -0.301788,0 0,-0.3019 z"
       style="fill:#000000;fill-opacity:1;fill-rule:evenodd;stroke:none"
       id="path8694" />
    <path
       inkscape:connector-curvature="0"
       d="m 0.905358,1049.0415 1.508927,0 0,0.3018 -1.508927,0 0,-0.3018 z"
       style="fill:#000000;fill-opacity:1;fill-rule:evenodd;stroke:none"
       id="path8696" />
    <path
       inkscape:connector-curvature="0"
       d="m 9.657119,1049.0415 1.207138,0 0,0.3018 -1.207138,0 0,-0.3018 z"
       style="fill:#000000;fill-opacity:1;fill-rule:evenodd;stroke:none"
       id="path8698" />
    <path
       inkscape:connector-curvature="0"
       d="m 15.089246,1049.0415 0.301788,0 0,0.3018 -0.301788,0 0,-0.3018 z"
       style="fill:#000000;fill-opacity:1;fill-rule:evenodd;stroke:none"
       id="path8700" />
    <path
       inkscape:connector-curvature="0"
       d="m 0.603569,1049.3433 0.905358,0 0,0.3019 -0.905358,0 0,-0.3019 z"
       style="fill:#000000;fill-opacity:1;fill-rule:evenodd;stroke:none"
       id="path8702" />
    <path
       inkscape:connector-curvature="0"
       d="m 1.810712,1049.3433 0.301788,0 0,0.3019 -0.301788,0 0,-0.3019 z"
       style="fill:#000000;fill-opacity:1;fill-rule:evenodd;stroke:none"
       id="path8704" />
    <path
       inkscape:connector-curvature="0"
       d="m 2.414285,1049.3433 0.301784,0 0,0.3019 -0.301784,0 0,-0.3019 z"
       style="fill:#000000;fill-opacity:1;fill-rule:evenodd;stroke:none"
       id="path8706" />
    <path
       inkscape:connector-curvature="0"
       d="m 9.355339,1049.3433 0.30178,0 0,0.3019 -0.30178,0 0,-0.3019 z"
       style="fill:#000000;fill-opacity:1;fill-rule:evenodd;stroke:none"
       id="path8708" />
    <path
       inkscape:connector-curvature="0"
       d="m 9.958908,1049.3433 1.207138,0 0,0.3019 -1.207138,0 0,-0.3019 z"
       style="fill:#000000;fill-opacity:1;fill-rule:evenodd;stroke:none"
       id="path8710" />
    <path
       inkscape:connector-curvature="0"
       d="m 15.089246,1049.3433 0.301788,0 0,0.3019 -0.301788,0 0,-0.3019 z"
       style="fill:#000000;fill-opacity:1;fill-rule:evenodd;stroke:none"
       id="path8712" />
    <path
       inkscape:connector-curvature="0"
       d="m 0.905358,1049.6452 0.603569,0 0,0.3019 -0.603569,0 0,-0.3019 z"
       style="fill:#000000;fill-opacity:1;fill-rule:evenodd;stroke:none"
       id="path8714" />
    <path
       inkscape:connector-curvature="0"
       d="m 2.1125,1049.6452 0.301785,0 0,0.3019 -0.301785,0 0,-0.3019 z"
       style="fill:#000000;fill-opacity:1;fill-rule:evenodd;stroke:none"
       id="path8716" />
    <path
       inkscape:connector-curvature="0"
       d="m 8.751765,1049.6452 0.603574,0 0,0.3019 -0.603574,0 0,-0.3019 z"
       style="fill:#000000;fill-opacity:1;fill-rule:evenodd;stroke:none"
       id="path8718" />
    <path
       inkscape:connector-curvature="0"
       d="m 11.166046,1049.6452 0.301781,0 0,0.3019 -0.301781,0 0,-0.3019 z"
       style="fill:#000000;fill-opacity:1;fill-rule:evenodd;stroke:none"
       id="path8720" />
    <path
       inkscape:connector-curvature="0"
       d="m 15.089246,1049.6452 0.301788,0 0,0.3019 -0.301788,0 0,-0.3019 z"
       style="fill:#000000;fill-opacity:1;fill-rule:evenodd;stroke:none"
       id="path8722" />
    <path
       inkscape:connector-curvature="0"
       d="m 9.657119,1049.9471 0.301789,0 0,0.3019 -0.301789,0 0,-0.3019 z"
       style="fill:#000000;fill-opacity:1;fill-rule:evenodd;stroke:none"
       id="path8724" />
    <path
       inkscape:connector-curvature="0"
       d="m 10.562469,1049.9471 0.301788,0 0,0.3019 -0.301788,0 0,-0.3019 z"
       style="fill:#000000;fill-opacity:1;fill-rule:evenodd;stroke:none"
       id="path8726" />
    <path
       inkscape:connector-curvature="0"
       d="m 0.905358,1050.249 0.301785,0 0,0.3019 -0.301785,0 0,-0.3019 z"
       style="fill:#000000;fill-opacity:1;fill-rule:evenodd;stroke:none"
       id="path8728" />
    <path
       inkscape:connector-curvature="0"
       d="m 10.562469,1050.249 0.301788,0 0,0.3019 -0.301788,0 0,-0.3019 z"
       style="fill:#000000;fill-opacity:1;fill-rule:evenodd;stroke:none"
       id="path8730" />
    <path
       inkscape:connector-curvature="0"
       d="m 0.905358,1050.5509 0.301785,0 0,0.3019 -0.301785,0 0,-0.3019 z"
       style="fill:#000000;fill-opacity:1;fill-rule:evenodd;stroke:none"
       id="path8732" />
    <path
       inkscape:connector-curvature="0"
       d="m 0.905358,1050.8528 0.301785,0 0,0.3019 -0.301785,0 0,-0.3019 z"
       style="fill:#000000;fill-opacity:1;fill-rule:evenodd;stroke:none"
       id="path8734" />
    <path
       inkscape:connector-curvature="0"
       d="m 9.355339,1050.8528 0.30178,0 0,0.3019 -0.30178,0 0,-0.3019 z"
       style="fill:#000000;fill-opacity:1;fill-rule:evenodd;stroke:none"
       id="path8736" />
    <path
       inkscape:connector-curvature="0"
       d="m 0.905358,1051.1547 0.301785,0 0,0.3019 -0.301785,0 0,-0.3019 z"
       style="fill:#000000;fill-opacity:1;fill-rule:evenodd;stroke:none"
       id="path8738" />
    <path
       inkscape:connector-curvature="0"
       d="m 9.355339,1051.1547 0.30178,0 0,0.3019 -0.30178,0 0,-0.3019 z"
       style="fill:#000000;fill-opacity:1;fill-rule:evenodd;stroke:none"
       id="path8740" />
    <path
       inkscape:connector-curvature="0"
       d="m 0.905358,1051.4566 0.301785,0 0,0.3018 -0.301785,0 0,-0.3018 z"
       style="fill:#000000;fill-opacity:1;fill-rule:evenodd;stroke:none"
       id="path8742" />
    <path
       inkscape:connector-curvature="0"
       d="m 0.905358,1051.7584 0.301785,0 0,0.3019 -0.301785,0 0,-0.3019 z"
       style="fill:#000000;fill-opacity:1;fill-rule:evenodd;stroke:none"
       id="path8744" />
    <path
       inkscape:connector-curvature="0"
       d="m 0.905358,1052.0603 0.301785,0 0,0.3019 -0.301785,0 0,-0.3019 z"
       style="fill:#000000;fill-opacity:1;fill-rule:evenodd;stroke:none"
       id="path8746" />
  </g>
</svg>
