<?xml version="1.0" encoding="UTF-8" standalone="no"?>
<!-- Created with Inkscape (http://www.inkscape.org/) -->

<svg
   xmlns:dc="http://purl.org/dc/elements/1.1/"
   xmlns:cc="http://creativecommons.org/ns#"
   xmlns:rdf="http://www.w3.org/1999/02/22-rdf-syntax-ns#"
   xmlns:svg="http://www.w3.org/2000/svg"
   xmlns="http://www.w3.org/2000/svg"
   xmlns:sodipodi="http://sodipodi.sourceforge.net/DTD/sodipodi-0.dtd"
   xmlns:inkscape="http://www.inkscape.org/namespaces/inkscape"
   width="16px"
   height="16px"
   id="svg3082"
   version="1.1"
   inkscape:version="0.48.3.1 r9886"
   sodipodi:docname="T&amp;S13.svg">
  <defs
     id="defs3084" />
  <sodipodi:namedview
     id="base"
     pagecolor="#ffffff"
     bordercolor="#666666"
     borderopacity="1.0"
     inkscape:pageopacity="0.0"
     inkscape:pageshadow="2"
     inkscape:zoom="11.098901"
     inkscape:cx="5.0106222"
     inkscape:cy="8.2151302"
     inkscape:current-layer="layer1"
     showgrid="true"
     inkscape:grid-bbox="true"
     inkscape:document-units="px"
     inkscape:window-width="826"
     inkscape:window-height="716"
     inkscape:window-x="535"
     inkscape:window-y="24"
     inkscape:window-maximized="0" />
  <metadata
     id="metadata3087">
    <rdf:RDF>
      <cc:Work
         rdf:about="">
        <dc:format>image/svg+xml</dc:format>
        <dc:type
           rdf:resource="http://purl.org/dc/dcmitype/StillImage" />
        <dc:title></dc:title>
      </cc:Work>
    </rdf:RDF>
  </metadata>
  <g
     id="layer1"
     inkscape:label="Layer 1"
     inkscape:groupmode="layer">
    <path
       inkscape:connector-curvature="0"
       d="m 9.0835714,2.3054754 -0.414986,-0.1844381 -0.599423,0.04611 0.04611,0.4610952 -1.014409,-0.2766571 0,-0.1844381 0.138328,-0.1383285 -0.04611,-0.2305475 -0.322767,-0.092219 0.184438,-0.3227665 0.09222,-0.4610952 -0.414985,0.3688761 -0.414986,0.1383286 0.184438,0.276657 -0.230547,0.2305476 0.04611,0.3688761 -0.322766,-0.2766571 0.09222,-1.0144092 -0.276658,0.184438 -0.230547,0.3227666 -0.04611,0.7838617 -0.230547,-0.2305476 -0.230548,0 -0.322766,0.1383286 0.184438,0.4149856 -0.184438,0.2305475 -0.230548,0.092219 -0.230547,-0.276657 -0.184438,-0.04611 0.04611,-0.3227666 -0.322766,0.3688761 -0.322767,0 -0.4149857,0.184438 0.04611,0.3227666 L 3.5504339,3.4121037 3.2276678,3.6426513 2.9049012,3.8270893 3.0893392,4.1959654 2.6743536,4.6570605 2.259368,4.8876081 1.8904919,4.426513 1.6138349,4.7492796 1.8443824,5.1642652 1.5677254,5.3948127 1.1066303,5.4870317 0.87608275,5.6714698 1.2449588,5.9942363 1.1066303,6.1325649 1.5216159,6.685879 1.2449588,6.778098 1.0605208,7.0086456 0.64553525,6.7319885 l 0.04611,0.5994237 -0.3227666,0 0.092219,0.3688761 0.2305476,0.4610951 -0.3227666,0.092219 -0.3688761,0.276657 0.2305476,0.3688761 0.368876,-0.04611 0.46109515,0.276657 -0.36887605,0 0,0.2766571 -0.2305526,0.4149856 0.3688761,0.2305473 L 1.0605163,9.5446686 1.1988448,9.2680115 1.7060494,9.0835735 2.121035,9.4985591 1.7060494,9.6368876 1.936597,9.9596542 1.5677209,9.8674352 1.2910638,10.097983 l -0.04611,0.368876 0.2305475,0.276657 0.1844381,-0.138329 0.2305476,0.09222 0.2305475,-0.184438 0.3227666,-0.138328 0.3688762,-0.276657 0.4149856,0.09222 -0.2766572,0.230547 -0.046109,0.322767 -0.3688762,0.184438 -0.3227666,0.04611 -0.5072046,0.138329 0.7377522,0.322767 0.4610951,0.138328 0.184438,0.09222 0,-0.461095 0.2305476,-0.276657 0.3688761,-0.138329 -0.2305476,0.9683 0.5994236,-0.04611 -0.368876,0 0.138329,-0.645533 0.414985,0.737752 0.230548,-0.09222 -0.276657,-0.230547 0.276657,-0.09222 0.276657,-0.276657 c 0.215274,0.09222 0.553285,0.292046 1.014409,0.599423 0.09222,0.09222 0.245821,0.261383 0.461095,0.507205 0.1230551,0.09222 0.322738,0.230547 0.5994241,0.414985 0.03084,0.338156 0.03084,0.645534 0,0.922191 -2.9e-5,0.430374 -0.07695,0.92219 -0.2305481,1.475504 0.153602,0.03084 0.292017,0.03084 0.4149861,0 0.307377,-0.06138 0.399596,-0.107493 0.276657,-0.138329 0.03084,0 0.06138,0.03084 0.09222,0.09222 0.06138,0.06138 0.123055,0.09222 0.184438,0.09222 0.03084,-0.06138 0.123055,-0.138328 0.276657,-0.230547 0.09222,-0.03084 0.230548,0 0.414986,0.09222 -0.09222,-0.153602 -0.245822,-0.753113 -0.461096,-1.798271 -0.03083,-0.09222 -0.04611,-0.199712 -0.04611,-0.322767 l 0.414986,-0.414985 c 0.4918149,-0.491815 1.1680979,-1.045129 2.0288175,-1.659942 0.09222,-0.06138 0.261383,-0.184438 0.507204,-0.368876 l 0.09222,0.553314 0.276657,0.368876 0.599424,0.276657 0.04611,-0.507204 0.553314,0.09222 0.553314,0.645533 -0.09222,-0.829972 0.322766,0 0.04611,-0.599423 0.184438,0.276657 0.461095,0.138328 -0.138328,-0.737752 -0.322767,-0.2305473 -0.368876,-0.1383286 0.138328,-0.276657 0,-0.2305476 0.461096,-0.2305476 0.553314,0 0.230547,0.2766571 0.09222,0.4149856 0.368876,0.092219 -0.230547,-0.4149856 0.461095,0.04611 0,-0.2305475 0.322766,-0.2305476 -0.461095,-0.4149856 -0.04611,-0.3227665 0.645533,0 0.368876,0.322766 -0.276657,-0.5994236 -0.553314,-0.2766571 0.138328,-0.092219 0.461096,0 0.414985,-0.2305475 -0.414985,0 -0.691643,0.04611 0.368876,-0.3227666 0.04611,-0.4149856 -1.014409,0 -0.138328,-0.092219 -0.368876,-0.3688761 0.322766,-0.092219 0.322767,0 -0.599424,-0.3227666 -0.461095,-0.3227666 -0.322767,-0.092219 -0.184438,0 0.691643,-0.1844381 0.414986,-0.1383285 -0.276657,-0.3227666 0.230547,-0.4149856 0.461095,-0.04611 0.368876,0.2766571 -0.276657,-0.4610951 -0.599423,0.046109 -0.461096,0.04611 0,-0.2305476 -0.507204,0.092219 0.09222,-0.4149856 -0.184438,0.092219 -0.322767,0.5533141 -0.138328,0.3227666 -0.184438,-0.3227666 -0.322767,-0.2305475 0.461095,-0.1844381 -0.737752,-0.04611 -0.276657,-0.092219 0.184438,-0.4149856 0.04611,-0.4149856 0.322766,-0.2766571 -0.645533,0 0.09222,-0.2305475 -0.829971,0.8760807 0,-0.3227666 -0.322767,-0.1383285 0,-0.3227666 -0.4149846,0.092219 -0.138329,0.5994237 -0.230547,-0.1844381 -0.184438,0.5072046 -0.553314,-0.4149856 0.322766,-0.092219 0.138329,-0.5994236 m -3.596542,8.6685877 0.04611,-0.276657 0.184438,-0.138328 0.184438,0.276657 0.2305481,0.276657 0.04611,-0.368876 0.184438,0.09222 0.230547,0 0.230548,1.152738 C 6.7319864,11.957637 6.5783835,11.88098 6.3631105,11.757925 6.3017265,11.665706 6.1786725,11.527378 5.9942345,11.34294 5.8711794,11.250721 5.7021874,11.127666 5.4870294,10.974063 m 1.613833,-0.09222 0.322766,-0.09222 -0.138328,0.9683 -0.184438,-0.876081 m 0.645533,1.337176 0.2766571,-0.92219 0.322767,-0.322767 0.04611,-0.322766 0.414986,0 0.276657,-0.414986 0.276657,0.138329 0.8760795,-0.138329 C 9.2218704,10.851124 8.3918995,11.512017 7.7463954,12.21902"
       style="font-size:16px;font-style:normal;font-variant:normal;font-weight:normal;font-stretch:normal;line-height:125%;letter-spacing:0px;word-spacing:0px;fill:#000000;fill-opacity:1;stroke:none;font-family:ddvlts1a;-inkscape-font-specification:ddvlts1a"
       id="path3072" />
  </g>
</svg>
