<?xml version="1.0" encoding="UTF-8" standalone="no"?>
<!-- Created with Inkscape (http://www.inkscape.org/) -->

<svg
   xmlns:dc="http://purl.org/dc/elements/1.1/"
   xmlns:cc="http://creativecommons.org/ns#"
   xmlns:rdf="http://www.w3.org/1999/02/22-rdf-syntax-ns#"
   xmlns:svg="http://www.w3.org/2000/svg"
   xmlns="http://www.w3.org/2000/svg"
   xmlns:sodipodi="http://sodipodi.sourceforge.net/DTD/sodipodi-0.dtd"
   xmlns:inkscape="http://www.inkscape.org/namespaces/inkscape"
   width="16px"
   height="16px"
   id="svg3082"
   version="1.1"
   inkscape:version="0.48.3.1 r9886"
   sodipodi:docname="T&amp;S32.svg">
  <defs
     id="defs3084" />
  <sodipodi:namedview
     id="base"
     pagecolor="#ffffff"
     bordercolor="#666666"
     borderopacity="1.0"
     inkscape:pageopacity="0.0"
     inkscape:pageshadow="2"
     inkscape:zoom="11.098901"
     inkscape:cx="5.0106222"
     inkscape:cy="8.2151302"
     inkscape:current-layer="layer1"
     showgrid="true"
     inkscape:grid-bbox="true"
     inkscape:document-units="px"
     inkscape:window-width="826"
     inkscape:window-height="716"
     inkscape:window-x="535"
     inkscape:window-y="24"
     inkscape:window-maximized="0" />
  <metadata
     id="metadata3087">
    <rdf:RDF>
      <cc:Work
         rdf:about="">
        <dc:format>image/svg+xml</dc:format>
        <dc:type
           rdf:resource="http://purl.org/dc/dcmitype/StillImage" />
        <dc:title></dc:title>
      </cc:Work>
    </rdf:RDF>
  </metadata>
  <g
     id="layer1"
     inkscape:label="Layer 1"
     inkscape:groupmode="layer">
    <path
       style="font-size:16px;font-style:normal;font-variant:normal;font-weight:normal;font-stretch:normal;line-height:125%;letter-spacing:0px;word-spacing:0px;fill:#ffffff;fill-opacity:1;stroke:none;font-family:ddvlts1a;-inkscape-font-specification:ddvlts1a"
       d="m 13.84906,4.0000004 c -0.352217,2.35e-5 -0.528325,-0.1509434 -0.528302,-0.4528301 -2.3e-5,-0.3773349 0.251557,-0.5660142 0.754717,-0.5660378 0.327029,2.36e-5 0.490543,0.1509434 0.490566,0.4528302 -2.3e-5,0.3773821 -0.239009,0.5660613 -0.716981,0.5660377 m 0,0.6037736 C 13.723353,4.6037976 13.54715,4.515802 13.320758,4.339623 13.094343,4.1634438 12.981112,3.9874533 12.981136,3.8113212 c -2.4e-5,-0.2766981 0.150943,-0.4150707 0.45283,-0.4150943 0.150943,2.36e-5 0.327028,0.087972 0.528302,0.2641509 0.226415,0.1509434 0.339599,0.3144811 0.339622,0.490566 -2.3e-5,0.3019103 -0.150943,0.4528538 -0.45283,0.4528302 m 1.660377,0.7924527 C 15.358494,5.874222 15.169791,6.1132314 14.9434,6.1132078 c -0.301911,2.36e-5 -0.452854,-0.1509434 -0.45283,-0.4528301 -2.4e-5,2.35e-5 0.03773,-0.1509434 0.113207,-0.4528302 0.100708,-0.3018632 0.264128,-0.4528066 0.490566,-0.4528301 0.301863,2.35e-5 0.452807,0.1384433 0.45283,0.4150943 -2.3e-5,0.075472 -0.01179,0.1509433 -0.03774,0.226415 m 0.07547,1.0566036 c -0.100707,2.36e-5 -0.251604,-0.050236 -0.45283,-0.1509434 -0.201179,-0.1257075 -0.30191,-0.2767216 -0.301887,-0.4528301 -2.3e-5,-0.2767216 0.138444,-0.4150707 0.415095,-0.4150942 0.100707,2.36e-5 0.251556,0.062972 0.45283,0.1886792 0.201179,0.1007076 0.301863,0.2390093 0.301886,0.4150943 -2.3e-5,0.2767453 -0.138443,0.4151178 -0.415094,0.4150942 M 13.094343,3.622642 c -0.125707,0.226415 -0.289339,0.3396462 -0.490566,0.3396226 -0.276745,2.36e-5 -0.415118,-0.1509434 -0.415094,-0.4528302 -2.4e-5,-0.5785849 0.213915,-0.8679009 0.641509,-0.8679245 0.301864,2.35e-5 0.452807,0.1509434 0.452831,0.4528302 -2.4e-5,0.1257076 -0.06297,0.3019104 -0.18868,0.5283019 M 11.018872,2.9811325 c -0.301911,2.36e-5 -0.452854,-0.1509434 -0.45283,-0.4528301 -2.4e-5,-0.1007076 0.150943,-0.2892925 0.45283,-0.5660377 0.150943,-0.1509434 0.289292,-0.2264151 0.415094,-0.2264151 0.301863,2.36e-5 0.452807,0.1509434 0.45283,0.4528302 -2.3e-5,0.1761792 -0.100707,0.3522169 -0.301887,0.5283018 -0.201179,0.1761792 -0.389952,0.2641745 -0.566037,0.2641509 M 10.716985,2.4528307 c -0.150943,2.36e-5 -0.28934,-0.1007076 -0.415094,-0.3018868 -0.100708,-0.2011792 -0.150944,-0.3647641 -0.150944,-0.490566 -2.3e-5,-0.2766981 0.138444,-0.4150707 0.415095,-0.4150943 0.377335,2.36e-5 0.566014,0.2641745 0.566037,0.7924528 -2.3e-5,0.2767452 -0.138443,0.4151179 -0.415094,0.4150943 m 1.396226,0.754717 c -0.150943,0.4025471 -0.339646,0.6037971 -0.566037,0.6037735 -0.276746,2.36e-5 -0.415118,-0.1384434 -0.415095,-0.4150943 -2.3e-5,-0.075472 0.05024,-0.2389623 0.150944,-0.4905661 0.100707,-0.2515565 0.251556,-0.3773348 0.45283,-0.3773584 0.276698,2.36e-5 0.415071,0.1509434 0.415094,0.4528301 -2.3e-5,0.050236 -0.01179,0.1257076 -0.03774,0.2264151 m 0.943396,1.6981131 c -0.02523,2.36e-5 -0.176179,-0.050236 -0.45283,-0.1509434 -0.276745,-0.1007075 -0.415118,-0.2515566 -0.415094,-0.4528302 -2.4e-5,-0.3018631 0.150943,-0.4528065 0.45283,-0.4528301 0.07547,2.36e-5 0.251557,0.075472 0.528302,0.2264151 0.201179,0.1007075 0.301863,0.2390094 0.301887,0.4150943 -2.4e-5,0.2767452 -0.138444,0.4151179 -0.415095,0.4150943 M 14,6.4905662 c -0.301911,2.36e-5 -0.452854,-0.1509434 -0.452831,-0.4528301 -2.3e-5,-0.5282783 0.20118,-0.7924292 0.603774,-0.7924528 0.301863,2.36e-5 0.452807,0.1509434 0.45283,0.4528302 -2.3e-5,0.1257075 -0.06297,0.289316 -0.188679,0.490566 C 14.314386,6.3898587 14.176085,6.4905898 14,6.4905662 m 1.471698,1.2830188 c -0.503161,2.36e-5 -0.754741,-0.2011792 -0.754717,-0.6037735 -2.4e-5,-0.3018632 0.150943,-0.4528066 0.45283,-0.4528302 0.125707,2.36e-5 0.276698,0.062972 0.45283,0.1886792 0.176179,0.1257076 0.264127,0.2767453 0.264151,0.4528302 -2.4e-5,0.2767453 -0.138443,0.4151179 -0.415094,0.4150943 M 13.81132,5.320755 c -2.3e-5,0.4779952 -0.176179,0.7170047 -0.528301,0.7169811 -0.301911,2.36e-5 -0.452854,-0.1509434 -0.452831,-0.4528302 -2.3e-5,0.1007076 0.03774,-0.037736 0.113208,-0.4150943 0.07547,-0.2767217 0.226415,-0.4150707 0.45283,-0.4150943 0.276698,2.36e-5 0.415071,0.1761792 0.415094,0.5283019 l 0,0.037736 M 12.754717,4.7547175 c -2.4e-5,0.075472 -0.03774,0.1761792 -0.113208,0.3018868 -0.05024,0.2264151 -0.176179,0.3396462 -0.377358,0.3396226 -0.301911,2.36e-5 -0.452854,-0.1509434 -0.45283,-0.4528302 -2.4e-5,-0.1257075 0.05024,-0.2892924 0.150943,-0.490566 0.100707,-0.2011792 0.213915,-0.3018632 0.339623,-0.3018867 0.301863,2.35e-5 0.452806,0.2011792 0.45283,0.6037735 l 0,0 M 10.528302,3.8490572 C 10.075448,3.8490808 9.8490327,3.672878 9.8490567,3.3207553 9.8490327,3.0188922 10.0125,2.8679487 10.339623,2.8679251 c 0.528278,2.36e-5 0.792429,0.1509434 0.792452,0.4528302 -2.3e-5,0.352217 -0.201179,0.5283255 -0.603773,0.5283019 M 9.2452827,2.905661 c -0.30191,2.36e-5 -0.452854,-0.1384434 -0.45283,-0.4150943 -2.4e-5,-0.1509434 0.100707,-0.3018632 0.301887,-0.4528302 0.201179,-0.1761792 0.364764,-0.2641273 0.490566,-0.2641509 0.301863,2.36e-5 0.4528063,0.1257075 0.4528303,0.3773585 C 10.037712,2.3271233 9.9370277,2.503161 9.7358487,2.6792459 9.5596697,2.8301893 9.3962027,2.905661 9.2452827,2.905661 m 5.5094343,5.3584902 c -0.125708,2.35e-5 -0.276746,-0.050236 -0.452831,-0.1509434 -0.251603,-0.1257075 -0.377382,-0.2892924 -0.377358,-0.490566 -2.4e-5,-0.3018632 0.150943,-0.4528066 0.45283,-0.4528301 0.100708,2.35e-5 0.276698,0.075472 0.528302,0.226415 0.176179,0.1257076 0.264127,0.2767453 0.264151,0.4528301 -2.4e-5,0.2767453 -0.138444,0.4151179 -0.415094,0.4150944 M 9.4717018,3.7735853 c -0.276745,2.36e-5 -0.415118,-0.1384434 -0.415094,-0.4150943 -2.4e-5,-0.2011792 0.100707,-0.3647642 0.301887,-0.4905661 0.226415,-0.1257075 0.389905,-0.1886792 0.490566,-0.1886792 0.3018632,2.36e-5 0.4528062,0.1509434 0.4528302,0.4528302 -2.4e-5,0.1509434 -0.113208,0.3019104 -0.3396232,0.4528302 -0.226415,0.1257075 -0.389953,0.1886792 -0.490566,0.1886792 m 3.2830192,2.8301885 c -0.100708,2.36e-5 -0.276746,-0.062972 -0.528302,-0.1886793 -0.226415,-0.1509433 -0.339646,-0.2641273 -0.339623,-0.3396226 -2.3e-5,-0.3018632 0.150944,-0.4528065 0.45283,-0.4528301 0.02524,2.36e-5 0.17618,0.037736 0.452831,0.1132075 0.276698,0.075472 0.41507,0.2264151 0.415094,0.4528302 -2.4e-5,0.2767452 -0.150944,0.4151179 -0.45283,0.4150943 M 7.5471737,1.8113212 c -0.2767449,2.36e-5 -0.415118,-0.1509433 -0.415094,-0.4528301 -2.4e-5,-0.075472 0.06297,-0.2139151 0.188679,-0.41509435 0.125707,-0.2011792 0.238986,-0.3018632 0.339622,-0.3018868 0.301864,2.36e-5 0.452807,0.1384434 0.452831,0.41509435 -2.4e-5,0.1007076 -0.06297,0.2516038 -0.18868,0.4528302 -0.100707,0.2011792 -0.226415,0.3019103 -0.377358,0.3018867 M 13.39623,6.792453 13.283023,7.0188681 13.132079,6.7169813 l 0.150944,0.075472 0.07547,-0.1509434 0.07547,0.1886792 0.226415,-0.037736 -0.188679,0.3018868 -0.188679,-0.037736 0,0.037736 c 0.02524,2.36e-5 0.03774,0.025236 0.03774,0.075472 l -0.03774,-0.075472 c -2.4e-5,2.36e-5 -0.01179,2.36e-5 -0.03774,0 -0.125708,0.025236 -0.17618,0.037736 -0.150944,0.037736 -0.176179,2.36e-5 -0.264174,-0.1634434 -0.264151,-0.490566 l 0.264151,0.1132076 0.07547,0 c 0.100708,-0.025236 0.188679,-0.011793 0.264151,0.037736 l 0.03774,0 0.03774,0.037736 -0.113208,-0.037736 M 8.6792477,2.4150953 c -0.100707,0.1007075 -0.188679,0.2011792 -0.264151,0.3018868 -0.07547,0.075472 -0.188679,0.1132075 -0.339622,0.1132075 -0.25158,2.36e-5 -0.377382,-0.1384434 -0.377359,-0.4150943 -2.3e-5,-0.1509434 0.06297,-0.314434 0.18868,-0.490566 0.150943,-0.2011792 0.327028,-0.3018632 0.528301,-0.3018868 0.276722,2.36e-5 0.415071,0.1384434 0.415095,0.4150943 -2.4e-5,0.1509434 -0.05024,0.2767453 -0.150944,0.3773585 M 11.358493,5.8867932 C 11.232786,5.8868168 11.069154,5.8238212 10.867927,5.6981139 10.691748,5.5471706 10.603753,5.3836564 10.603776,5.207548 c -2.3e-5,-0.3018632 0.150944,-0.4528066 0.452831,-0.4528303 0.150943,2.36e-5 0.301863,0.075472 0.45283,0.2264151 0.176179,0.1257075 0.264127,0.2767453 0.264151,0.4528301 -2.4e-5,0.3019105 -0.138444,0.4528538 -0.415095,0.4528302 m 2.981132,3.6226413 c -0.30191,2.36e-5 -0.452853,-0.1509434 -0.45283,-0.4528302 -2.3e-5,-0.3521933 0.251557,-0.5282782 0.754717,-0.5283018 0.301863,2.36e-5 0.452807,0.1509434 0.45283,0.4528301 -2.3e-5,0.1257076 -0.100707,0.2515802 -0.301887,0.3773585 -0.176179,0.1007075 -0.327075,0.1509434 -0.45283,0.1509434 M 8.5660418,3.849057 c -0.2767451,2.36e-5 -0.415118,-0.1509434 -0.4150951,-0.4528302 -2.29e-5,-0.1257075 0.06297,-0.2641273 0.1886801,-0.4150943 0.150943,-0.1761793 0.301863,-0.2641274 0.45283,-0.2641509 0.301863,2.35e-5 0.4528059,0.1384433 0.4528299,0.4150943 -2.4e-5,0.1509434 -0.07547,0.3144811 -0.226415,0.490566 C 8.8931637,3.7735853 8.7421267,3.849057 8.5660418,3.849057 m 3.2452832,3.5471695 c -0.352217,2.36e-5 -0.528326,-0.2515565 -0.528302,-0.7547169 -2.4e-5,-0.3018632 0.138443,-0.4528066 0.415094,-0.4528301 0.377335,2.35e-5 0.566014,0.226415 0.566038,0.6792452 -2.4e-5,0.352217 -0.150944,0.5283254 -0.45283,0.5283018 M 6.7547208,2.3773589 c -0.427688,2.36e-5 -0.6415331,-0.1634433 -0.641509,-0.490566 -2.4e-5,-0.3018631 0.163443,-0.4528065 0.490566,-0.4528301 0.452806,2.36e-5 0.679221,0.1634434 0.679245,0.490566 -2.4e-5,0.3019103 -0.1761791,0.4528537 -0.528302,0.4528301 m 3.4339622,3.6603772 c -0.176179,2.36e-5 -0.3522172,-0.1007076 -0.5283022,-0.3018868 -0.176179,-0.2264151 -0.264174,-0.4025 -0.264151,-0.5283018 -2.3e-5,-0.3018632 0.150944,-0.4528066 0.452831,-0.4528302 0.1509432,2.36e-5 0.2892922,0.075472 0.4150942,0.2264151 l 0.113207,0.1886792 0.03774,0.037736 c 0.125708,0.1509433 0.188679,0.289316 0.188679,0.4150943 -2.3e-5,0.2767452 -0.138443,0.4151179 -0.415094,0.4150943 M 9.3207628,5.2452834 c -0.17618,2.36e-5 -0.327052,-0.087972 -0.45283,-0.2641509 -0.125708,-0.1761793 -0.18868,-0.3270283 -0.18868,-0.4528302 -2.3e-5,-0.3018632 0.163444,-0.4528065 0.490566,-0.4528301 0.4025,2.36e-5 0.60375,0.226415 0.603774,0.6792452 -2.4e-5,0.3270519 -0.150944,0.4905896 -0.45283,0.490566 m 2.9433962,3.5094337 c -0.327076,2.35e-5 -0.49059,-0.1509434 -0.490566,-0.4528302 -2.4e-5,-0.3521933 0.238962,-0.5282782 0.716981,-0.5283018 0.276698,2.36e-5 0.415071,0.1384434 0.415094,0.4150943 -2.3e-5,0.377382 -0.213915,0.5660612 -0.641509,0.5660377 m 2.113203,1.9245279 c -0.07547,2.4e-5 -0.213915,-0.05024 -0.415094,-0.150943 -0.176179,-0.100708 -0.264175,-0.213915 -0.264151,-0.339623 -2.4e-5,-0.3018631 0.163443,-0.4528064 0.490566,-0.45283 0.427641,2.36e-5 0.641486,0.1761792 0.641509,0.528302 -2.3e-5,0.276745 -0.150943,0.415118 -0.45283,0.415094 M 8.4528338,4.7547173 c -0.226415,2.35e-5 -0.427688,-0.037736 -0.603773,-0.1132075 -0.150944,-0.1007076 -0.226415,-0.2389859 -0.226415,-0.4150943 -2.4e-5,-0.3018632 0.176179,-0.4528066 0.528301,-0.4528302 0.477972,2.36e-5 0.716958,0.1886792 0.716982,0.5660377 -2.4e-5,0.2767453 -0.138444,0.4151179 -0.415095,0.4150943 M 6.7169848,3.6981136 c -0.276745,2.36e-5 -0.415118,-0.1384434 -0.415094,-0.4150943 -2.4e-5,-0.4779717 0.188679,-0.7169575 0.566038,-0.7169811 0.301863,2.36e-5 0.4528059,0.1384434 0.4528299,0.4150943 -2.4e-5,0.4780189 -0.201179,0.7170047 -0.603774,0.7169811 m 6.4150943,6.5283014 c -0.327075,2.4e-5 -0.490589,-0.163443 -0.490566,-0.490566 -2.3e-5,-0.4528066 0.289293,-0.6792217 0.867925,-0.6792453 0.327028,2.36e-5 0.490542,0.1634434 0.490566,0.490566 -2.4e-5,0.2011793 -0.113208,0.3647877 -0.339623,0.4905663 -0.226415,0.125707 -0.402547,0.188679 -0.528302,0.188679 M 5.7735888,1.8113212 c -2.3e-5,0.4025472 -0.138443,0.6037972 -0.415094,0.6037736 -0.352217,2.36e-5 -0.528326,-0.2641274 -0.528302,-0.7924528 -2.4e-5,-0.3018632 0.150943,-0.4528066 0.45283,-0.4528301 0.327028,2.35e-5 0.490543,0.1886792 0.490566,0.5660377 l 0,0.075472 m 1.698113,2.6037735 C 7.0691788,4.4151187 6.8679048,4.20118 6.8679288,3.7735857 6.8679048,3.4968876 7.0063717,3.358515 7.2830228,3.3584914 c 0.4025,2.36e-5 0.60375,0.2139151 0.603774,0.6415094 -2.4e-5,0.2767452 -0.138444,0.4151179 -0.415095,0.4150943 m 3.1698112,3.5849054 c -0.276745,2.36e-5 -0.415118,-0.1509434 -0.415094,-0.4528302 -2.4e-5,-0.075472 0.03774,-0.2515566 0.113208,-0.5283018 0.100707,-0.2767217 0.264127,-0.4150707 0.490566,-0.4150943 0.276698,2.36e-5 0.41507,0.1509434 0.415094,0.4528301 -2.4e-5,0.1509434 -0.07547,0.352217 -0.226415,0.6037736 -0.125708,0.226415 -0.251604,0.3396462 -0.377359,0.3396226 m 3.283019,3.2075465 c -0.352217,2.4e-5 -0.528325,-0.226415 -0.528302,-0.679245 -2.3e-5,-0.352193 0.150943,-0.528278 0.45283,-0.528302 0.35217,2.4e-5 0.528279,0.25158 0.528302,0.754717 -2.3e-5,0.301911 -0.150943,0.452854 -0.45283,0.45283 M 6.0377398,2.9056612 c -0.176179,0.1007075 -0.314481,0.1509434 -0.415094,0.1509434 -0.276745,2.36e-5 -0.415118,-0.1384434 -0.415095,-0.4150944 -2.3e-5,-0.3773349 0.238986,-0.5660141 0.716982,-0.5660377 0.276721,2.36e-5 0.41507,0.1384434 0.415094,0.4150943 -2.4e-5,0.1761793 -0.100708,0.3144811 -0.301887,0.4150943 m -0.07547,1.0943396 c -0.30191,2.35e-5 -0.452853,-0.1384434 -0.45283,-0.4150943 -2.3e-5,-0.1007075 0.138444,-0.2892924 0.415095,-0.5660377 0.100707,-0.1007075 0.213915,-0.1509434 0.339622,-0.1509434 0.301863,2.36e-5 0.452807,0.1257076 0.45283,0.3773586 -2.3e-5,0.1509433 -0.100707,0.3144811 -0.301886,0.490566 -0.17618,0.1761792 -0.327052,0.2641745 -0.452831,0.2641509 m 6.0754722,6.2264142 c -0.251604,2.4e-5 -0.377382,-0.138443 -0.377359,-0.4150939 -2.3e-5,-0.5031368 0.201179,-0.7546934 0.603774,-0.754717 0.301863,2.36e-5 0.452806,0.1509434 0.45283,0.4528302 -2.4e-5,0.1257075 -0.07547,0.2767453 -0.226415,0.4528301 -0.12571,0.1761786 -0.276747,0.2641746 -0.452832,0.2641506 M 10.830193,9.0188679 C 10.704485,9.0188915 10.578589,8.9308962 10.452834,8.754717 10.352127,8.5535377 10.301891,8.3899528 10.301891,8.264151 c -2.4e-5,-0.3018632 0.138443,-0.4528066 0.415094,-0.4528301 0.125708,2.35e-5 0.238962,0.1007075 0.339623,0.3018867 0.125707,0.2011792 0.188679,0.3522169 0.188679,0.4528301 -2.4e-5,0.3019104 -0.138444,0.4528538 -0.415094,0.4528302 M 7.3962308,5.9622644 c -0.3773821,2.36e-5 -0.566062,-0.1886792 -0.566038,-0.5660377 -2.4e-5,-0.2515566 0.08797,-0.5031368 0.2641509,-0.7547169 0.125707,-0.1761793 0.289292,-0.2641274 0.4905661,-0.264151 0.3773349,2.36e-5 0.566014,0.2011793 0.566037,0.6037736 -2.3e-5,0.1509434 -0.05024,0.3270518 -0.150943,0.5283018 C 7.8238247,5.8113446 7.6226218,5.962288 7.3962308,5.9622644 M 4.6037778,3.2452835 c -0.150943,2.35e-5 -0.289316,-0.1132076 -0.415094,-0.3396227 -0.125708,-0.2264151 -0.18868,-0.3773349 -0.18868,-0.4528302 -2.3e-5,-0.2766981 0.138444,-0.4150707 0.415095,-0.4150943 0.201179,2.36e-5 0.364764,0.1384434 0.490566,0.4150943 0.07547,0.1761793 0.113207,0.3019104 0.113207,0.3773585 -2.31e-5,0.2767453 -0.1384431,0.4151179 -0.415094,0.4150944 m 1.396226,0.7924527 0.07547,-0.037736 c 0.05024,-0.025236 0.100707,-0.037736 0.1509429,-0.037736 0.2515571,2.36e-5 0.3773351,0.1257076 0.3773591,0.3773585 -2.4e-5,0.2515802 -0.125708,0.377382 -0.3773591,0.3773585 -0.125707,2.35e-5 -0.2264149,-0.075472 -0.3018859,-0.2264151 l -0.07547,0 c -0.07547,-0.2011793 -0.05024,-0.3773349 0.07547,-0.5283019 l 0.07547,0.075472 m 0.8679251,1.6603773 c -0.327052,0.025236 -0.49059,-0.075472 -0.490566,-0.3018868 -2.4e-5,-0.1509434 0.07547,-0.2264151 0.226415,-0.2264151 0.07547,2.36e-5 0.4025,0.1634434 0.981132,0.490566 l -0.716981,0.037736 M 5.4716989,4.5660382 c -0.452853,2.36e-5 -0.679268,-0.1634434 -0.679245,-0.490566 -2.3e-5,-0.2766981 0.138444,-0.4150708 0.415094,-0.4150943 0.125708,2.35e-5 0.276722,0.050236 0.452831,0.1509433 0.176179,0.1007076 0.264127,0.2139151 0.264151,0.3396227 -2.4e-5,0.2767452 -0.150944,0.4151179 -0.452831,0.4150943 M 4.5283029,4.0000005 c -0.276745,2.36e-5 -0.415118,-0.1257076 -0.415094,-0.3773585 -2.4e-5,-0.1257075 0.06297,-0.2766981 0.188679,-0.4528301 0.125708,-0.1761793 0.276722,-0.2641274 0.45283,-0.264151 0.276722,2.36e-5 0.415071,0.1257075 0.415095,0.3773585 -2.4e-5,0.1257075 -0.06297,0.2767453 -0.18868,0.4528302 -0.125707,0.1761792 -0.276745,0.2641745 -0.45283,0.2641509 m 8.1886791,7.2830185 c -2.4e-5,0.402523 -0.163444,0.603797 -0.490566,0.603773 -0.327076,2.4e-5 -0.49059,-0.188679 -0.490566,-0.566037 -2.4e-5,-0.452807 0.163443,-0.679222 0.490566,-0.679246 0.327028,2.4e-5 0.490542,0.18868 0.490566,0.566038 l 0,0.07547 m 0.07547,1.207547 c -0.125708,0 -0.276746,-0.06297 -0.452831,-0.188679 -0.176179,-0.150943 -0.264174,-0.314458 -0.264151,-0.490566 -2.3e-5,-0.276722 0.150944,-0.415071 0.452831,-0.415094 0.125707,2.3e-5 0.276698,0.07547 0.45283,0.226415 0.176179,0.125707 0.264127,0.264174 0.264151,0.415094 -2.4e-5,0.301887 -0.150944,0.45283 -0.45283,0.45283 M 11.245287,11.54717 c -0.30191,2.3e-5 -0.452854,-0.138444 -0.45283,-0.415095 -2.4e-5,-0.05024 0.05024,-0.188679 0.150943,-0.415094 0.100708,-0.251557 0.264127,-0.377335 0.490566,-0.377358 0.276698,2.3e-5 0.415071,0.138443 0.415094,0.415094 -2.3e-5,0.528325 -0.201179,0.792476 -0.603773,0.792453 m 0.07547,-8.1509432 0,0 0.377358,0.2264151 1.962264,-0.3018868 0.07547,0.5283019 -2.188679,0.4528301 -0.18868,0.3396226 -0.528301,0.075472 0.07547,0.5283017 -1.6226412,0.1509435 -0.90566,1.7358489 c 0.377334,0.050236 0.679221,0.2390093 0.90566,0.5660377 C 10.66665,7.6728776 11.635188,7.5471702 12.188678,7.3207551 12.490541,6.9434203 12.855329,6.528326 13.283018,6.0754722 13.962239,6.1007082 14.591178,5.861557 15.16981,5.3584911 L 15.509432,5.7735855 14.5283,6.5660382 13.547168,6.6792458 13.471698,6.7924533 C 13.647877,6.6667458 13.786132,6.5157316 13.886792,6.339623 l 0.490566,0.1509435 -0.07547,0.2264151 0.905661,0.1886792 -0.113208,0.5283019 -1.132075,-0.1509434 -0.377359,0.1886792 0.03774,0.037736 c 0.150944,2.36e-5 0.389906,-0.1384434 0.716981,-0.4150943 l 0.339623,0.3773584 c -0.427689,0.4528538 -0.779906,0.6792688 -1.056604,0.6792452 l -0.03774,0 c -0.201179,2.36e-5 -0.427688,-0.1257075 -0.679245,-0.3773584 l -0.830189,0.2641509 0.867925,0.7547169 0.188679,-0.3396226 1.018868,-0.6037735 0.264151,0.4528301 C 14.138353,8.478066 13.899343,8.6541038 13.698117,8.8301887 l 0.603773,-0.037736 0.07547,0.5283018 -0.415094,0.037736 0.150943,1.0188675 -0.490566,0.113208 -0.264151,-1.018868 -0.641509,0.037736 -1.509434,-1.2830187 -2.4528302,0.226415 C 8.6290128,8.1258019 8.5408058,7.9622878 8.4905698,7.9622642 c -0.07547,2.36e-5 -0.150943,0.075472 -0.226415,0.2264151 l -0.03774,0.075472 c 0.352194,0.5534669 0.792429,1.3836555 1.320755,2.490566 0.427641,0.276745 0.7672642,0.415118 1.0188682,0.415094 0.754693,2.4e-5 1.220094,0.100708 1.396226,0.301887 l 0.641509,-0.226415 0.226415,0.45283 -0.679245,0.377358 0.301887,1.283019 -0.490562,0.150944 -0.301887,-0.943397 -0.603773,0.792453 -0.452831,-0.301887 0.830189,-1.245282 c -0.100707,-0.05024 -0.201179,-0.07547 -0.301887,-0.07547 -0.07547,2.3e-5 -0.779905,-0.138444 -2.1132072,-0.415094 C 8.3899328,10.012594 7.8616307,9.1069339 7.4339658,8.6037736 L 7.0943437,9.0188679 6.9056647,10.301887 C 6.5786128,10.45283 6.0754518,10.641533 5.3962308,10.867924 l 0.943396,1.433963 1.094339,0 1.132076,2.037735 -0.45283,0.264151 -1.018868,-1.660377 -0.528302,0.03774 c -0.075472,0.100707 -0.201179,0.150943 -0.377359,0.150943 -0.25158,0.301887 -0.50316,0.830189 -0.754716,1.584906 l -0.528302,-0.150944 0.566037,-1.622641 0.339623,-0.264151 -0.566038,-0.90566 -0.943396,0.981132 c -0.30191,-0.02524 -0.779882,0 -1.433962,0.07547 l -0.075472,-0.528302 1.245283,-0.18868 0.867925,-0.867924 -0.18868,-0.264151 -1.320754,0.188679 c -0.327052,-0.125707 -0.603797,-0.251556 -0.830189,-0.377358 -0.352217,0.679268 -0.528325,1.018891 -0.528302,1.018868 -0.176179,0.276745 -0.465425,0.553466 -0.867925,0.830188 L 0.86792775,12.226415 C 1.2201208,11.924552 1.4591068,11.672971 1.5849088,11.471698 l -0.90566035,-0.301887 0.1132073,-0.490566 1.01886905,0.188679 0.64151,-1.1698109 c 0.276721,0.3522169 0.628915,0.6289389 1.056603,0.8301889 1.282996,-0.150944 2.226392,-0.364764 2.830189,-0.6415096 0.05024,-0.3018632 0.06297,-0.6540802 0.03774,-1.0566037 L 6.2264228,8.6792453 c 0.05024,-0.1257076 0.100708,-0.2389859 0.150944,-0.3396226 -0.402524,0.1761792 -0.817618,0.4402594 -1.245283,0.7924527 L 3.6981218,8.3773585 3.1320838,9.0566037 2.1509518,8.5283019 1.2830258,8.9433962 1.0188748,8.490566 l 0.566038,-0.3773584 -0.03774,-0.075472 0.264152,-0.4150943 1.132076,0.6415094 0.603773,-0.6792452 1.509434,0.7924527 C 5.5345798,8.0251652 6.0251458,7.7610143 6.5283058,7.5849058 5.7484238,6.7044106 4.8804997,6.2390096 3.9245328,6.1886795 L 3.2830228,6.6037738 2.6415138,6.1132078 1.2830218,6.9811322 0.98113575,6.5660379 2.1886838,5.6603776 c -0.05024,-0.1509434 0.03774,-0.3018632 0.264151,-0.4528301 l 0.867924,0.6037735 c 0.201179,-0.1257075 0.440236,-0.2011792 0.716981,-0.2264151 l -0.301887,-0.5660377 -1.584905,-0.037736 -0.03774,-0.490566 0.679245,-0.075472 -0.188679,-0.7547169 0.490566,-0.1886793 0.301887,0.9056603 0.679245,0.037736 c 0.125708,0.1761792 0.276722,0.4151179 0.45283,0.7169811 0.276722,0.4779952 0.666651,0.7547405 1.169811,0.8301886 l 0.18868,-0.1132076 C 5.7860848,5.5723348 5.5345758,5.3081838 5.1320758,5.0566037 l 0.339622,-1.1698113 -0.792452,-0.5283018 0.226415,-0.4150944 0.188679,0.075472 0.113207,-1.0566037 0.528302,0 -0.03774,1.3584905 0.490566,0.3018868 -0.26415,1.0943395 c 0.477971,0.4025236 0.716957,0.779882 0.716981,1.1320754 -2.4e-5,0.1509434 -0.05024,0.3019104 -0.150944,0.4528302 0.327029,0.2515801 0.6163449,0.4528537 0.867925,0.6037735 C 7.4087268,6.3270519 7.1320718,5.7610143 6.5282977,5.2075473 L 7.5849017,3.6603776 C 7.3584868,3.3585144 6.6163408,3.0691984 5.3584868,2.7924531 l 1.35849,-0.2641509 -0.113207,-0.3018868 0.226415,-0.075472 -0.07547,-0.037736 0.07547,-0.490566 0.377358,0.037736 0.528302,-0.86792445 0,1.16981115 0.188679,0.3018868 0.867925,-0.5283019 -0.792453,1.3962264 0.150943,0.1886792 2.9811322,0.5660377 -2.9811322,0.1132075 -0.754716,1.0943396 c 0.327028,0.3522169 0.528278,0.7673112 0.603773,1.2452829 l 0.867925,-1.5849055 0.867924,-0.037736 0.07547,-0.4150943 0,0 c -2.4e-5,-0.025236 0.02524,-0.1634434 0.07547,-0.4150942 l 0.6037742,-0.037736 -0.03774,0.3018868 0.45283,-0.037736 C 10.830179,3.8616505 10.679234,3.1824053 10.452819,2.0754713 l 0.490566,-0.1132075 c 0.07547,0.3019103 0.201179,0.7799056 0.377359,1.4339622 M 5.2452718,5.8113201 c -0.30191,2.36e-5 -0.452853,-0.1509433 -0.45283,-0.4528301 -2.3e-5,-0.1257076 0.06297,-0.2767217 0.188679,-0.4528302 0.125708,-0.1761792 0.276722,-0.2641273 0.452831,-0.2641509 0.301863,2.36e-5 0.452806,0.1509434 0.45283,0.4528302 -2.4e-5,0.4779952 -0.213915,0.7170046 -0.64151,0.7169811 m 5.6226412,4.7924528 c -0.100707,0.402523 -0.251603,0.603797 -0.45283,0.603773 -0.30191,2.4e-5 -0.4528532,-0.188679 -0.4528302,-0.566038 -2.3e-5,-0.125707 0.05024,-0.264127 0.1509432,-0.415094 0.125708,-0.176179 0.251557,-0.2641272 0.377359,-0.2641508 0.276698,2.36e-5 0.415071,0.1509438 0.415094,0.4528298 -2.3e-5,0.07547 -0.01179,0.138444 -0.03774,0.18868 M 4.0377208,4.867924 c -0.276745,2.35e-5 -0.415118,-0.1384434 -0.415094,-0.4150943 -2.4e-5,-0.075472 0.05024,-0.2264151 0.150943,-0.4528302 0.125708,-0.226415 0.238986,-0.339599 0.339623,-0.3396226 0.301863,2.36e-5 0.452806,0.1634434 0.45283,0.490566 -2.4e-5,0.075472 -0.06297,0.2139151 -0.188679,0.4150943 -0.100708,0.2011792 -0.213915,0.3019103 -0.339623,0.3018868 m 8.5283012,8.45283 c -0.05024,0 -0.08797,-0.01179 -0.113207,-0.03774 l -0.07547,0 -0.07547,-0.03774 0,0 c -0.352217,-0.02524 -0.528326,-0.17618 -0.528302,-0.452831 -2.4e-5,-0.276721 0.176179,-0.415094 0.528302,-0.415094 0.452806,0 0.679221,0.176179 0.679245,0.528302 -2.4e-5,0.276745 -0.138444,0.415094 -0.415095,0.415094 M 4.3396108,5.4716972 c -0.30191,2.36e-5 -0.452854,-0.1634433 -0.45283,-0.490566 -2.4e-5,-0.4779716 0.150943,-0.7169575 0.45283,-0.716981 0.301863,2.35e-5 0.452807,0.1634433 0.45283,0.490566 -2.3e-5,0.1257075 -0.05024,0.2767452 -0.150943,0.4528301 -0.100708,0.1761792 -0.201179,0.2641745 -0.301887,0.2641509 M 2.8679128,3.9622634 c -0.402524,2.36e-5 -0.603797,-0.2264151 -0.603774,-0.6792452 -2.3e-5,-0.2766982 0.138444,-0.4150708 0.415095,-0.4150944 0.4025,2.36e-5 0.60375,0.2264151 0.603773,0.6792453 -2.3e-5,0.2767452 -0.138443,0.4151179 -0.415094,0.4150943 m 0.339623,0.6415094 c -0.276746,2.36e-5 -0.415118,-0.1384434 -0.415095,-0.4150943 -2.3e-5,-0.4025 0.213915,-0.60375 0.64151,-0.6037736 0.276721,2.36e-5 0.41507,0.1384434 0.415094,0.4150943 -2.4e-5,0.4025236 -0.213915,0.6037972 -0.641509,0.6037736 m 8.9056592,8.6037732 c -0.251603,0.226415 -0.415118,0.339622 -0.490566,0.339622 -0.276745,0 -0.415118,-0.138443 -0.415094,-0.415094 -2.4e-5,-0.150943 0.07547,-0.301887 0.226415,-0.45283 0.150943,-0.176179 0.301863,-0.264151 0.45283,-0.264151 0.301863,0 0.452807,0.138443 0.45283,0.415094 -2.3e-5,0.150944 -0.07547,0.276745 -0.226415,0.377359 M 10.415098,12.45283 c -0.276745,0 -0.4151182,-0.150944 -0.415094,-0.45283 -2.42e-5,-0.100708 0.05024,-0.264128 0.150943,-0.490566 0.125708,-0.226415 0.264128,-0.339599 0.415095,-0.339623 0.301863,2.4e-5 0.452806,0.163443 0.45283,0.490566 -2.4e-5,0.100708 -0.06297,0.264175 -0.188679,0.490566 -0.125708,0.201179 -0.264175,0.301887 -0.415095,0.301887 M 3.6981178,6.1132077 c -0.150944,2.36e-5 -0.314481,-0.075472 -0.490566,-0.2264151 -0.150944,-0.1761792 -0.226415,-0.3270282 -0.226415,-0.4528301 -2.4e-5,-0.3018632 0.150943,-0.4528066 0.45283,-0.4528302 0.176179,2.36e-5 0.327028,0.087972 0.45283,0.264151 0.150943,0.1761792 0.226415,0.3270518 0.226415,0.4528301 -2.4e-5,0.2767453 -0.138443,0.4151178 -0.415094,0.4150943 M 2.2641548,4.8301889 C 1.8867728,4.6540097 1.6980938,4.4779956 1.6981178,4.3018871 c -2.4e-5,-0.3018632 0.163443,-0.4528066 0.490566,-0.4528302 0.301863,2.35e-5 0.503137,0.1634434 0.603773,0.490566 -2.3e-5,0.025236 0.125708,0.226415 0.377359,0.6037736 -0.528326,-0.025236 -0.830212,-0.062972 -0.905661,-0.1132076 m 1.773585,2.0754716 c -0.352217,2.36e-5 -0.528325,-0.2641273 -0.528302,-0.7924528 -2.3e-5,-0.2767217 0.138444,-0.4150707 0.415095,-0.4150943 0.125707,2.36e-5 0.238986,0.1007076 0.339622,0.3018868 0.125708,0.2011792 0.18868,0.3522169 0.18868,0.4528301 -2.4e-5,0.3019104 -0.138444,0.4528538 -0.415095,0.4528302 m 6.9433962,6.8679235 c -0.377382,0 -0.566061,-0.176179 -0.566038,-0.528301 -2.3e-5,-0.327029 0.163444,-0.490566 0.490566,-0.490566 0.377335,0 0.566014,0.176179 0.566038,0.528301 -2.4e-5,0.327052 -0.163443,0.490566 -0.490566,0.490566 M 9.2075507,11.660377 c -0.1007069,0.25158 -0.25158,0.377382 -0.4528299,0.377359 -0.30191,2.3e-5 -0.452854,-0.150944 -0.45283,-0.452831 -2.4e-5,-0.100707 0.06297,-0.251556 0.188679,-0.45283 0.125708,-0.226415 0.289293,-0.339599 0.490566,-0.339622 0.276698,2.3e-5 0.415071,0.138443 0.415094,0.415094 -2.3e-5,0.05024 -0.06297,0.201179 -0.188679,0.45283 m 1.2452832,0.981132 0.03774,-0.03774 0.113207,0.528302 -0.301886,-0.07547 -0.226415,-0.07547 0.301886,-0.415094 0.150944,0.377358 c -0.201179,0.25158 -0.389953,0.377359 -0.5660382,0.377359 -0.30191,0 -0.452854,-0.150944 -0.45283,-0.452831 -2.4e-5,-0.301886 0.176179,-0.45283 0.5283022,-0.45283 0.176179,0 0.314434,0.07547 0.415094,0.226415 m -0.188679,1.509434 c -0.3019102,0 -0.4528542,-0.150943 -0.4528302,-0.45283 -2.4e-5,-0.125708 0.07547,-0.264151 0.2264152,-0.415094 0.150943,-0.150944 0.301863,-0.226415 0.45283,-0.226415 0.276698,0 0.415071,0.138443 0.415094,0.415094 -2.3e-5,0.45283 -0.213915,0.679245 -0.641509,0.679245 M 2.1509518,5.849056 C 2.0502438,5.8490796 1.9245368,5.79882 1.7735928,5.6981126 1.5471758,5.5724051 1.4339458,5.4213909 1.4339698,5.2452825 c -2.4e-5,-0.2767217 0.138443,-0.4150708 0.415095,-0.4150944 0.100708,2.36e-5 0.238986,0.062972 0.415094,0.1886793 0.20118,0.1007075 0.301864,0.2390094 0.301887,0.4150943 -2.3e-5,0.2767453 -0.138443,0.4151179 -0.415094,0.4150943 m 1.094339,1.7735848 c -0.30191,2.36e-5 -0.452853,-0.1509434 -0.45283,-0.4528303 -2.3e-5,-0.075472 0.03774,-0.2139151 0.113208,-0.4150942 0.07547,-0.2264151 0.226415,-0.339599 0.45283,-0.3396227 0.301863,2.36e-5 0.452807,0.1509434 0.45283,0.4528301 -2.3e-5,0.1257076 -0.06297,0.2893161 -0.188679,0.4905661 -0.125708,0.1761792 -0.25158,0.2641745 -0.377359,0.264151 m 2.867925,2.7924522 c -0.176179,2.4e-5 -0.327052,-0.08797 -0.45283,-0.264151 -0.100708,-0.1761788 -0.150944,-0.3270278 -0.150944,-0.4528297 -2.3e-5,-0.2767217 0.138444,-0.4150708 0.415095,-0.4150943 0.150943,2.35e-5 0.289292,0.1007075 0.415094,0.3018867 0.125707,0.1761793 0.188679,0.3144811 0.188679,0.4150943 -2.4e-5,0.276745 -0.138443,0.415118 -0.415094,0.415094 m 0.339622,0.754717 c -0.125707,2.4e-5 -0.239009,-0.08797 -0.339622,-0.264151 -0.100708,-0.176179 -0.150944,-0.314457 -0.150944,-0.415094 -2.3e-5,-0.352193 0.163444,-0.5282782 0.490566,-0.5283018 0.2767219,2.36e-5 0.415071,0.1509438 0.415095,0.4528298 -2.4e-5,0.503161 -0.138444,0.754741 -0.415095,0.754717 M 1.6981218,6.4528294 c -0.42769,2.36e-5 -0.641511,-0.1761791 -0.641511,-0.5283018 0,-0.3018632 0.150944,-0.4528066 0.45283,-0.4528301 0.402502,2.35e-5 0.603751,0.1761792 0.603775,0.5283019 -2.4e-5,0.3019103 -0.138443,0.4528536 -0.415094,0.45283 m 3.660377,2.9433961 c -0.201183,0.3522178 -0.377386,0.5283262 -0.528306,0.5283027 -0.276745,2.35e-5 -0.415118,-0.1384434 -0.415094,-0.4150944 -2.4e-5,-0.1257075 0.06297,-0.2892924 0.188679,-0.490566 0.125707,-0.226415 0.264127,-0.339599 0.415094,-0.3396226 0.276722,2.36e-5 0.415071,0.1384434 0.415095,0.4150943 -2.4e-5,0.075472 -0.02524,0.1761793 -0.07547,0.3018868 m 2.3773559,3.3584907 c -0.3270519,0 -0.490589,-0.150944 -0.490566,-0.452831 -2.3e-5,-0.125707 0.100708,-0.238985 0.301887,-0.339622 0.201179,-0.125708 0.352193,-0.188679 0.45283,-0.188679 0.301863,2.3e-5 0.452807,0.150943 0.45283,0.45283 -2.3e-5,0.125707 -0.100707,0.25158 -0.301887,0.377358 -0.176179,0.100708 -0.314481,0.150944 -0.415094,0.150944 m 0.64151,0.641509 c -0.352217,0 -0.528326,-0.163443 -0.528302,-0.490566 -2.4e-5,-0.327028 0.163443,-0.490566 0.490566,-0.490566 0.352193,0 0.528278,0.176179 0.528302,0.528302 -2.4e-5,0.301887 -0.163444,0.45283 -0.490566,0.45283 M 2.2264197,7.3962265 c -0.352217,2.36e-5 -0.528326,-0.2389858 -0.528302,-0.7169811 -2.4e-5,-0.3018632 0.138443,-0.4528066 0.415094,-0.4528301 0.125708,2.35e-5 0.238986,0.1007075 0.339623,0.3018867 0.125707,0.2011793 0.188679,0.352217 0.188679,0.4528302 -2.4e-5,0.2767452 -0.138443,0.4151179 -0.415094,0.4150943 m 4.981131,5.2452825 c -0.30191,0 -0.452853,-0.176179 -0.45283,-0.528302 l 0,-0.113207 c -2.3e-5,-0.477972 0.163444,-0.716958 0.490566,-0.716981 0.301863,2.3e-5 0.452807,0.163443 0.45283,0.490566 -2.3e-5,0.578632 -0.163443,0.867924 -0.490566,0.867924 m 2,1.962264 c -0.377382,0 -0.566061,-0.201179 -0.566038,-0.603773 -2.3e-5,-0.352194 0.150944,-0.528302 0.452831,-0.528302 0.352169,0 0.528278,0.226415 0.528301,0.679245 -2.3e-5,0.301887 -0.138443,0.45283 -0.415094,0.45283 M 1.8113247,8.1509434 C 1.6856177,8.150967 1.5597437,8.0629717 1.4339657,7.8867925 1.3332577,7.6856133 1.2830217,7.5345991 1.2830217,7.4339623 c -2.3e-5,-0.2767216 0.138444,-0.4150707 0.415096,-0.4150943 0.150943,2.36e-5 0.276721,0.1007076 0.377358,0.3018868 0.125708,0.1761792 0.188679,0.3144811 0.188679,0.4150943 -2.3e-5,0.2767453 -0.150943,0.4151179 -0.45283,0.4150943 M 0.79245575,7.3207548 c -0.276745,2.36e-5 -0.415094,-0.1509434 -0.415094,-0.4528302 0,-0.3521933 0.213915,-0.5282782 0.64150895,-0.5283018 0.301864,2.36e-5 0.452807,0.1384434 0.452831,0.4150943 -2.4e-5,0.3773821 -0.226416,0.5660613 -0.67924595,0.5660377 M 7.0943437,13.735849 c -0.427689,0 -0.641533,-0.226415 -0.64151,-0.679246 -2.3e-5,-0.477971 0.226415,-0.716981 0.679246,-0.716981 0.377335,0 0.566014,0.18868 0.5660371,0.566038 -2.3e-5,0.553467 -0.201179,0.830189 -0.6037731,0.830189 m 1.4339621,1.35849 c -0.402524,0 -0.603797,-0.213915 -0.6037741,-0.641509 C 7.9245088,14.150943 8.0754757,14 8.3773628,14 c 0.377334,0 0.5660139,0.213915 0.566037,0.641509 -2.3e-5,0.301887 -0.138443,0.45283 -0.415094,0.45283 M 2.6792498,9.5094338 C 2.3773387,9.5094574 2.2263958,9.3709905 2.2264197,9.0943395 2.2263958,8.968632 2.2893897,8.8176179 2.4150988,8.6415094 2.5660418,8.4653301 2.7169617,8.377382 2.8679288,8.3773585 c 0.301863,2.35e-5 0.452807,0.1509433 0.45283,0.4528301 -2.3e-5,0.4528537 -0.213915,0.6792688 -0.641509,0.6792452 m 4.943396,4.8679242 c -0.352217,0 -0.528326,-0.150943 -0.528302,-0.45283 -2.4e-5,-0.377359 0.201179,-0.566038 0.603773,-0.566038 0.327029,0 0.490543,0.176179 0.490566,0.528302 -2.3e-5,0.327052 -0.188679,0.490566 -0.566037,0.490566 m -3.924528,-3.660377 c -0.301911,2.4e-5 -0.452854,-0.226415 -0.452831,-0.679245 -2.3e-5,-0.3270286 0.138444,-0.4905427 0.415095,-0.4905663 0.327028,2.36e-5 0.490542,0.2264151 0.490566,0.6792453 -2.4e-5,0.327052 -0.150944,0.49059 -0.45283,0.490566 m 2.792452,2.90566 c -0.402523,0 -0.603797,-0.176179 -0.603773,-0.528302 -2.4e-5,-0.276721 0.150943,-0.415094 0.45283,-0.415094 0.4025,0 0.60375,0.176179 0.603773,0.528302 -2.3e-5,0.276745 -0.1509431,0.415094 -0.45283,0.415094 m -0.830188,-0.415094 c -0.427689,0 -0.6415331,-0.264151 -0.64151,-0.792453 -2.31e-5,-0.528278 0.213915,-0.792429 0.64151,-0.792453 0.4025,2.4e-5 0.60375,0.226415 0.603773,0.679245 -2.3e-5,0.603774 -0.201179,0.905661 -0.603773,0.905661 M 1.2830217,8.7924528 C 0.75471975,8.7924763 0.49056925,8.5785377 0.49056925,8.1509434 c 0,-0.3018632 0.1634434,-0.4528065 0.4905665,-0.4528301 0.12570705,2.36e-5 0.27672105,0.062972 0.45283005,0.1886792 0.201181,0.1257075 0.301864,0.2767452 0.301888,0.4528301 -2.4e-5,0.3019104 -0.150946,0.4528537 -0.4528321,0.4528302 m 1.509435,1.8867922 c -0.3019099,2.4e-5 -0.4528529,-0.150943 -0.45283,-0.45283 -2.3e-5,-0.100708 0.05024,-0.2515567 0.150944,-0.4528302 0.1257071,-0.2011793 0.2515561,-0.3018632 0.377358,-0.3018868 0.301863,2.36e-5 0.452807,0.1634434 0.45283,0.490566 -2.3e-5,0.477995 -0.1761789,0.717005 -0.528302,0.716981 m 1.660378,1.509434 c -0.452854,0 -0.679269,-0.201179 -0.679246,-0.603774 -2.3e-5,-0.301863 0.150944,-0.452806 0.45283,-0.45283 0.452807,2.4e-5 0.679222,0.201179 0.679246,0.603774 -2.4e-5,0.30191 -0.150944,0.45283 -0.45283,0.45283 M 1.4717018,9.5471697 c -0.276746,2.36e-5 -0.415095,-0.1384434 -0.415095,-0.4150943 0,-0.5534434 0.163444,-0.8301651 0.4905659,-0.8301886 0.301865,2.35e-5 0.452808,0.1761792 0.4528321,0.5283018 -2.4e-5,0.1257075 -0.06297,0.2767453 -0.18868,0.4528302 -0.100707,0.1761792 -0.213917,0.2641745 -0.339623,0.2641509 m 0.830189,0.9811323 c -0.176179,2.3e-5 -0.327052,-0.08797 -0.45283,-0.264151 -0.125707,-0.201179 -0.188679,-0.3521936 -0.188679,-0.4528304 -2.4e-5,-0.3270283 0.150943,-0.4905424 0.45283,-0.490566 0.427665,2.36e-5 0.641486,0.2390094 0.641509,0.7169814 -2.3e-5,0.327052 -0.150943,0.490589 -0.45283,0.490566 m 2.566038,2.490566 c -0.1509441,0 -0.301911,-0.08797 -0.4528301,-0.264151 -0.150944,-0.17618 -0.2264149,-0.327029 -0.2264149,-0.452831 -2.4e-5,-0.276721 0.138443,-0.41507 0.415094,-0.415094 0.1761789,2.4e-5 0.3144569,0.100708 0.415094,0.301887 l 0.07547,0.07547 c 0.100707,0.150943 0.150943,0.276745 0.150943,0.377358 -2.3e-5,0.251581 -0.125707,0.377359 -0.3773579,0.377359 M 0.79245575,9.3584905 c -0.3018865,2.35e-5 -0.4528299,-0.1509434 -0.4528299,-0.4528302 0,-0.4025 0.2389858,-0.60375 0.71698095,-0.6037735 0.301863,2.35e-5 0.452807,0.1384433 0.45283,0.4150943 -2.3e-5,0.4276886 -0.239009,0.6415329 -0.71698105,0.6415094 M 6.5283058,15.35849 c -0.30191,0 -0.452854,-0.150943 -0.45283,-0.45283 -2.4e-5,-0.427665 0.1761789,-0.64151 0.528302,-0.64151 0.3018629,0 0.452806,0.150944 0.45283,0.452831 -2.4e-5,0.427688 -0.1761791,0.641509 -0.528302,0.641509 m -0.641509,-0.490566 c -0.301911,0 -0.452854,-0.163443 -0.45283,-0.490566 C 5.4339428,14 5.6101458,13.81132 5.9622678,13.81132 c 0.301864,0 0.452807,0.150944 0.452831,0.45283 -2.4e-5,0.402524 -0.17618,0.603774 -0.528302,0.603774 m -3.09434,-3.207547 c -0.100707,2.4e-5 -0.239009,-0.06297 -0.415094,-0.188679 -0.25158,-0.125708 -0.377382,-0.276722 -0.377358,-0.45283 -2.4e-5,-0.276722 0.150943,-0.415071 0.45283,-0.415095 0.201179,2.4e-5 0.377335,0.05024 0.528302,0.150944 0.176179,0.07547 0.264127,0.213915 0.26415,0.415094 -2.3e-5,0.327052 -0.150943,0.49059 -0.45283,0.490566 m 0.490566,1.056604 c -0.176179,0 -0.327052,-0.08797 -0.45283,-0.264151 C 2.7294858,12.251651 2.6792498,12.100636 2.6792498,12 c -2.4e-5,-0.276722 0.138443,-0.415071 0.415094,-0.415095 0.1761789,2.4e-5 0.314458,0.100708 0.415094,0.301887 0.1257079,0.176179 0.1886799,0.314481 0.1886799,0.415094 -2.39e-5,0.276746 -0.1384439,0.415095 -0.4150949,0.415095 m 1.509434,1.547169 c -0.377382,0 -0.566061,-0.188679 -0.566038,-0.566037 -2.31e-5,-0.301887 0.163444,-0.45283 0.4905659,-0.45283 0.3521941,0 0.528279,0.188679 0.528302,0.566037 -2.3e-5,0.301887 -0.150943,0.45283 -0.45283,0.45283 m -3.358491,-2.943396 c -0.07547,2.4e-5 -0.17618,-0.100707 -0.301887,-0.301886 -0.125708,-0.20118 -0.18867895,-0.364764 -0.18867895,-0.490566 0,-0.301863 0.15094295,-0.452807 0.45282995,-0.45283 0.352194,2.3e-5 0.528279,0.226415 0.528303,0.679245 -2.4e-5,0.377382 -0.163444,0.566061 -0.490567,0.566037 m 2.264152,2.377359 c -0.301911,0 -0.452854,-0.150944 -0.452831,-0.45283 -2.3e-5,-0.427665 0.18868,-0.64151 0.566038,-0.64151 0.301863,0 0.452807,0.163444 0.45283,0.490566 -2.3e-5,0.402524 -0.188679,0.603774 -0.566037,0.603774 m 1.2452831,1.245283 c -0.352217,0 -0.528326,-0.20118 -0.5283021,-0.603774 -2.39e-5,-0.301887 0.163443,-0.45283 0.490566,-0.45283 0.352193,0 0.528278,0.176179 0.528302,0.528302 -2.4e-5,0.352217 -0.163444,0.528302 -0.4905659,0.528302 M 2.6415138,13.35849 c -0.30191,0 -0.452854,-0.150943 -0.45283,-0.45283 -2.4e-5,-0.427665 0.213915,-0.641509 0.641509,-0.641509 0.3018629,0 0.452807,0.150943 0.45283,0.45283 -2.3e-5,0.125707 -0.07547,0.264151 -0.226415,0.415094 -0.125707,0.150943 -0.264174,0.226415 -0.415094,0.226415 M 0.71698475,11.396226 C 0.23898905,11.39625 3.25e-6,11.207547 3.25e-6,10.830188 c 0,-0.301863 0.1509434,-0.452806 0.4528302,-0.45283 0.4779713,2.4e-5 0.71698135,0.18868 0.71698135,0.566038 0,0.30191 -0.1509441,0.452854 -0.45283005,0.45283 m 1.13207595,1.735849 c -0.3270529,0 -0.490591,-0.226415 -0.490567,-0.679245 -2.4e-5,-0.352194 0.150943,-0.528278 0.452831,-0.528302 0.327029,2.4e-5 0.490543,0.239009 0.490566,0.716981 -2.3e-5,0.327052 -0.150943,0.490566 -0.45283,0.490566 m -0.679246,-0.716981 c -0.42768895,0 -0.64150965,-0.163443 -0.64150965,-0.490566 0,-0.276722 0.1761797,-0.415071 0.52830165,-0.415094 0.427665,2.3e-5 0.641487,0.163443 0.641511,0.490566 -2.4e-5,0.276745 -0.176182,0.415094 -0.528303,0.415094 m -0.22641495,0.754717 c -0.3018871,0 -0.4528305,-0.163443 -0.4528305,-0.490566 0,-0.4025 0.2011795,-0.60375 0.60377345,-0.603774 0.276722,2.4e-5 0.415071,0.150944 0.415094,0.452831 -2.3e-5,0.427688 -0.188679,0.641509 -0.56603695,0.641509"
       id="path3068"
       inkscape:connector-curvature="0" />
  </g>
</svg>
