<?xml version="1.0" encoding="UTF-8" standalone="no"?>
<!-- Created with Inkscape (http://www.inkscape.org/) -->

<svg
   xmlns:dc="http://purl.org/dc/elements/1.1/"
   xmlns:cc="http://creativecommons.org/ns#"
   xmlns:rdf="http://www.w3.org/1999/02/22-rdf-syntax-ns#"
   xmlns:svg="http://www.w3.org/2000/svg"
   xmlns="http://www.w3.org/2000/svg"
   xmlns:sodipodi="http://sodipodi.sourceforge.net/DTD/sodipodi-0.dtd"
   xmlns:inkscape="http://www.inkscape.org/namespaces/inkscape"
   width="16px"
   height="16px"
   id="svg3082"
   version="1.1"
   inkscape:version="0.48.3.1 r9886"
   sodipodi:docname="T&amp;S3.svg">
  <defs
     id="defs3084" />
  <sodipodi:namedview
     id="base"
     pagecolor="#ffffff"
     bordercolor="#666666"
     borderopacity="1.0"
     inkscape:pageopacity="0.0"
     inkscape:pageshadow="2"
     inkscape:zoom="11.098901"
     inkscape:cx="5.0106222"
     inkscape:cy="8.2151302"
     inkscape:current-layer="layer1"
     showgrid="true"
     inkscape:grid-bbox="true"
     inkscape:document-units="px"
     inkscape:window-width="826"
     inkscape:window-height="716"
     inkscape:window-x="535"
     inkscape:window-y="24"
     inkscape:window-maximized="0" />
  <metadata
     id="metadata3087">
    <rdf:RDF>
      <cc:Work
         rdf:about="">
        <dc:format>image/svg+xml</dc:format>
        <dc:type
           rdf:resource="http://purl.org/dc/dcmitype/StillImage" />
        <dc:title></dc:title>
      </cc:Work>
    </rdf:RDF>
  </metadata>
  <g
     id="layer1"
     inkscape:label="Layer 1"
     inkscape:groupmode="layer">
    <path
       inkscape:connector-curvature="0"
       d="m 5.4923375,13.192504 c -0.1635434,-0.05452 -0.4724702,-0.154515 -0.9267529,-0.29983 1.053942,-0.145315 1.8807392,-0.408841 2.4804156,-0.79046 -0.1453152,0.01823 -0.2816695,0.02726 -0.4088586,0.02726 -0.109029,1.7e-5 -0.2271551,0.02726 -0.3543442,0.08177 -0.1272572,0.05452 -0.227155,0.08177 -0.2998296,0.08177 -0.054514,1.7e-5 -0.1090289,-0.01823 -0.1635434,-0.05451 -0.218075,0.127257 -0.5814991,0.190817 -1.0902896,0.1908 -0.6360119,1.7e-5 -0.9630971,-0.254395 -0.9812674,-0.763202 0.3270851,0.127257 0.636,0.190817 0.9267461,0.1908 0.3089165,1.7e-5 0.6632606,-0.127257 1.0630392,-0.381601 0.4179386,-0.254395 0.7904429,-0.526968 1.1175468,-0.817717 -0.3271039,0.18172 -0.7087053,0.272589 -1.1448041,0.272572 -0.054515,1.7e-5 -0.1362862,-0.02726 -0.2453151,-0.08177 C 5.3742796,10.775639 5.3015368,10.739352 5.2470224,10.739352 6.1737515,10.594037 6.7915879,10.275996 7.1005146,9.785349 6.6280445,9.9852467 6.2282659,10.085196 5.9011961,10.085179 5.5014176,10.085196 5.0653017,10.003407 4.5928418,9.8398634 5.4287259,9.8398805 6.1919286,9.685349 6.8824567,9.3764904 6.6825589,9.4127766 6.455421,9.4310048 6.2010257,9.4310048 5.6922183,9.4310219 5.2924397,9.222044 5.0017072,8.8040883 5.328777,8.894889 5.6013494,8.9403745 5.8194244,8.9403745 6.2010087,8.9403916 6.6643818,8.8223166 7.209544,8.5860304 l -0.5996597,0 L 6.8824567,8.313458 C 5.9193562,8.2589436 5.2651825,7.9773081 4.9199355,7.4684836 c 0.3089097,0.090801 0.7268483,0.1545145 1.253833,0.1908007 0.6178194,0.054514 1.0357585,0.1 1.2538335,0.1362862 C 6.6098673,7.504838 5.9011791,7.0959794 5.3015368,6.5689947 5.6104465,6.7870697 5.9011791,6.8960986 6.1737685,6.8960816 6.3190836,6.8960986 6.4826782,6.8778533 6.6643988,6.8415671 6.0647225,6.6598635 5.4469031,6.4236455 4.8109065,6.1328789 5.3015198,6.278194 5.6922183,6.3509538 5.9829678,6.3509368 6.3827293,6.3509538 6.8461024,6.278194 7.373087,6.1328789 L 6.7189133,5.9965927 7.373087,5.6967631 6.4735981,5.8603065 5.437823,5.6422486 c 0.2180409,0.018228 0.4360988,0.027257 0.6541738,0.027257 0.3815843,1.7e-5 0.7813628,-0.1 1.1993182,-0.2998297 l -0.3543438,0 C 6.010208,5.3696932 5.5014176,5.3611581 5.4105658,5.3424189 4.9562728,5.2879044 4.5474108,5.0971208 4.1839832,4.7700169 4.8745011,5.0426064 5.6831211,5.1788925 6.6098843,5.1788755 7.0641603,5.1788925 7.273138,5.024361 7.236801,4.7155024 L 6.6643988,4.7972744 7.427602,4.415673 6.8824567,4.470188 7.373087,4.1976156 C 7.027823,4.2703586 6.7007361,4.3066445 6.3918264,4.3066445 6.0647225,4.3066616 5.6740411,4.2248725 5.2197651,4.0613294 c 0.2180409,0.036286 0.4451959,0.054515 0.681431,0.054515 0.1998807,1.7e-5 0.454276,-0.036286 0.7632027,-0.109029 C 6.1555913,3.8251118 5.7467327,3.5525395 5.437823,3.1890982 5.9829508,3.5343793 6.6462216,3.7524372 7.427602,3.843272 l 0,-0.1908007 L 6.8551995,3.5161839 7.0732574,3.2708688 6.6643988,3.2163543 7.291315,2.8892674 C 7.0187259,2.9255534 6.8370223,2.9437814 6.7461705,2.9437814 6.4735811,2.9437984 6.1283341,2.8982964 5.7103954,2.8074952 L 6.8824567,2.6984662 C 6.3191348,2.498603 5.9011791,2.1442589 5.6286237,1.6354344 6.1737515,1.9807155 6.7552506,2.153339 7.373087,2.1533219 7.354857,1.8989438 7.37307,1.699063 7.427597,1.5536627 6.9551263,1.5718907 6.6734739,1.4173765 6.5826221,1.0902896 l 0.4088586,0.2453152 0.4906303,0.027257 0,-0.2453152 -0.4088586,-0.1362861 0,-0.1635435 0.4088586,0.1362862 0,-0.2453151 -0.4906303,-0.2998297 0.4906303,0.081772 0,-0.490630300000001 0.163543,0 0,0.354344100000001 0.190801,0.054515 -0.190801,0.081772 0.136287,0.109029 0,0.1635434 C 7.963644,0.7269176 8.163525,0.7177186 8.3816,0.7359466 8.218056,0.7904616 8.036336,0.8814321 7.836455,1.008519 L 8.3816,1.035776 C 8.163525,1.09029 7.936387,1.1630333 7.700169,1.2538339 l 0.545145,0.081772 -0.463373,0.027257 -0.08177,0.2725724 0.408858,0.054514 -0.463373,0.054514 -0.02726,0.2725724 0.436116,0.054514 -0.408859,0.109029 0.408859,0.081772 C 8.199827,2.2623677 8.399759,2.1897787 8.654171,2.0442928 8.617881,2.3895738 8.29981,2.5712774 7.700168,2.5894376 8.390679,2.752981 8.835875,2.8347697 9.035773,2.8347527 9.290168,2.8347697 9.562723,2.7802387 9.85349,2.6712093 9.671752,3.0164904 9.462791,3.1891139 9.226573,3.1890968 8.990338,3.1891139 8.735926,3.1073248 8.463371,2.9437817 L 7.645653,2.752981 l 0,0.3270869 c 0.417939,0.1272572 0.899472,0.227155 1.444634,0.2998296 L 8.463371,3.4071545 C 8.754103,3.6070523 9.162962,3.688824 9.689946,3.6524697 9.344665,3.7252127 9.053933,3.7614986 8.817715,3.7614986 c -0.327104,1.71e-5 -0.717786,-0.1 -1.172062,-0.2998296 0.272556,0.6178535 1.208399,0.9994548 2.807496,1.1448041 l -1.09029,-0.027257 1.444634,0.3543441 C 9.626341,4.8427598 8.636,4.6246678 7.83646,4.2793867 l 0.408859,0.2998296 -0.463373,-0.1090289 0,0.3270868 0.49063,0.1362862 -0.49063,0.054514 c 0.490613,0.3997956 1.090272,0.5814992 1.798977,0.5451448 l -0.408858,0.109029 c 0.290732,0.072743 0.51787,0.1453151 0.681431,0.2180579 l 0.463373,0.027257 -0.599659,0.027257 C 9.426443,5.9330494 9.108453,5.8603066 8.763206,5.6967632 8.436102,5.5332197 8.272559,5.451465 8.272576,5.451448 c -0.05452,1.7e-5 -0.08177,0.027257 -0.08177,0.081772 -1.7e-5,0.1453152 0.0908,0.2725894 0.272573,0.3816014 L 7.781948,5.5332197 8.000006,5.8603066 7.890977,6.0783645 C 8.690517,6.3872912 9.553651,6.5054173 10.480414,6.4327086 10.007944,6.6144463 9.589988,6.705298 9.226581,6.705281 8.953992,6.705298 8.636002,6.6417376 8.272578,6.5144803 8.87222,6.9687904 9.67176,7.2141055 10.671215,7.2504258 10.180568,7.377683 9.762629,7.4412435 9.417382,7.4412265 9.144793,7.4412435 8.890397,7.4049405 8.654179,7.3321975 8.508864,7.4412265 8.436104,7.5320953 8.436121,7.6047699 8.436104,7.8773593 9.190227,8.1135774 10.698472,8.3134581 10.244162,8.5860475 9.490057,8.5951276 8.436121,8.3407151 8.636002,8.4679723 9.008506,8.667819 9.553668,8.9403743 l 1.063033,0.027257 -0.572403,0.2453151 c 0.599643,0.1817206 1.11753,0.2816695 1.553663,0.2998296 -0.345281,0.054514 -0.672368,0.081772 -0.98126,0.081772 -0.163544,1.7e-5 -0.499728,-0.045486 -1.008518,-0.1362862 0.109029,0.090801 0.281635,0.2089778 0.517887,0.3543441 0.32707,0.1635434 0.790443,0.2725891 1.390119,0.3270871 -0.763219,1.7e-5 -1.353799,-0.03629 -1.77172,-0.109029 C 9.562731,9.9943778 9.317416,9.9306638 9.008523,9.8398631 9.190227,9.9671204 9.508217,10.14879 9.962527,10.385008 c 0.308892,0.127257 0.717751,0.199898 1.226576,0.218058 -0.199898,0.03629 -0.517905,0.08177 -0.954004,0.136286 -0.254412,0.01823 -0.599676,1.7e-5 -1.035775,-0.05451 0.490613,0.181721 0.972164,0.381618 1.444634,0.599659 -1.7e-5,1.7e-5 -1.7e-5,0.01823 0,0.05451 -1.7e-5,0.05451 0.408841,0.118058 1.226576,0.190801 -0.436133,0.145315 -0.854072,0.218075 -1.253833,0.218058 -0.327104,1.7e-5 -0.7723,-0.0908 -1.335605,-0.272572 0.290732,0.18172 0.790443,0.436132 1.499148,0.763202 0.32707,0.0908 0.790443,0.163544 1.390119,0.218058 -0.490647,0.127257 -0.926763,0.190818 -1.308347,0.190801 -0.163544,1.7e-5 -0.299847,-0.0085 -0.408859,-0.02726 -0.218075,-0.05451 -0.508824,-0.172624 -0.872232,-0.354344 0.0908,0.109029 0.263476,0.263492 0.517888,0.463373 0.417922,0.254412 1.099353,0.299847 2.044293,0.136286 -0.236252,0.109029 -0.645111,0.236235 -1.226576,0.381601 -0.109029,0.01823 -0.254412,0.01823 -0.436116,0 -0.181737,-0.03629 -0.345281,-0.06354 -0.49063,-0.08177 -0.01823,1.7e-5 -0.03629,1.7e-5 -0.05451,0 0.745008,0.345264 1.480953,0.499728 2.207836,0.463373 -0.563339,0.181721 -0.981278,0.272573 -1.253833,0.272573 -0.417956,0 -0.854072,-0.06354 -1.308348,-0.190801 0.109029,0.0908 0.299813,0.227155 0.572402,0.408859 0.272556,0.18172 0.681414,0.272572 1.226576,0.272572 0.381585,0 0.781363,-0.04548 1.199319,-0.136286 -0.799557,0.29075 -1.435571,0.427036 -1.908007,0.408859 -0.199898,0 -0.47247,-0.03629 -0.817717,-0.109029 0.109029,0.05451 0.290732,0.127257 0.545145,0.218057 0.399761,0.127258 0.972163,0.181721 1.717206,0.163544 l -1.608183,0.136287 c -0.290767,-0.05452 -0.790477,-0.136287 -1.499149,-0.245316 0.454276,0.127258 0.899472,0.254413 1.335605,0.381602 0.32707,0.07274 0.690494,0.109029 1.09029,0.109029 0.05451,0 0.33615,0.02726 0.844974,0.08177 0.526951,0.05451 0.835877,0.07274 0.926746,0.05451 -0.781397,0.145315 -1.699046,0.218058 -2.752981,0.218058 -0.290767,0 -0.654191,-0.06354 -1.09029,-0.190801 C 8.926733,15.336797 8.490617,15.20046 8.054518,15.073254 l 0.545145,0.381601 0.626916,0.272572 -0.817717,-0.1908 0.327087,0.408859 L 8.000004,15.40034 8.027264,15.781942 8.245322,16 l -1.035775,0 0.272572,-0.163543 0,-0.763203 C 7.1731892,15.364003 6.8370223,15.536627 6.4735981,15.591141 6.001128,15.663884 5.5195777,15.736456 5.0289644,15.809199 4.4292967,15.936457 4.0113512,16 3.7751246,16 3.3753495,16 3.0482643,15.9 2.793864,15.70017 l 0.5451448,0.02726 c 0.5814855,0.03629 1.1084582,-0.1 1.5809267,-0.408859 0.1272572,0.01823 -0.1726406,0.04548 -0.8994957,0.08177 -0.2544021,0.01823 -0.5178893,-0.06354 -0.79046,-0.245315 0.3089131,0.05451 0.7813714,0.02726 1.4173765,-0.08177 0.6541635,-0.109029 1.0630221,-0.254395 1.2265826,-0.436116 -0.5814992,0.03629 -1.0448722,0.03629 -1.3901261,0 -0.4179471,-0.05451 -0.9721771,-0.20896 -1.6626916,-0.463373 0.7268586,0.03629 1.2810886,0.03629 1.6626916,0 0.3997683,-0.05452 0.9176559,-0.136286 1.5536695,-0.245315 -0.345264,0 -0.6178364,0 -0.8177172,0 -0.3997785,-0.03629 -0.9449267,-0.127257 -1.6354412,-0.272572 0.2543987,-0.01823 0.6814293,-0.04549 1.2810971,-0.08177 0.4724531,-0.05451 1.1175298,-0.172623 1.935264,-0.354344 -0.563322,0.03629 -0.9994378,0.02726 -1.3083475,-0.02726"
       style="font-size:16px;font-style:normal;font-variant:normal;font-weight:normal;font-stretch:normal;line-height:125%;letter-spacing:0px;word-spacing:0px;fill:#ffffff;fill-opacity:1;stroke:none;font-family:ddvlts1a;-inkscape-font-specification:ddvlts1a"
       id="path2998" />
  </g>
</svg>
