<?xml version="1.0" encoding="UTF-8" standalone="no"?>
<!-- Created with Inkscape (http://www.inkscape.org/) -->

<svg
   xmlns:dc="http://purl.org/dc/elements/1.1/"
   xmlns:cc="http://creativecommons.org/ns#"
   xmlns:rdf="http://www.w3.org/1999/02/22-rdf-syntax-ns#"
   xmlns:svg="http://www.w3.org/2000/svg"
   xmlns="http://www.w3.org/2000/svg"
   xmlns:sodipodi="http://sodipodi.sourceforge.net/DTD/sodipodi-0.dtd"
   xmlns:inkscape="http://www.inkscape.org/namespaces/inkscape"
   width="16px"
   height="16px"
   id="svg3082"
   version="1.1"
   inkscape:version="0.48.3.1 r9886"
   sodipodi:docname="T&amp;S7.svg">
  <defs
     id="defs3084" />
  <sodipodi:namedview
     id="base"
     pagecolor="#ffffff"
     bordercolor="#666666"
     borderopacity="1.0"
     inkscape:pageopacity="0.0"
     inkscape:pageshadow="2"
     inkscape:zoom="11.098901"
     inkscape:cx="5.0106222"
     inkscape:cy="8.2151302"
     inkscape:current-layer="layer1"
     showgrid="true"
     inkscape:grid-bbox="true"
     inkscape:document-units="px"
     inkscape:window-width="826"
     inkscape:window-height="716"
     inkscape:window-x="535"
     inkscape:window-y="24"
     inkscape:window-maximized="0" />
  <metadata
     id="metadata3087">
    <rdf:RDF>
      <cc:Work
         rdf:about="">
        <dc:format>image/svg+xml</dc:format>
        <dc:type
           rdf:resource="http://purl.org/dc/dcmitype/StillImage" />
        <dc:title></dc:title>
      </cc:Work>
    </rdf:RDF>
  </metadata>
  <g
     id="layer1"
     inkscape:label="Layer 1"
     inkscape:groupmode="layer">
    <path
       inkscape:connector-curvature="0"
       d="m 10.915255,2.3050854 -0.0678,-0.045198 0,0.1129943 -0.09039,-0.2259887 -0.112995,0.067797 -0.0452,0.180791 -0.316384,0.090395 0.0678,0.1129944 -0.0226,0.1129943 -0.135593,0.045198 -0.09039,0.090396 0.610169,0.090395 c -0.25613,0.1657486 -0.451991,0.3691384 -0.587571,0.6101695 -0.01511,-0.090396 -0.06031,-0.2033757 -0.1355934,-0.338983 l 0.0226,0.090395 -0.0452,0.1355933 -0.112994,-0.1355933 -0.0678,-0.045198 -0.0452,0.1355932 -0.0904,0 0,-0.3841808 c -1.4e-5,-0.045198 -0.01511,-0.1431073 -0.045198,-0.2937853 l 0.2033896,-0.045198 0.0226,-0.022599 0.2259888,-0.022599 c -0.01511,-0.075282 -0.03771,-0.1958334 -0.0678,-0.361582 l 0.248588,0.067797 0.0226,0.067797 0.158192,-0.2033898 0.0226,-0.1807909 c -0.0452,-0.075282 -0.07528,-0.1431074 -0.0904,-0.2033899 l 0.158192,-0.022599 0.158192,0.045198 0.0452,-0.022599 0.0226,-0.022599 0,0.1129943 0.0678,0.1129944 0.135593,0.022599 0.135593,-0.090395 -0.158192,-0.090395 0.135593,-0.2259887 0,-0.045198 0.112994,-0.090395 0.0904,0.090395 0.158192,-0.1807909 0.0226,-0.067797 0.112994,0.022599 c 0.01511,0.075283 0.0071,0.1732769 -0.0226,0.2937853 l 0.158192,0.022599 0.0452,-0.1581921 -0.0678,-0.1355932 0.0226,-0.1129943 0.135594,0 -0.0904,-0.090395 c -0.105508,-0.030085 -0.210932,-0.090395 -0.316384,-0.180791 l 0,-0.2033898 0.0452,-0.1129943 0.112994,0.022599 0.112994,-0.067797 -0.0678,-0.1129943 -0.112995,0 0.0904,-0.1581921 -0.158192,-0.022599 c -0.07528,0.2260028 -0.112994,0.4143362 -0.112994,0.5649718 l -0.135594,0.022599 -0.112994,-0.1129943 -0.0452,0.022599 0.0678,0.1355933 0,0.1355932 -0.248588,0.2033898 -0.158192,0.022599 c -0.03008,-0.1204802 -0.03771,-0.2561017 -0.0226,-0.4067797 l -0.09039,-0.022599 -0.0904,0.067797 -0.0904,-0.1355933 -0.0452,-0.158192 -0.451977,-0.2259887 -0.0678,0.1129943 0.0678,0.2485876 0.0904,0.067797 C 9.883191,0.896471 9.800366,0.903957 9.740112,0.903957 l -0.0904,0 0.0678,-0.1355933 -0.1581923,-0.022599 -0.1581921,0.022599 -0.1129943,0.1129944 -0.090395,0.045198 -0.1355932,0.1355932 -0.045198,-0.158192 0.022599,-0.1581921 0.180791,0.022599 C 9.1600285,0.5574583 9.1299438,0.4369357 9.1299438,0.4067803 L 9.0621468,0.2485882 8.858757,0.2259892 C 8.783474,0.3163852 8.7231637,0.399266 8.677966,0.4745767 l -0.090395,0.090396 0.067797,0.180791 0,0.1355932 -0.2033898,-0.2033898 -0.1581921,0.090395 -0.067797,0.1355933 -0.1129943,0.022599 -0.045198,-0.1581921 0.022599,-0.090395 0.090395,0 L 8.2711858,0.5649729 8.1355925,0.4519786 C 8.2862432,0.4370066 8.3992376,0.3841816 8.4745766,0.293786 L 8.4293786,0.1581928 C 8.3841806,0.1432208 8.3088984,0.0978818 8.2033899,0.0225995 l -0.1129943,0.2033899 -0.180791,0 -0.022599,0.090396 C 7.8117226,0.2560744 7.7514124,0.203391 7.7062146,0.1581933 L 7.6158196,0.1355943 7.5480226,0.2711875 7.4124294,0.3163855 7.3446324,0.2937865 7.2542364,0.1581933 7.3220334,0.0903963 7.1864402,1.3e-6 7.0056493,0.0903963 6.9378523,0.1807913 7.0734455,0.3163846 7.0508465,0.4293789 6.9152533,0.4745769 6.8700553,0.5875713 6.6440667,0.5423733 6.757061,0.3615824 6.6440667,0.3389834 6.5536707,0.2033902 6.3954786,0.1581922 6.3502806,0.2937854 6.0790941,0.0903956 c -0.045198,0.060311 -0.075283,0.1206214 -0.090395,0.1807909 l -0.1355932,-0.090395 -0.045198,0.1355933 -0.067797,0.067797 c 0.045198,0.045198 0.08291,0.1055084 0.1129943,0.1807909 l -0.045198,0.2033898 0.1581921,0.1355933 c 0.1055084,-0.090395 0.210918,-0.1506356 0.3163841,-0.180791 l 0.045198,0.180791 0.090395,-0.045198 0.158192,0.1129944 0,0.090395 -0.1129943,0.1129944 -0.2259887,-0.067797 -0.1129943,0.022599 0.045198,0.090395 -0.2485876,0.022599 -0.1355932,0.090395 0.1355932,0.045198 -0.045198,0.1581921 0.1129943,0.1129943 0.1355933,-0.045198 c 0.030085,0.060311 0.08291,0.1204802 0.158192,0.180791 0.090395,-0.045198 0.1732486,-0.060311 0.2485876,-0.045198 l 0.067797,0 L 6.8022575,1.920903 6.6666643,1.875705 6.5310711,1.9886994 C 6.350266,2.0490104 6.1996163,2.0942079 6.0790937,2.1242926 l -0.1581921,-0.045198 0,-0.1129944 C 5.9208875,1.9057892 5.9057886,1.830507 5.8757036,1.7401115 l -0.1129944,0.1129944 0.022599,0.067797 0.045198,0.2259887 -0.067797,0.1129943 c -0.015113,0.075283 -0.037712,0.150678 -0.067797,0.2259887 L 5.6497144,2.3050837 C 5.5744324,2.2598857 5.4839799,2.2372867 5.378528,2.2372867 5.348443,2.1620037 5.295618,2.1016934 5.2203359,2.0564957 L 5.1751379,2.1920889 C 5.1148269,2.192103 5.0244741,2.1694899 4.9039515,2.1242919 L 4.8361586,1.9209046 4.7231643,1.7853114 C 4.6176558,1.8908198 4.5273027,1.9661164 4.4519778,2.0113001 l -0.2711864,0.022599 -0.022599,0.1355932 0.090395,-0.022599 0,0.4745763 c -1.41e-5,0.1355932 0.022599,0.2410734 0.067797,0.3163841 -0.1204802,0.030226 -0.2109322,0.067797 -0.2711864,0.1129944 l 0,0.2033898 0.1355932,0 0.067797,-0.1129943 0.1581921,0.067797 0.022599,0 0.1355932,-0.1355933 0.2259887,-0.067797 0.022599,-0.045198 0.045198,0.022599 0.022599,0.045198 0.180791,0.180791 0.1581921,0 0.022599,-0.1355933 c 0.2109181,0.045198 0.3615678,0.060311 0.4519774,0.045198 l -0.022599,0.2033898 0.045198,0.1129944 0.090396,-0.1129944 c 0.045198,0.090395 0.067797,0.1808051 0.067797,0.2711864 l 0,0.2259887 -0.090395,0.067797 0,0.1581921 -0.2033898,0.1355933 c 0.075283,0.1055084 0.1431215,0.2034039 0.2033898,0.2937853 l 0.1129944,0.090395 -0.045198,-0.1355932 0.067797,-0.090395 0.1581921,-0.090395 0.1129944,0.1129943 0.2485875,1.1073446 -0.022599,0.090395 -0.045198,0.090395 -0.045198,0.022599 -0.700565,-0.6101694 0,-0.045198 C 5.627107,5.1374316 5.6120081,4.9792395 5.5819231,4.5423751 l -0.2033898,0 -0.067797,-0.2033899 -0.067797,0 C 5.1374298,4.2937859 5.0546049,4.2336164 4.9943507,4.1581927 L 5.2203394,3.9774017 5.0169496,3.7288142 4.4971756,3.7966112 4.4293786,3.9774021 4.2937853,4.0677971 C 4.1280513,4.0225995 3.9849298,3.947317 3.8644072,3.8418085 l -0.045198,0.1129944 -0.1355932,0 -0.1129944,0.067797 -0.2711864,-0.1129944 0.045198,-0.022599 -0.045198,-0.090395 -0.090395,-0.090396 -0.067797,-0.180791 -0.1581921,-0.1129943 -0.090396,0.022599 0.045198,0.1129943 -0.022599,0.1129944 C 2.8399711,3.7362999 2.7419914,3.8192241 2.6214688,3.9096054 l 0,0.2485876 C 2.7118648,4.097882 2.7721185,4.0377128 2.8022598,3.977402 l 0.1355932,0 -0.045198,0.2259887 0.1581921,-0.045198 0,-0.2033898 0.2259887,0.022599 0.2711864,0.1355932 -0.1129943,0.2259887 0,0.2033899 -0.067797,0.1355932 -0.1581921,-0.045198 0,0.2033898 0.1355932,0.090395 0.067797,-0.1355932 0.1581921,-0.1129944 0.045198,0.067797 0.045198,0.1581921 C 3.7062151,4.9491533 3.7665256,5.01695 3.841808,5.1073455 L 3.909605,5.0621478 4,4.8587579 l 0.2033899,0 -0.067797,0.1581921 0.2485876,0 0.1129944,-0.1581921 0,0.1129944 0.090395,0.1807909 0.2033899,-0.022599 0,-0.1129943 0.1129943,-0.1129944 0.2711864,0.067797 c -0.060311,0.075283 -0.090395,0.1582062 -0.090395,0.2485876 l 0.090395,0.067797 0.1129944,0 0.090396,-0.1355932 0.1581921,0 C 6.4256077,5.8455938 6.8926416,6.2147039 6.9378535,6.2598875 7.2994212,6.6516107 7.4802122,7.2015259 7.4802263,7.909605 l 0,0.3163842 -0.1807909,-0.045198 C 7.3295201,8.105509 7.352119,8.0301417 7.367232,7.9548027 L 7.2768365,7.8644073 7.1638421,7.909605 7.0056501,7.8192095 C 7.0809325,7.7740118 7.1713704,7.6836163 7.2768365,7.5480231 l 0,-0.1581921 -0.090395,-0.067797 -0.1129943,0.1355932 -0.180791,-0.022599 0,-0.067797 c -1.46e-5,-0.045197 -0.00706,-0.1281064 -0.022599,-0.2485866 l -0.2033898,0.045198 0,0.1581921 C 6.651554,7.0960598 6.7043789,6.8851418 6.8248591,6.6892661 L 6.5762715,6.5988706 6.5536727,6.8022604 C 6.4632772,6.7419497 6.3126134,6.6516107 6.1016953,6.531074 L 6.1242942,6.350283 5.8983055,6.1016955 5.7627122,6.1694921 5.8983055,6.350283 5.8531077,6.4858762 5.9661021,6.5988706 5.7627122,6.6666672 5.6949156,6.4858762 5.4463281,6.3276842 5.4915258,6.2146898 5.4689269,6.1016955 5.3333337,6.192091 l -0.022599,0.158192 -0.022599,0 -0.067797,0.090395 L 4.99435,6.5536728 4.926553,6.5084748 4.858756,6.6666669 l 0.1355932,0.045198 0,0.2485876 0.2937853,-0.1129944 0.090396,0.1581921 0,0.045198 C 5.288136,7.1563564 5.1525286,7.2467237 4.9717518,7.3220344 l -0.067797,0.180791 0.045198,0.090395 c 0.060311,-0.015113 0.1506498,-0.045198 0.2711865,-0.090395 0.090395,0.030085 0.1657203,0.075282 0.2259887,0.1355932 L 5.5593223,7.5932206 5.6949155,7.6384186 5.7627125,7.9322039 6.033899,7.8644069 6.101696,7.661017 6.3276847,7.5480227 6.3502837,7.8192091 C 6.2899721,7.924718 6.199619,8.0075429 6.0790964,8.0677971 l 0.1129944,0.090396 0.090395,-0.090396 0.2033899,0.045198 0.1581921,0.7683616 c -0.1055081,0.06031 -0.2486013,0.112994 -0.4293782,0.1581918 l -0.1355932,0.1581921 -0.022599,0.2485875 0.2033899,-0.1129943 0.090395,0.3163841 0.090395,-0.067797 0.1355932,-0.158192 0.180791,0.067797 0.067797,1.6949151 C 6.7043789,10.990594 6.4632631,10.711879 6.1016953,10.350283 l 0.1355932,-0.0226 0.090396,-0.180791 0,-0.2259887 L 6.0790964,10.056498 5.8757066,9.8757066 C 5.7853111,9.9509891 5.6572461,10.003814 5.4915258,10.033899 L 5.3107349,10.0113 5.288136,9.9661021 C 5.303249,9.8908191 5.310735,9.8305089 5.310735,9.7853112 l 0,-0.090395 L 5.0169496,9.4915259 4.9717518,9.3559326 C 5.0169496,9.3107349 5.1148733,9.2655372 5.2655371,9.2203394 5.1751416,9.1902547 5.0395343,9.1751417 4.8587575,9.1751417 l 0.045198,-0.1355932 0.1581921,-0.180791 -0.090396,0.022599 -0.1355932,-0.1355932 -0.180791,0 -0.158192,-0.1129944 0.1807909,-0.067797 0,-0.1355932 0.1129946,-0.112994 0.067797,0.067797 L 5.0621473,8.248588 4.9491529,8.0677971 5.107345,7.9548027 l 0,-0.1807909 -0.1807909,0.022599 C 4.8361586,7.9322039 4.7909609,8.0527406 4.7909609,8.1581926 l -0.2485876,-0.1581921 -0.067797,0.1807909 0.067797,0.090396 -0.067797,0.1581921 -0.1581921,0 -0.022599,-0.1581921 C 4.1581925,8.2560739 4.0828535,8.248588 4.067797,8.248588 L 3.8192095,8.2937858 C 3.7740117,8.1581926 3.7213281,8.0678112 3.6610174,8.0225994 L 3.8192095,7.6384186 3.9774016,7.6158197 4.1581925,7.5028254 4.2033903,7.3672321 4.0000004,7.4350287 3.7514129,7.3220344 l -0.2033899,0 -0.1129943,0.1129943 0.2485876,0.180791 -0.2259887,0.067797 0.090395,0.1355932 -0.022599,0.1581921 C 3.3295626,7.8418084 3.1111022,7.7664977 2.870057,7.7514129 l 0,0.180791 0.1129943,0.2485875 -0.067797,0.2485876 0.1581921,-0.022599 0.2033898,0.090396 0,0.1355932 0.180791,0.045198 -0.090396,0.090395 0.2711864,0 c 0.090395,1.42e-5 0.1657204,0.00706 0.2259887,0.022599 l 0.067797,0.1355932 0.2033898,0.022599 0,0.067797 0.180791,0.090396 0.1129944,0.1807909 -0.045198,0.1581921 -0.1807909,0 -0.2711865,-0.045198 -0.1129943,-0.1129944 0.067797,-0.1807909 0,-0.1355932 -0.1129944,0.067797 -0.2259887,-0.090396 -0.1355932,0.022599 0.180791,0.1355932 -0.090396,0.090396 -0.090396,0.1355932 C 3.3672321,9.273023 3.2919496,9.1902264 3.1864411,9.0847462 l -0.2711864,-0.045198 -0.1581921,0.090395 -0.090395,-0.1129944 0,-0.1355932 0.090396,-0.1355932 C 2.6214694,8.7608762 2.4256078,8.8060739 2.169492,8.8813564 l 0,0.067797 0.1129944,0.022599 0.158192,-0.090395 0.067797,0.1355932 c -0.1657348,0.075282 -0.301328,0.1732758 -0.40678,0.2937843 l 0.1581921,0.067797 -0.045198,0.1581921 0.022599,0.045198 0.3163842,-0.022599 0.2259887,0.1355932 0.1581921,-0.045198 0.090395,0.022599 -0.158192,0.1355932 -0.2033899,0.045198 c 0.1355933,-0.015113 0.2410452,-0.030085 0.3163842,-0.045198 l 0,0.2937856 c -0.030084,0.0452 -0.097881,0.165734 -0.2033893,0.361581 l 0.2711864,0 0.090396,-0.112994 0.1581921,-0.0226 0,0.0904 0.2033898,-0.0678 0,-0.112994 0.2259887,-0.0226 -0.022599,0.0904 0.1355932,0 c 0.060311,1.4e-5 0.286243,0.05268 0.6779661,0.158192 l 0.1355932,-0.0226 0,0.180791 c -0.1808054,0.0904 -0.3389975,0.135594 -0.4745766,0.135594 l -0.1355932,0.112994 0,0.0904 -0.4293785,-0.0452 c -1.42e-5,0.0904 0.015113,0.173263 0.045198,0.248588 l -0.1355935,0.0904 c -0.075282,0.105508 -0.1281074,0.188333 -0.1581921,0.248587 l 0.1355932,0.112995 0.180791,-0.0678 0.090395,0.135593 0,0.158192 0.1355933,0.0452 0.2711864,-0.0452 0.2937853,0.0904 0.1355932,-0.0452 0.045198,-0.09039 c 0.256116,-0.105509 0.4745623,-0.158178 0.6553674,-0.158192 l 0.2259887,0.0678 0.045198,-0.112995 0.2033898,-0.0452 c 0.090395,0.0452 0.1958475,0.08291 0.3163842,0.112994 -0.1355932,0.03009 -0.2335311,0.0904 -0.2937853,0.180791 l 0.045198,0.0904 c -0.1958622,1.4e-5 -0.346526,-0.0226 -0.451978,-0.0678 C 5.3408196,12 5.2504665,12.105467 5.1299439,12.180791 c -0.2260028,0.01511 -0.4067938,0.06031 -0.5423729,0.135594 -0.075282,0.07528 -0.1204802,0.165734 -0.1355932,0.271186 -0.1958616,-0.03008 -0.3163983,-0.0452 -0.3615819,-0.0452 l -0.090395,0 0.090395,0.135594 -0.1581921,0.09039 0.2259887,0.0226 c -0.1055085,0.0904 -0.2561299,0.226003 -0.4519774,0.406779 l -0.022599,0.158193 0.045198,-0.112995 0.090396,0 c 0.1657203,1.4e-5 0.3088418,-0.03008 0.4293785,-0.0904 l 0,0 0.1355932,0 0.1355932,0.0452 0.022599,0.0678 -0.1129943,0.0678 c 0.045198,1.4e-5 0.1204802,0.0071 0.2259886,0.0226 l -0.067797,-0.112994 0.3163842,-0.0678 0.022599,-0.0226 0.1581921,0.0226 0,-0.0226 -0.090396,-0.0678 0.022599,-0.0678 0.158192,-0.0226 -0.022599,-0.0452 0.022599,-0.0452 c 0.1355933,-0.03009 0.2410452,-0.03009 0.3163842,0 l 0,-0.0226 0.045198,-0.0452 c 0.1055084,1.4e-5 0.263644,0.03771 0.4745762,0.112994 l -0.2259887,0 0.067797,0.135593 -0.045198,0.0452 c -0.1204802,0.03008 -0.2260028,0.0452 -0.3163842,0.0452 l 0.067797,0.203389 c 0.1204802,1.4e-5 0.2937712,0.0226 0.519774,0.0678 l 0.090396,0.112995 0.1581921,-0.0904 0.022599,-0.112995 0,0.0678 0.1355932,-0.0452 -0.090396,-0.0226 0.022599,-0.112994 0.2485875,-0.0226 c -1.41e-5,-0.07528 -0.00706,-0.135593 -0.022599,-0.180791 l 0.2033898,0.0226 0.022599,0.0678 0.090395,0.0452 0.022599,-0.0452 0.1581921,-0.0452 0.2259887,0.0678 0,0.0678 c -1.46e-5,0.210933 -0.015114,0.527317 -0.045198,0.949153 -0.015113,0.42185 -0.022599,0.738234 -0.022599,0.949152 -1.42e-5,0.346526 -0.1355933,0.595114 -0.4067797,0.745764 l 0.3389831,-0.0452 -0.090395,0.180791 c 0.1055085,-0.07528 0.2711723,-0.173249 0.4971751,-0.293785 0.6026271,0.12048 0.8512147,0.180791 0.7457627,0.180791 C 8.1431077,15.706216 8.0225851,15.306978 8.0225992,14.689266 l 0,-1.220339 0.090396,-0.158192 0.090395,0.112994 0.2033899,0.0226 -0.022599,-0.0678 0.1355932,-0.112994 0.180791,-0.0452 -0.067797,-0.180791 0.2485875,0 0.1129944,-0.158192 -0.067797,-0.0226 0.090395,-0.112994 0.067797,0.0678 0.022599,-0.112995 -0.090395,-0.0452 -0.045198,-0.0678 -0.090395,0 0.1355932,-0.158192 -0.090395,-0.0226 -0.090395,0.112994 -0.2033898,0 0,-0.112994 0.1129943,-0.0226 -0.1355932,-0.0452 c -0.015114,-0.105507 -0.00706,-0.180775 0.022598,-0.225987 l -0.1581921,-0.09039 -0.1129944,0.112994 -0.1129943,0.0226 0.1129943,-0.180791 0,-0.0904 -0.1129943,-0.0452 0.022599,-0.158192 -0.045198,-0.135594 0.1581921,-0.0226 0.022599,0.135594 c 0.1055084,-0.03008 0.2033757,-0.112994 0.2937853,-0.248587 l -0.067797,-0.271187 0.090395,-0.0452 0.045198,0.112995 0.067797,0.0452 0.2033898,-0.112995 c 0.090395,0.01511 0.1807768,0.0452 0.2711864,0.0904 l 0.067797,-0.0452 0.4745762,-0.0678 0,-0.180791 -0.0452,-0.0678 0.0904,0.0678 0.1355933,0 0.0226,-0.135593 -0.0452,-0.0678 0,-0.112994 0.0678,-0.0678 0.0226,-0.0904 c -0.03009,-0.09039 -0.0904,-0.173246 -0.1807964,-0.248585 l 0.0452,-0.0904 0.0904,0.0226 0.09039,0 0,-0.0904 -0.09039,-0.1581924 0.135593,0.022599 c 0.06031,0.075283 0.143107,0.1355934 0.248588,0.1807914 l 0.0452,-0.1355937 -0.0678,-0.067797 0.0226,-0.045198 -0.0226,-0.2259887 c 0.07528,-0.060311 0.143107,-0.097881 0.20339,-0.1129944 0.03008,0.1055085 0.07528,0.2712006 0.135593,0.4971748 l 0.158192,0.0452 c 0.03008,0.07528 0.07528,0.158207 0.135593,0.248588 l 0.20339,-0.112994 -0.0904,-0.0678 0.0226,-0.0904 0.0904,-0.090395 c -0.03008,-0.1657204 -0.06031,-0.2937712 -0.0904,-0.3841808 l 0.180791,-0.022599 c 0.03009,0.045198 0.0678,0.1055085 0.112995,0.180791 l 0.225988,0.1129943 0.180791,0 c -0.0452,-0.1055087 -0.07529,-0.1883194 -0.0904,-0.2485878 L 11.61582,9.3785315 11.480227,9.3107349 11.457628,9.1977406 11.276837,9.1751417 c -0.06031,-0.030085 -0.12048,-0.075282 -0.180791,-0.1355932 l -0.0452,-0.1581921 -0.20339,0.022599 C 10.802261,8.8135598 10.69678,8.7307067 10.531074,8.6553677 l -0.0226,-0.090396 0.0678,-0.090396 c -0.0904,-0.030085 -0.203404,-0.090395 -0.338983,-0.1807909 l -0.3389834,0 -0.180791,-0.1355932 -0.0226,-0.045198 0,-0.1355932 -0.0226,0 c -0.03008,1.41e-5 -0.090395,-0.00706 -0.1807909,-0.022599 L 9.4463277,7.8644064 C 9.5969774,7.7891234 9.7852963,7.736299 10.011299,7.7062143 c 0.03008,-0.060311 0.112994,-0.1281074 0.248588,-0.2033898 0.105508,0.075282 0.2787,0.1883333 0.519774,0.338983 l -0.158192,0 0.158192,0.2033898 0.0678,-0.022599 0.20339,0.1355932 0.135593,-0.045198 0,-0.090395 -0.135593,-0.045198 0,-0.1355932 0.135593,0 c 0.0452,1.41e-5 0.158178,-0.015113 0.338983,-0.045198 l 0.0904,-0.1581921 0.112994,0 0.112995,0.090395 0.225988,0.022599 c 0.07528,0.045198 0.143108,0.08291 0.20339,0.1129944 l 0.158192,0 0.0904,-0.022599 c -0.0904,-0.045198 -0.210947,-0.1431073 -0.361582,-0.2937853 0.391695,0.030085 0.542358,0.045198 0.451977,0.045198 l 0.0678,0 -0.0904,-0.090395 0.135593,-0.022599 -0.0452,-0.022599 -0.135594,-0.2033898 -0.497175,-0.1129944 -0.0904,0.1355933 0.0452,-0.2033899 0.293785,-0.2937853 c 0.12048,0.060311 0.301299,0.1582062 0.542373,0.2937853 l -0.0226,0.1355933 0.135593,0.158192 c 0.0904,-0.030085 0.195834,-0.08291 0.316385,-0.158192 0.03008,0.090395 0.05268,0.1732768 0.0678,0.2485875 0.01497,-0.1355932 0.05268,-0.2787005 0.112995,-0.4293785 l -0.0678,0.022599 c -0.0452,1.41e-5 -0.120622,-0.015113 -0.225989,-0.045198 -0.09039,-0.045198 -0.165748,-0.067797 -0.225988,-0.067797 -0.06031,-0.015113 -0.128108,-0.075282 -0.20339,-0.1807909 l -0.0452,0 -0.158192,-0.045198 0,-0.067797 0.112994,-0.1581921 -0.112994,-0.022599 -0.158192,0.067797 -0.0678,0.090395 -0.180791,-0.090395 C 12.097882,6.4105938 12.060312,6.2975712 12.000001,6.1920909 l -0.225989,0.022599 c 0.07528,-0.1055084 0.173249,-0.1807768 0.293785,-0.2259887 l -0.0678,-0.1355932 -0.361582,-0.1807909 -0.20339,0.090396 -0.09039,0 0.158192,-0.1355933 0.180791,-0.045198 0,-0.2711864 c 0.241045,0.075283 0.610155,0.1958757 1.107345,0.3615819 l 0.158192,-0.090395 0.0678,-0.1129943 0.158192,-0.067797 0,-0.1581921 -0.0678,-0.1355932 -0.112995,-0.022599 c -0.09039,0.030085 -0.173276,0.052684 -0.248587,0.067797 l -0.0904,-0.022599 C 12.549857,5.0395486 12.47456,4.9491672 12.429377,4.8587576 l 0,-0.067797 0.20339,0.022599 0.09039,-0.1129943 0,-0.180791 -0.0226,-0.045198 -0.158192,-0.022599 -0.0452,-0.1129944 0.20339,-0.045198 -0.158192,-0.045198 c 0.0452,-0.090396 0.07528,-0.1657063 0.0904,-0.2259887 0.09039,-0.030085 0.180777,-0.067797 0.271186,-0.1129944 l 0.180791,0 -0.0452,-0.1581921 0.271187,0.022599 0.0904,0.1355932 0.112995,0.067797 0,-0.1581921 0.158192,-0.022599 c 0.0452,0.090395 0.105508,0.1582062 0.180791,0.2033898 l 0.0452,-0.180791 -0.158192,0 -0.135593,-0.1129943 -0.0226,-0.1581921 -0.20339,-0.022599 -0.0226,-0.022599 -0.0678,-0.022599 -0.180791,0.045198 -0.0678,0.1129944 -0.0904,-0.067797 -0.0904,0.045198 -0.158192,-0.2033898 0.0904,-0.180791 0.271186,-0.022599 0,-0.067797 0.180791,-0.1129944 0.0226,-0.067797 C 13.340804,2.930366 13.43123,2.92288 13.53671,2.937852 l 0.112995,-0.2259887 0,-0.1129943 -0.0904,0.2033898 -0.20339,-0.1807909 0,-0.045198 c 0.01497,-0.045198 -1.4e-5,-0.1204802 -0.0452,-0.2259887 l -0.158192,-0.045198 -0.0678,-0.090396 -0.0452,-0.090396 c 0.01497,-0.075282 0.0226,-0.1355932 0.0226,-0.1807909 l 0,-0.067797 -0.180791,-0.022599 -0.09039,0.1129943 -0.0904,-0.090395 -0.112994,-0.2033899 -0.112995,0.067797 -0.0226,0.090395 -0.271187,0.1355932 -0.0226,0.1355933 -0.112994,0.022599 c -0.0452,-0.090395 -0.09788,-0.2033757 -0.158192,-0.338983 l -0.0452,0.1355932 -0.180791,0.022599 -0.0452,0.022599 -0.0226,0.1355933 -0.180791,-0.022599 -0.0678,-0.1355932 0.0452,-0.022599 -0.135594,0.090396 -0.0226,0.2033898 -0.158192,0.067797 0,-0.090395 -0.0904,0.045198 -0.0452,0.1581921 -0.0226,-0.090396 m -0.09039,0.9717514 -0.158192,0.090396 0,-0.090396 -0.112994,0.1129943 0.0226,0.090396 -0.135593,0 0.0226,0.1355932 -0.225989,-0.067797 c 0.15065,-0.2109039 0.308842,-0.3766242 0.474577,-0.4971751 l 0,0.1129944 0.112994,0 0,0.1129943 M 10.53104,3.8870044 c -1.4e-5,0.015113 -0.0071,0.037712 -0.0226,0.067797 l -0.112995,0.067797 0.0226,0.1807909 -0.158192,0 c -0.01511,0.090396 -0.0452,0.1808051 -0.09039,0.2711865 l -0.1807914,-0.090395 0.0678,-0.045198 -0.1581928,-0.067797 0.1355948,-0.180791 0.0678,-0.022599 c 0.12048,-0.075282 0.218446,-0.188305 0.293785,-0.338983 l 0.135594,0.067797 0,0.090396 M 9.8530862,4.1355933 C 9.8078862,4.2411018 9.7099502,4.384195 9.5593005,4.5649719 L 9.5141029,4.4293786 9.333312,4.4745766 C 9.37851,4.2335455 9.408595,3.984958 9.423707,3.7288139 l 0.2033899,0.2259887 0.0226,-0.090395 0.09039,0.1355932 -0.0452,0.1129944 0.158193,0.022599 m 0.0452,0.4519774 -0.158192,0.045198 0.0904,-0.2033898 0.0678,0.1581921 M 9.2655376,3.7062153 c -1.42e-5,0.2561441 -0.030085,0.489661 -0.090396,0.700565 l -0.022599,-0.1129944 -0.090395,0.1129944 0,-0.180791 -0.090395,-0.067797 0.1355932,-0.022599 0.045198,-0.090395 -0.090395,-0.067797 -0.022599,-0.1581921 0.045198,-0.2033899 0.090395,0.067797 0,0.1355932 0.045198,-0.022599 0.045198,-0.090396 M 8.1355953,3.8418077 8.022601,3.8192087 7.977403,3.9096037 8.067798,4.1355924 7.9548036,4.0677954 C 7.9096056,4.0074844 7.8644086,3.9322022 7.8192104,3.8418067 L 7.6836172,3.8870047 7.7062162,3.6384171 C 7.7062021,3.5932191 7.6836172,3.450112 7.6384192,3.2090386 l 0.1807909,0.067797 0.090395,0.1355932 0.1129944,-0.045198 0.045198,0.1129943 -0.045198,0.1129944 0,0.1129943 0.1129943,0.1355932 m 1.7627115,1.8983051 c -0.105508,0.045198 -0.210932,0.097881 -0.3163839,0.1581921 l 0.2259889,0 -0.0678,0.1129943 -0.09039,0.045198 -0.067797,-0.090395 -0.045198,0.090395 0.1129946,0.067797 0,0.1355932 -0.090396,-0.067797 -0.1355932,0.067797 -0.045198,0.090396 -0.1581921,-0.067797 C 9.1450576,6.3577674 9.0395356,6.4105923 8.9039565,6.440677 8.9340415,6.3502815 9.0470638,6.1996318 9.2429395,5.9886996 l 0,0 C 9.3182212,5.9134187 9.355933,5.8455938 9.355933,5.7853113 l 0.1129944,0 0.090395,-0.090395 0.1807907,-0.022599 0.158192,0.067797 M 9.1751421,5.7175147 C 9.1299444,5.8079102 9.0546619,5.8907915 8.9491534,5.9661023 l -0.045198,-0.067797 c 0.015113,-0.060311 0.045198,-0.158178 0.090395,-0.2937853 0.045198,0.060311 0.1055085,0.097881 0.180791,0.1129943 M 7.4802269,3.5706221 c -1.41e-5,0.045198 -0.00706,0.1431497 -0.022599,0.2937853 l -0.045198,-0.1807909 -0.180791,0 0.067797,-0.090396 -0.1129943,-0.1355932 0.067797,-0.067797 c -0.015113,-0.045198 -0.030085,-0.097881 -0.045198,-0.158192 l 0,-0.2259887 0.1129943,0 0.045198,-0.090396 0.090396,0.1355932 c 0.015113,0.1808051 0.022599,0.2937994 0.022599,0.338983 l 0,0.180791 M 8.8361591,5.5819215 C 8.7758483,5.7627266 8.6854811,6.0263848 8.5649726,6.3728819 L 8.5423737,6.2824864 8.4293794,6.2598876 8.5649726,6.2372887 8.4519783,6.1242944 8.497176,6.0790966 8.3615828,6.0338989 c 0.045198,-0.045198 0.1055085,-0.075282 0.1807909,-0.090395 L 8.4293794,5.8531079 C 8.4444924,5.7475994 8.482063,5.6572605 8.5423737,5.5819215 l 0.2937854,0 M 8.2259896,5.8531079 8.0677975,5.8983057 8.0451986,6.0113 7.9096054,6.0564977 7.7966111,6.192091 C 7.7514133,5.8305232 7.7213286,5.4764695 7.7062156,5.1299441 l 0.090396,0.1355932 0.067797,-0.090396 0.1355932,0.1355932 0,0.1129944 0.045198,0.1129943 0.1581921,0.045198 0,0.067797 -0.1355932,0 -0.090395,0.090395 0.090395,0.067797 0.1581921,0.045198 m 1.40113,1.0169491 -0.022599,0.1129944 -0.1581921,0.067797 -0.022599,0.067797 -0.045198,0.045198 -0.2485875,0.090396 0.045198,0.067797 0.090396,0.045198 c -1.42e-5,0.030085 0.00706,0.090395 0.022599,0.1807909 l -0.1355932,0.067797 0.1355932,0.090396 0.022599,0.067797 -0.090395,0 L 9.0395489,7.7288141 8.9265545,7.5932209 8.8361591,7.5254243 8.7457636,7.4350288 8.6327692,7.5254243 c 0.045198,-0.286243 0.1055085,-0.5649577 0.180791,-0.8361582 l 0.1355932,0.1355932 c 0.015113,0.1204802 0.00706,0.2410734 -0.022599,0.3615819 l 0.180791,-0.3163842 0.1581921,-0.022599 -0.045198,0.022599 -0.022599,0.090396 0.158192,0 0.045198,-0.090396 0.2259888,0 M 7.3898314,6.4180797 C 7.1035744,6.086639 6.9378399,5.8907915 6.8926563,5.8305091 6.8022608,5.6648028 6.7570631,5.4086729 6.7570631,5.0621475 c -1.42e-5,-0.090395 0.015113,-0.2184463 0.045198,-0.3841808 0.030085,-0.1807768 0.045198,-0.31637 0.045198,-0.4067796 l 0.1581921,0.1129943 -0.1129943,0.2711864 0.1129943,-0.022599 0,0.1355933 0.045198,0.1129943 0.1807909,-0.067797 -0.045198,-0.1355932 0.1129943,-0.1129944 0,-0.1129943 0.067797,-0.022599 0.1129944,0.1129944 0.045198,0.9265536 C 7.5254105,6.086639 7.4802269,6.4030232 7.3898314,6.4180797 M 6.7570631,4.2485882 c -1.42e-5,0.1055085 -0.015113,0.256144 -0.045198,0.4519774 -0.030085,0.1958757 -0.045198,0.3465254 -0.045198,0.4519774 -1.41e-5,0.030085 0.015113,0.1055084 0.045198,0.2259887 0.015113,0.1055084 0.015113,0.180805 0,0.2259887 l 0,0.2259887 L 6.598871,5.7175147 C 6.5988569,5.6271192 6.50099,5.175156 6.3050857,4.3615825 l 0.090395,0.022599 0.1355932,0.1355932 0.022599,-0.1355932 0.1129944,-0.1581921 0.090395,0.022599 M 8.497176,6.6440683 C 8.4519783,6.8550005 8.3690687,7.1789271 8.2485884,7.6158197 l -0.090395,0.022599 -0.067797,-0.1355932 -0.090395,0.1355932 -0.067797,0.022599 C 7.9170913,7.4199723 7.8718935,7.0809892 7.7966111,6.6440683 l 0.158192,0.180791 0.090395,-0.090395 0.045198,0.1355932 0.1129943,0.090396 0,-0.045198 c -1.41e-5,-0.045198 0.00706,-0.1055085 0.022599,-0.180791 L 8.3841817,6.7570627 8.497176,6.6440683 m 1.1525426,2.4406779 c -0.075283,0.015113 -0.1355935,0.037712 -0.1807912,0.067797 l 0.067797,0.045198 0,0.067797 -0.045198,0.067797 -0.2259887,-0.022599 -0.022599,0.090396 -0.1355932,0.090395 -0.067797,-0.1129944 0,-0.090395 0.090395,-0.045198 L 9.0395489,9.1525429 9.01695,9.0395485 9.1525432,9.0621474 9.2881364,9.1751417 9.3785319,8.9717519 9.1073455,8.8813564 9.2203398,8.7909609 9.3333342,8.8587575 9.4915263,8.7457632 c 0.060311,0.1355932 0.1129943,0.2486017 0.1581923,0.338983 M 8.1807918,7.8644073 C 8.1507071,8.0452124 8.0829105,8.2109327 7.977402,8.3615824 7.9473173,8.2711869 7.9322043,8.2109327 7.9322043,8.1807915 l 0,-0.4067797 c 0.030085,0.075283 0.08291,0.1431356 0.1581921,0.2033898 l 0,-0.090395 0.090395,-0.022599 m 0.5423729,1.4915254 -0.090396,0 L 8.5423733,9.310735 8.4519783,9.355933 8.3389839,9.310735 8.158193,9.355933 8.4293794,8.3389839 l 0.067797,0.1355932 -0.022599,0.1129943 0.1355933,0.045198 0,0.067797 -0.180791,0.045198 -0.067797,0.1355932 0.1581921,0 -0.022599,0.1355932 -0.1581921,0.022599 0.045198,0.067797 c 0.1055084,0.015113 0.188305,0.030085 0.2485875,0.045198 l 0.022599,0.1355932 0.067797,0.067797 M 7.0734472,8.7909609 6.8926563,8.7231643 6.7344642,8.8135598 6.5536732,8.090396 6.6666676,8.067797 l 0.067797,-0.1355932 0.1129943,0.022599 0,0.2259887 0.1355933,-0.045198 0.090395,0.1355932 -0.1129943,0.067797 -0.067797,0.158192 0.1355932,0.1129944 0.045198,0.1807909 M 7.4802269,9.2203395 C 7.4049444,9.2203536 7.3220207,9.1751417 7.2316393,9.0847462 l 0.045198,-0.1129943 0.090395,-0.022599 0.090396,-0.090396 0.022599,0.361582 M 7.457628,10.305085 c -1.41e-5,-0.0904 -0.022599,0.165735 -0.067797,0.768362 -0.045198,0.06031 -0.1055085,0.09788 -0.1807909,0.112994 -1.42e-5,0.105509 -0.030085,0.195862 -0.090396,0.271187 -0.1506639,-0.03008 -0.2260028,-0.406766 -0.2259887,-1.129944 l 0,-0.225989 c -1.41e-5,-0.2711719 0.030085,-0.4745618 0.090395,-0.6101691 l 0.1807909,-0.067797 c -0.030085,0.090396 -0.037712,0.1657344 -0.022599,0.2259887 l 0,0.090395 C 7.2467523,9.7100287 7.3521619,9.664831 7.457628,9.6045202 l 0,0.7005648 m -0.9943502,0.677966 -0.3163842,0 c -0.045198,1.4e-5 -0.1055085,-0.0071 -0.180791,-0.0226 -0.075282,-0.03008 -0.1281073,-0.0452 -0.1581921,-0.0452 l -0.022599,-0.135594 0.1807909,-0.0226 -0.067797,-0.0904 0.1129944,-0.135593 c 0.1958474,0.09039 0.3465113,0.241059 0.4519774,0.451977 m 0.4293785,0.745763 -0.045198,0.135593 -0.158192,-0.0678 -0.022599,-0.158192 -0.1129944,0.112994 0,-0.18079 -0.067797,-0.158193 c -0.1355925,0.03009 -0.2561292,0.0678 -0.3615812,0.112995 l -0.1581921,-0.135593 -0.090395,0 c -0.075283,1.4e-5 -0.1883334,-0.01511 -0.3389831,-0.0452 0.497161,-0.105509 0.8286158,-0.158178 0.9943503,-0.158192 0.030085,1.4e-5 0.097881,0.08291 0.2033898,0.248587 0.1055085,0.150664 0.158178,0.248602 0.1581921,0.293786 m -0.9717518,-0.610169 -0.3841808,0.112994 0.022599,-0.20339 0.067797,0.112994 0.2937853,-0.0226 m 1.5819209,-5.5593224 -0.090395,-0.090395 -0.180791,-0.045198 0.090395,0.067797 -0.338983,-0.045198 0.1129943,0.1129943 0.180791,0 0.045198,0.090396 0.090396,-0.090396 0.090395,0.090396 0,-0.090396 m -0.2711865,1.3333333 -0.090396,-0.045198 0,-0.067797 -0.1355932,0.067797 0.045198,0.1581921 0.067797,0.045198 0.022599,-0.1129944 0.067797,0.1129944 0.067797,-0.022599 -0.045198,-0.067797 0,-0.067797 m -0.7457627,1.5367231 -0.067797,-0.022599 -0.022599,0.045198 -0.1129944,0.067797 -0.2033898,-0.045198 0,0.1807909 0.045198,-0.045198 0,-0.067797 0.067797,0.067797 0.045198,-0.022599 0.067797,0.022599 0,-0.045198 C 6.3954815,8.519775 6.4557354,8.474577 6.4858766,8.429379 m 1.4463277,-1.2655367 0.067797,0.067797 -0.067797,0.067797 0.022599,0.090395 0.090395,0.067797 0.022599,-0.090395 -0.022599,-0.067797 0.067797,-0.022599 0.045198,0.1355932 0.1129943,-0.045198 0.022599,-0.1129944 -0.1355932,0.022599 -0.022599,-0.090396 0.1129943,0 0.045198,-0.090395 -0.1581921,-0.022599 -0.067797,0.1129943 0,-0.1807909 -0.090395,0.022599 -0.045198,0.1355932 m 1.7401133,-4.3615818 0.09039,0 0.0452,0.045198 0.112994,-0.045198 0.0226,0.067797 -0.0452,0.1129943 0.1581921,0 0.112995,0.067797 -0.0904,0.022599 -0.1807911,0 -0.0678,0.090396 -0.0678,-0.067797 -0.0452,-0.067797 c -1.4e-5,-0.075282 -0.01511,-0.1506356 -0.0452,-0.2259887 m -0.2711868,1.5367232 0.090395,-0.067797 0.067797,0.090395 0.1129947,-0.067797 -0.0452,-0.1129943 -0.090396,0 0.1129946,-0.090396 -0.090396,-0.090395 -0.022599,0.090395 -0.090395,0.090396 -0.045198,0.1581921"
       style="font-size:16px;font-style:normal;font-variant:normal;font-weight:normal;font-stretch:normal;line-height:125%;letter-spacing:0px;word-spacing:0px;fill:#ffffff;fill-opacity:1;stroke:none;font-family:ddvlts1a;-inkscape-font-specification:ddvlts1a"
       id="path3084" />
  </g>
</svg>
