<?xml version="1.0" encoding="UTF-8" standalone="no"?>
<!-- Created with Inkscape (http://www.inkscape.org/) -->

<svg
   xmlns:dc="http://purl.org/dc/elements/1.1/"
   xmlns:cc="http://creativecommons.org/ns#"
   xmlns:rdf="http://www.w3.org/1999/02/22-rdf-syntax-ns#"
   xmlns:svg="http://www.w3.org/2000/svg"
   xmlns="http://www.w3.org/2000/svg"
   xmlns:sodipodi="http://sodipodi.sourceforge.net/DTD/sodipodi-0.dtd"
   xmlns:inkscape="http://www.inkscape.org/namespaces/inkscape"
   width="16px"
   height="16px"
   id="svg3082"
   version="1.1"
   inkscape:version="0.48.3.1 r9886"
   sodipodi:docname="forest_T&amp;S10.svg">
  <defs
     id="defs3084" />
  <sodipodi:namedview
     id="base"
     pagecolor="#ffffff"
     bordercolor="#666666"
     borderopacity="1.0"
     inkscape:pageopacity="0.0"
     inkscape:pageshadow="2"
     inkscape:zoom="11.098901"
     inkscape:cx="5.0106222"
     inkscape:cy="8.2151302"
     inkscape:current-layer="layer1"
     showgrid="true"
     inkscape:grid-bbox="true"
     inkscape:document-units="px"
     inkscape:window-width="826"
     inkscape:window-height="716"
     inkscape:window-x="535"
     inkscape:window-y="24"
     inkscape:window-maximized="0" />
  <metadata
     id="metadata3087">
    <rdf:RDF>
      <cc:Work
         rdf:about="">
        <dc:format>image/svg+xml</dc:format>
        <dc:type
           rdf:resource="http://purl.org/dc/dcmitype/StillImage" />
        <dc:title></dc:title>
      </cc:Work>
    </rdf:RDF>
  </metadata>
  <g
     id="layer1"
     inkscape:label="Layer 1"
     inkscape:groupmode="layer">
    <path
       inkscape:connector-curvature="0"
       d="M 7.5154927,2.9746478 C 6.8093801,2.4037745 6.1783941,2.1183238 5.622535,2.1183098 5.3821547,2.1183238 5.1267603,2.2309858 4.8563378,2.4563379 5.0366195,2.0657464 5.2844927,1.8704365 5.5999998,1.8704224 6.1107885,1.8704365 6.6741688,2.0582393 7.2901406,2.4338028 6.7492815,1.8779576 6.2459998,1.600014 5.7802815,1.5999999 5.4948308,1.600014 5.2169012,1.6450699 4.9464786,1.7352112 5.1868448,1.494859 5.4347322,1.374662 5.6901406,1.3746478 c 0.2704085,1.41e-5 0.5934226,0.090141 0.9690141,0.2704225 L 7.5830984,2.0957745 C 7.3727603,1.7502534 7.0948308,1.4798309 6.7492956,1.2845069 6.5840279,1.2094365 6.2084364,1.06669 5.622535,0.85633795 l 0.2253521,0 c 0.751169,1.41e-5 1.4046901,0.34556335 1.9605634,1.03661965 -0.03,-0.6309718 -0.3380423,-1.15678865 -0.9239437,-1.57746475 0.3154789,0.07507 0.5708873,0.2178592 0.7661972,0.4281691 C 7.7859153,0.89391545 7.9511688,1.1493098 8.1464788,1.5098591 8.0863378,1.0892253 8.0563378,0.72114075 8.0563378,0.40563375 l 0,-0.405633800000001 C 8.2215914,0.40564785 8.3117322,0.79626755 8.3267604,1.1718309 8.3869014,0.94649285 8.4920139,0.63099995 8.6422534,0.22535205 l 0,0.2929577 C 8.6422393,0.86387315 8.5897184,1.2244365 8.4845069,1.5999999 9.0403661,0.72866195 9.3258168,0.27043655 9.3408449,0.22535205 l 0.090141,0.04507 -0.022535,0.1802817 C 9.3933809,0.51084475 9.1830847,0.96152065 8.777465,1.8028164 9.002803,1.427253 9.2056199,1.1418023 9.3859157,0.94647845 9.6863805,0.60095725 9.9567888,0.42067555 10.197183,0.40563335 l 0.225352,0.090141 c 0.03,0.045071 0.04507,0.1052113 0.04507,0.1802817 -1.4e-5,0.090141 -0.007,0.1652817 -0.02254,0.2253521 -0.04507,-0.1502112 -0.120141,-0.225338 -0.225352,-0.2253521 -0.2854504,1.41e-5 -0.4957884,0.1878169 -0.6309856,0.56338025 l 0.1802817,0.04507 c 0.07507,0.060141 0.112676,0.195324 0.112676,0.4056338 -1.41e-5,0.090141 -0.022535,0.195324 -0.067606,0.315493 C 9.7539381,1.6300697 9.6563185,1.4422669 9.5211213,1.4422528 c -0.090141,1.41e-5 -0.1652676,0.082676 -0.2253521,0.2478873 0.1502254,0.04507 0.2253381,0.1277465 0.2253521,0.2478874 -1.4e-5,0.090141 -0.01507,0.1878169 -0.04507,0.2929577 C 9.4309813,2.0056472 9.3483048,1.8929711 9.228164,1.892957 9.0628964,1.8929711 8.8600795,2.19345 8.6197133,2.7943655 8.8751077,2.6441542 9.1680654,2.5690275 9.4985865,2.5690134 l 0.8788735,0 c 0.585901,1.41e-5 0.976507,0.07507 1.171831,0.2253521 L 11.436615,2.952112 11.211262,2.974647 11.346474,3.1999991 11.233798,3.3577456 C 10.707967,3.1925061 10.399981,3.1098723 10.309854,3.1098582 c -0.135211,1.41e-5 -0.285465,0.022535 -0.4507041,0.067606 0.6309721,0.420676 0.9464651,0.7962676 0.9464791,1.1267605 -1.4e-5,0.1052113 -0.007,0.2103522 -0.02253,0.315493 L 10.557746,4.3267605 10.512676,4.5295774 C 10.227211,3.9587041 9.8366054,3.6206759 9.3408449,3.5154929 9.7013941,4.0413379 9.8891971,4.5971971 9.9042251,5.1830985 9.769014,4.8976619 9.5737041,4.5671548 9.3183097,4.1915492 8.9727604,3.6957886 8.717366,3.4479013 8.5521125,3.4478872 c -0.015071,1.41e-5 -0.022535,0.022535 -0.022535,0.067606 -1.4e-5,0.07507 0.00704,0.1577605 0.022535,0.2478873 0.4506902,0.6009577 0.6760423,1.2319436 0.6760564,1.8929577 L 9.2056339,5.8366199 9.1154929,5.4760565 8.9802817,5.8366199 C 8.9502817,5.3108171 8.7999859,4.8075213 8.5295774,4.3267608 l 0,0.4957746 -0.2704225,0.022535 0.3380282,8.6985916 c -1.41e-5,0.976535 0.01507,1.79531 0.04507,2.456338 L 8.0563376,16 C 8.1464788,15.053521 8.1915491,14.392493 8.1915491,14.016901 8.191535,11.327704 8.0939434,8.2779436 7.8985913,4.8676055 L 7.650704,4.8450705 C 7.575634,4.5145776 7.5454927,4.1915635 7.560563,3.8760564 L 7.515493,3.8535214 C 7.1098451,3.8535355 6.6591409,4.5070566 6.1633804,5.8140848 6.1333804,4.8225496 6.4413099,4.1389862 7.087324,3.7633806 6.6366057,3.8535216 6.3361409,4.0263102 6.1859156,4.2816904 6.0807043,4.4619862 5.9981128,4.8075214 5.9380282,5.3183102 5.8478872,5.1230144 5.802817,4.9577609 5.802817,4.8225355 5.8028029,4.5521271 5.9229578,4.2516623 6.1633804,3.9211271 5.1417747,4.4920425 4.5934226,5.0028313 4.5183099,5.4535214 4.8638451,4.4920425 5.5023381,3.8760707 6.4338029,3.6056341 5.8629015,3.4554228 5.4798029,3.3802961 5.2845071,3.380282 4.953986,3.3802961 4.6835635,3.5981411 4.4732395,4.0338031 c 0.04507,-0.6009155 0.3305071,-0.9013944 0.856338,-0.9014084 0.1052113,1.4e-5 0.2328592,0.01507 0.3830986,0.04507 C 5.4272254,2.9671548 5.1793381,2.8619858 4.9690142,2.8619717 4.8338029,2.8619858 4.6610282,2.9221127 4.4507043,3.0422534 4.7511691,2.7718449 5.0366198,2.6366337 5.3070423,2.6366196 5.5173663,2.6366337 6.2460001,2.8995492 7.4929578,3.425352 6.9971691,2.9596478 6.4638451,2.7192675 5.8929578,2.7042252 6.1032818,2.599014 6.3060987,2.5464928 6.5014085,2.5464788 c 0.1802676,1.4e-5 0.5182958,0.1427464 1.0140845,0.428169"
       style="font-size:16px;font-style:normal;font-variant:normal;font-weight:normal;font-stretch:normal;line-height:125%;letter-spacing:0px;word-spacing:0px;fill:#ffffff;fill-opacity:1;stroke:none;font-family:ddvlts1a;-inkscape-font-specification:ddvlts1a"
       id="path3088" />
  </g>
</svg>
