<?xml version="1.0" encoding="UTF-8" standalone="no"?>
<!-- Created with Inkscape (http://www.inkscape.org/) -->

<svg
   xmlns:dc="http://purl.org/dc/elements/1.1/"
   xmlns:cc="http://creativecommons.org/ns#"
   xmlns:rdf="http://www.w3.org/1999/02/22-rdf-syntax-ns#"
   xmlns:svg="http://www.w3.org/2000/svg"
   xmlns="http://www.w3.org/2000/svg"
   xmlns:sodipodi="http://sodipodi.sourceforge.net/DTD/sodipodi-0.dtd"
   xmlns:inkscape="http://www.inkscape.org/namespaces/inkscape"
   width="16px"
   height="16px"
   id="svg3082"
   version="1.1"
   inkscape:version="0.48.3.1 r9886"
   sodipodi:docname="T&amp;S11.svg">
  <defs
     id="defs3084" />
  <sodipodi:namedview
     id="base"
     pagecolor="#ffffff"
     bordercolor="#666666"
     borderopacity="1.0"
     inkscape:pageopacity="0.0"
     inkscape:pageshadow="2"
     inkscape:zoom="11.098901"
     inkscape:cx="5.0106222"
     inkscape:cy="8.2151302"
     inkscape:current-layer="layer1"
     showgrid="true"
     inkscape:grid-bbox="true"
     inkscape:document-units="px"
     inkscape:window-width="826"
     inkscape:window-height="716"
     inkscape:window-x="535"
     inkscape:window-y="24"
     inkscape:window-maximized="0" />
  <metadata
     id="metadata3087">
    <rdf:RDF>
      <cc:Work
         rdf:about="">
        <dc:format>image/svg+xml</dc:format>
        <dc:type
           rdf:resource="http://purl.org/dc/dcmitype/StillImage" />
        <dc:title></dc:title>
      </cc:Work>
    </rdf:RDF>
  </metadata>
  <g
     id="layer1"
     inkscape:label="Layer 1"
     inkscape:groupmode="layer">
    <path
       inkscape:connector-curvature="0"
       d="M 7.6782244,8.4771174 7.656033,6.9681022 7.6116502,6.7683796 7.4119276,7.1456334 l -0.044383,0.3994452 0,0.2662968 0.1553398,0.3106796 0.1553398,0.3550624 M 7.1900136,7.4119302 7.2787792,6.9902936 7.212205,6.9681022 7.0790566,6.7683796 l -0.088766,0.1997226 0.110957,0.221914 0.088766,0.221914 m 0.9542302,1.1761442 0,0.7323162 0.421637,-1.3758668 0,-0.221914 -0.02219,-0.1997226 -0.04438,-0.1997226 -0.155339,0 -0.088766,0.110957 -0.1775312,-0.1997227 0.066574,0.3994452 -0.044383,0.3994453 0.044383,0.5547849 M 3.17337,2.97365 3.3287098,2.7295446 3.617198,2.4410563 C 3.7355059,2.4707373 3.8169068,2.4041631 3.8613034,2.2413337 3.9352284,2.2266319 4.0758111,2.1821104 4.2829401,2.1081853 4.4456724,2.078643 4.6157972,2.0711534 4.7933423,2.0859939 l 0.022191,-0.066574 C 4.9782656,1.9011118 5.1188065,1.804926 5.2371699,1.7309315 l 0.332871,-0.022191 -0.088766,-0.3550623 -0.2441054,-0.088766 0.044383,-0.221914 0.1775312,-0.22191405 0.3994452,-0.1331484 0.4660194,0.1553398 c 0.3106658,-0.1627184 0.599154,-0.2588765 0.8654647,-0.2884882 l 0.3772538,-0.2884882 0.2441054,0 0.4660194,-0.2662968 0.3106796,0.1553398 0.177531,0.1997226 0.843273,0.022191 c 0.08877,0.014841 0.162719,0.022191 0.221914,0.022191 l 0.4882108,0.332871 -0.02219,0 0.399445,0.48821085 -0.221914,0.088766 0,0.2219141 c 0.05922,0.059223 0.295867,0.1479611 0.710125,0.2662967 0.355048,0.1036061 0.606546,0.2663107 0.754508,0.4882108 l -0.244106,0.022191 -0.02219,0.1331484 c 0.05922,0.044383 0.18491,0.1036061 0.377254,0.1775313 l 0,0.1553398 0.133148,0.088766 0.266297,0.088766 0.133148,-0.044383 0.199723,0.044383 0.08877,0.110957 -0.08877,0.088766 0.110957,0.1997226 -0.04438,0.1331484 -0.15534,-0.1331484 -0.133148,0.088766 -0.110957,-0.1553398 -0.199723,-0.022191 c -1.4e-5,0.014841 0.02219,0.044383 0.06657,0.088766 0.04438,0.044383 0.05922,0.081415 0.04438,0.110957 l 0.15534,0.1997226 0,0.022191 0.288488,0.1775312 0.110957,0.1997227 c 0.01484,0.177545 0.0069,0.3106934 -0.02219,0.3994452 0.07392,0.3550763 0.110957,0.6139805 0.110957,0.776699 l 0,0.088766 -0.199723,0.088766 -0.244105,-0.2884882 -0.02219,0.2662968 c 0.118308,0.2367268 0.258891,0.5030236 0.421637,0.7988904 l 0.08877,0.066574 0.06657,0.1331484 C 13.070738,6.5242736 12.974549,6.6500434 12.82663,6.7683791 L 12.67129,6.5686569 12.560333,6.5464655 12.449376,6.8571452 12.227462,6.4133171 11.872399,6.9459108 11.606103,6.7683796 C 11.517337,6.6056611 11.443356,6.4872977 11.384189,6.4133171 l -0.06657,0.2441054 c 0.02954,0.2958946 0.08877,0.4882246 0.177532,0.5769764 l 0,0.044383 C 11.347189,7.204857 11.184457,7.167825 11.00694,7.167825 l 0,-0.221914 -0.08877,-0.1553398 -0.199723,-0.110957 -0.199722,0.2662968 c 0.05922,0.088766 0.133148,0.2515117 0.221914,0.4882108 -0.07393,-0.029542 -0.199738,-0.081415 -0.377255,-0.15534 L 9.9639388,6.901528 C 9.8751728,6.857145 9.7420108,6.842305 9.5644938,6.857145 9.4608878,7.0494889 9.2981828,7.3009868 9.0762828,7.6116526 l 0.110957,0.110957 0.221914,0.1775312 -0.06657,0.110957 -0.199723,0.044383 -0.177531,-0.044383 -0.110957,-0.066574 c -0.08877,0.207129 -0.177545,0.4882247 -0.266297,0.8432732 -0.177545,0.7101387 -0.266311,1.45724 -0.266297,2.241331 -1.4e-5,0.236713 0.0069,0.584383 0.02219,1.042996 0.01484,0.443842 0.02219,0.784105 0.02219,1.020804 -1.4e-5,1.494231 0.04438,2.367088 0.133148,2.618586 l 0.110957,0.177531 -0.221914,-0.08877 -0.08877,0.15534 -0.15534,-0.15534 -0.1331484,0.177532 -0.1775312,-0.133149 -0.1775312,0.15534 -0.066574,-0.15534 -0.4216366,0.133149 0.2441054,-0.177532 c 0.059223,-0.118308 0.088766,-2.32269 0.088766,-6.6130369 C 7.2047986,8.4031646 6.9828846,7.759614 6.8349511,7.2565904 6.8054088,7.2861327 6.7239941,7.3009732 6.5908457,7.3009732 6.4576973,7.300987 6.3763242,7.2861327 6.3467403,7.2565904 l -0.044383,-0.110957 c -1.38e-5,-0.073925 0.022191,-0.1257975 0.066574,-0.1553398 0.059223,-0.044383 0.088766,-0.073925 0.088766,-0.088766 -1.38e-5,-0.073925 -0.051734,-0.1257975 -0.1553398,-0.1553398 -0.1183079,1.38e-5 -0.2441193,0.037032 -0.3772538,0.110957 l -0.044383,-0.1775312 -0.221914,0.022191 -0.1775312,0.1775312 -0.022191,0.3106796 -0.1997226,0 0.022191,-0.155339 L 5.2371703,6.901528 5.0596391,6.8793366 4.8155337,7.2565904 4.6823853,7.234399 C 4.6675443,7.145633 4.6754553,7.0346902 4.7045763,6.901528 L 4.3938971,6.8571452 C 4.290291,6.9607513 4.1719692,7.0938719 4.0388346,7.2565904 3.9944518,7.2714309 3.9649095,7.2417499 3.950069,7.1678248 3.9352285,7.0938997 3.8983353,7.0568678 3.839112,7.0568678 L 3.9944518,6.7018054 C 4.1276002,6.6130397 4.2977251,6.4429149 4.5048541,6.1914031 L 4.3938971,6.0804461 4.2829401,6.0582546 4.1941744,6.2801687 4.0166432,6.2135945 3.9056862,6.4798913 3.8169206,6.4133171 3.7947292,6.1026375 3.6393894,6.2135945 3.506241,6.0804461 3.5506238,5.8363407 3.7503464,5.6810009 3.839112,5.5034697 4.1276002,5.3259385 4.1054088,5.1927901 3.839112,5.2149815 3.7059636,5.3481299 3.6393894,5.1262159 3.839112,4.9930675 3.8834948,4.8155363 3.5284324,4.9043019 3.395284,5.2149815 l -0.1997226,0 C 3.1807209,5.0374642 3.17337,4.859933 3.17337,4.6823879 3.1882105,4.5789205 3.2547847,4.4382963 3.3730926,4.2607513 L 3.5728152,4.1497943 4.0166432,3.972263 3.9722604,3.6837748 3.7947292,3.7725404 3.6837722,3.639392 3.617198,3.4840522 l -0.1553398,0 -0.1775312,0.110957 -0.110957,-0.022191 -0.2884882,-0.022191 0,-0.332871 L 3.17337,2.97365 m 9.542303,3.6837725 -0.02219,0.2441055 0.06657,0.5104022 0.15534,0 0.02219,-0.2441054 -0.133149,-0.332871 -0.08876,-0.1775313"
       style="font-size:16px;font-style:normal;font-variant:normal;font-weight:normal;font-stretch:normal;line-height:125%;letter-spacing:0px;word-spacing:0px;fill:#ffffff;fill-opacity:1;stroke:none;font-family:ddvlts1a;-inkscape-font-specification:ddvlts1a"
       id="path3092" />
  </g>
</svg>
