<?xml version="1.0" encoding="UTF-8" standalone="no"?>
<!-- Created with Inkscape (http://www.inkscape.org/) -->

<svg
   xmlns:dc="http://purl.org/dc/elements/1.1/"
   xmlns:cc="http://creativecommons.org/ns#"
   xmlns:rdf="http://www.w3.org/1999/02/22-rdf-syntax-ns#"
   xmlns:svg="http://www.w3.org/2000/svg"
   xmlns="http://www.w3.org/2000/svg"
   xmlns:sodipodi="http://sodipodi.sourceforge.net/DTD/sodipodi-0.dtd"
   xmlns:inkscape="http://www.inkscape.org/namespaces/inkscape"
   width="16px"
   height="16px"
   id="svg3082"
   version="1.1"
   inkscape:version="0.48.3.1 r9886"
   sodipodi:docname="T&amp;S2.svg">
  <defs
     id="defs3084" />
  <sodipodi:namedview
     id="base"
     pagecolor="#ffffff"
     bordercolor="#666666"
     borderopacity="1.0"
     inkscape:pageopacity="0.0"
     inkscape:pageshadow="2"
     inkscape:zoom="11.098901"
     inkscape:cx="5.0106222"
     inkscape:cy="8.2151302"
     inkscape:current-layer="layer1"
     showgrid="true"
     inkscape:grid-bbox="true"
     inkscape:document-units="px"
     inkscape:window-width="826"
     inkscape:window-height="716"
     inkscape:window-x="535"
     inkscape:window-y="24"
     inkscape:window-maximized="0" />
  <metadata
     id="metadata3087">
    <rdf:RDF>
      <cc:Work
         rdf:about="">
        <dc:format>image/svg+xml</dc:format>
        <dc:type
           rdf:resource="http://purl.org/dc/dcmitype/StillImage" />
        <dc:title></dc:title>
      </cc:Work>
    </rdf:RDF>
  </metadata>
  <g
     id="layer1"
     inkscape:label="Layer 1"
     inkscape:groupmode="layer">
    <path
       inkscape:connector-curvature="0"
       d="m 8.347831,11.630405 c -0.0145,-0.02894 -0.07247,-0.108696 -0.173913,-0.239131 0.333329,0.231889 0.615938,0.340585 0.847826,0.326087 0.159416,1.4e-5 0.362314,-0.05068 0.608696,-0.152174 -0.130435,-0.02894 -0.34783,-0.101494 -0.652174,-0.217391 -0.173917,-0.08696 -0.398554,-0.253614 -0.673913,-0.5 0.202894,0.04348 0.362315,0.04348 0.478261,0 0.10144,-0.04348 0.202894,-0.108696 0.304348,-0.195652 0.05796,0.04348 0.159415,0.108696 0.304347,0.195652 0.246373,0.08696 0.434778,0.101495 0.565218,0.04348 0.173907,-0.08696 0.275356,-0.333329 0.304348,-0.73913 -0.07247,0.04348 -0.202904,0.09416 -0.391305,0.152173 C 9.637682,10.347795 9.318841,10.202823 8.913049,9.8695349 8.710146,9.7101192 8.565218,9.5362197 8.478266,9.3477958 8.449266,9.2753778 8.413046,9.1883936 8.36957,9.0869262 c 0.08696,0.043478 0.166663,0.079755 0.239131,0.1086957 0.115937,0.043478 0.28985,0.043478 0.521739,0 C 9.014489,9.1666819 8.840581,9.0869262 8.608701,8.9564914 8.521741,8.8840734 8.42029,8.7391137 8.304353,8.5217088 8.449277,8.5941268 8.673914,8.6738963 8.978266,8.7608393 9.18116,8.7753773 9.456521,8.7101603 9.804353,8.5651871 9.586956,8.5652007 9.326087,8.5289101 9.021744,8.4564914 8.905793,8.4275514 8.724638,8.3332578 8.478266,8.1738828 l -0.02174,-0.021739 c 0.28985,0.072418 0.514488,0.072418 0.673913,0 0.144922,-0.058016 0.28985,-0.2246195 0.434782,-0.5 C 9.478261,7.6956218 9.333333,7.7390998 9.130439,7.7825786 8.913043,7.7971166 8.630435,7.6956226 8.282613,7.4782308 l 0.326087,0 -0.152174,-0.2391302 c 0.536227,1.3e-5 0.913038,-0.246359 1.130435,-0.739131 -0.101454,0.04348 -0.275367,0.108696 -0.52174,0.195653 -0.202903,0.01454 -0.500004,0.04348 -0.891304,0.08696 -0.04348,1.4e-5 -0.101454,0.0068 -0.173913,0.02174 0.173909,-0.07242 0.434779,-0.217377 0.782609,-0.434782 0.159416,-0.130435 0.347822,-0.347813 0.565217,-0.652174 -0.07247,0.08696 -0.217395,0.181168 -0.434782,0.282608 -0.07247,0.01454 -0.181163,1.4e-5 -0.326087,-0.04348 0.362313,-0.159402 0.717385,-0.369551 1.065217,-0.630435 -0.130435,0.05802 -0.355077,0.123234 -0.673913,0.195653 -0.18841,0.01454 -0.456526,-0.05068 -0.804348,-0.195653 l 0.369565,-0.108695 -0.369565,-0.26087 0.5,0.130435 0.608696,-0.173913 c -0.260874,0.04348 -0.471019,0.04348 -0.630435,0 -0.115951,-0.02894 -0.260874,-0.108696 -0.434783,-0.239131 0.173909,0.01454 0.304344,0.01454 0.391305,0 0.376807,1.4e-5 0.565213,1.4e-5 0.565217,0 0.318836,-0.0144 0.601444,-0.188383 0.847826,-0.521739 -0.318845,0.173927 -0.811599,0.289878 -1.478261,0.347826 -0.173917,-0.0144 -0.275365,-0.08696 -0.304347,-0.217391 l 0,-0.173913 0.347826,0.06522 -0.434783,-0.326087 0.304348,0.06522 -0.282609,-0.23913 c 0.289851,0.07255 0.528981,0.09429 0.717391,0.06522 0.144923,-0.0144 0.326083,-0.07975 0.543479,-0.195652 -0.217396,0.02894 -0.391309,0.03628 -0.521739,0.02174 -0.07247,1.4e-5 -0.181163,-0.02894 -0.326087,-0.08696 0.304343,-0.188383 0.536227,-0.427514 0.695652,-0.717391 -0.08696,0.08696 -0.239135,0.210163 -0.456522,0.369565 -0.159424,0.08696 -0.384062,0.152187 -0.673913,0.195652 l 0,-0.152174 0.326087,-0.108696 -0.130435,-0.195652 0.239131,-0.06522 -0.369566,-0.282609 c 0.05796,0.01454 0.144924,0.02894 0.26087,0.04348 0.159416,1.4e-5 0.376807,-0.04348 0.652174,-0.130434 l -0.673913,-0.08696 c 0.333329,-0.159402 0.579705,-0.470992 0.73913,-0.934783 -0.02899,0.08696 -0.144932,0.202922 -0.347826,0.347827 -0.05797,0.07242 -0.144932,0.152187 -0.260869,0.23913 -0.08696,0.02894 -0.195657,0.05802 -0.326087,0.08696 0.05796,-0.02894 0.137676,-0.08696 0.23913,-0.173914 0.05796,-0.08696 0.0942,-0.217377 0.108696,-0.391304 -0.0145,0.07242 -0.05073,0.144946 -0.108696,0.217391 -0.07247,1.4e-5 -0.181163,0.03628 -0.326087,0.108696 l 0,-0.304348 -0.02174,-0.195652 c 0.260865,1.4e-5 0.427533,-0.137663 0.5,-0.41304295 l -0.23913,0.21739095 -0.304348,0.02174 0,-0.19565205 0.23913,-0.130435 0,-0.152174 -0.23913,0.108696 0,-0.195652 0.304348,-0.282609 -0.326087,0.06522 0,-0.391304 -0.06522,0 L 8,0.30432955 7.91304,0.32606955 8,0.43476555 l -0.06522,0.108695 0,0.130435 -0.152174,-0.04348 -0.173913,0 0.23913,0.173913 0.06522,0.06522 -0.304348,0.04348 0.173913,0.06522 0.195652,0.10869595 -0.304348,0.06522 0.26087,0.02174 0.04348,0.23913 -0.23913,0.06522 0.260869,0.04348 0.04348,0.2391311 -0.260869,0.06522 0.217391,0.06522 c -0.08696,0.04348 -0.159424,0.06522 -0.217391,0.06522 -0.101454,1.29e-5 -0.217394,-0.05788 -0.347826,-0.1739131 -3e-6,0.27538 0.181156,0.4347961 0.543478,0.478261 L 7.413047,2.4565256 c -0.115952,0.01454 -0.217394,0.01454 -0.304348,0 -0.101454,-0.0144 -0.22464,-0.05788 -0.369565,-0.130435 0.04348,0.1449459 0.166664,0.2898779 0.369565,0.4347829 0.115937,0.01454 0.260867,-0.05068 0.434782,-0.195653 l 0.456522,-0.173913 0,0.26087 c -0.275365,0.130435 -0.550727,0.22466 -0.826087,0.2826091 l 0.369565,0.02174 c -0.159422,0.159443 -0.398553,0.231902 -0.717391,0.217391 0.231882,0.07242 0.413041,0.101495 0.543478,0.08696 0.173911,-0.01454 0.384055,-0.101495 0.630435,-0.26087 -0.0145,0.05802 -0.04348,0.144946 -0.08696,0.26087 -0.101454,0.173926 -0.347829,0.355095 -0.739131,0.543478 -0.188407,0.08696 -0.449277,0.152187 -0.782609,0.195652 l 0.652174,-0.02174 -0.847826,0.3043479 c 0.231882,-0.02894 0.601447,-0.108696 1.108696,-0.239131 0.159417,-0.05788 0.362315,-0.173899 0.608696,-0.347826 l -0.239131,0.2826091 0.26087,-0.06522 0,0.26087 -0.304348,0.108696 0.304348,0.06522 C 7.862312,4.4493286 7.71014,4.5869775 7.47826,4.7608775 c -0.130435,0.04348 -0.32609,0.06522 -0.586957,0.06522 l 0.239131,0.08696 c -0.07246,0.04348 -0.202901,0.101495 -0.391304,0.173914 -0.07247,0.01454 -0.166669,0.02894 -0.282609,0.04348 0.260867,0.02894 0.463766,0.02894 0.608695,0 0.07246,-0.0144 0.181157,-0.07976 0.326087,-0.195652 0.144924,-0.130435 0.231881,-0.195639 0.26087,-0.195653 0.02898,0.01454 0.05072,0.04348 0.06522,0.08696 -2e-6,0.08696 -0.05797,0.195666 -0.173913,0.326087 l 0.391305,-0.326087 -0.130435,0.26087 0.06522,0.195652 c -0.14493,0.08696 -0.391307,0.188424 -0.73913,0.304348 -0.08696,0.01454 -0.202901,0.02174 -0.347826,0.02174 -0.130435,1.3e-5 -0.275364,-0.0068 -0.434783,-0.02174 0.333332,0.173926 0.594201,0.253641 0.782609,0.23913 0.130435,-0.01454 0.297099,-0.07242 0.5,-0.173913 -0.275366,0.391318 -0.731886,0.608709 -1.369565,0.652174 0.318838,0.130435 0.579708,0.188424 0.782608,0.173913 0.144926,-0.01454 0.340578,-0.08696 0.586957,-0.217391 0.04348,0.02894 0.0942,0.08696 0.152174,0.1739131 0.02898,0.08696 -0.08696,0.224646 -0.347826,0.413043 -0.115951,0.08696 -0.304351,0.152188 -0.565218,0.195652 0.07246,0.07242 0.202896,0.152188 0.391305,0.239131 0.130434,0.01454 0.304345,-0.0068 0.521739,-0.06522 C 7.507248,7.4637947 7.210148,7.6884414 6.891309,7.8913218 L 6.282614,7.8261048 6.63044,8.0217569 c -0.08696,0.058016 -0.246379,0.1376902 -0.478261,0.2391305 -0.101454,0.02894 -0.246378,0.036277 -0.434783,0.021739 0.246375,0.014538 0.485506,0.014538 0.717392,0 0.130434,1.36e-5 0.27536,-0.021739 0.434782,-0.065217 0.05796,0.072419 0.166665,0.1666848 0.326087,0.2826087 0.115938,0.02894 0.27536,0.036277 0.478261,0.021739 -0.08696,0.043478 -0.217394,0.1449457 -0.391304,0.3043479 -0.144931,0.043478 -0.32609,0.1158967 -0.543478,0.2173913 -0.130435,0.02894 -0.362321,0.065217 -0.695653,0.1086956 0.101454,0.058016 0.268114,0.1158968 0.5,0.1739131 C 6.673918,9.340643 6.920293,9.282627 7.282614,9.1521919 7.340574,9.1376539 7.413049,9.1087139 7.500005,9.0652359 7.456525,9.1376539 7.36957,9.2536598 7.239136,9.413062 7.195656,9.442002 7.115943,9.5289587 7.000005,9.6739315 6.884054,9.7463505 6.768119,9.8188636 6.652179,9.8913228 6.536228,9.9493388 6.24638,10.000018 5.782614,10.043497 c -0.144928,0.01454 -0.355074,0.01454 -0.630435,0 0.05798,0.08696 0.181159,0.210149 0.369565,0.369565 0.173912,0.101494 0.420288,0.144932 0.739131,0.130435 -2e-6,1.3e-5 0.0942,1.3e-5 0.282608,0 0.159419,-0.02894 0.239128,-0.06522 0.239131,-0.108696 -3e-6,-0.01454 -0.0145,-0.02894 -0.04348,-0.04348 -0.07247,0.304362 -0.369567,0.485516 -0.891305,0.543478 0.188405,-0.04348 0.507245,-0.09416 0.956522,-0.152174 0.08696,1.4e-5 0.195649,-0.0068 0.326087,-0.02174 -0.0145,-0.01454 0.07246,-0.130434 0.260869,-0.347826 0.08696,-0.101494 0.137678,-0.144918 0.152174,-0.130434 l -0.06522,0.47826 c -0.08696,0.07242 -0.210148,0.195666 -0.369565,0.369566 -0.434786,0.391318 -0.862321,0.615951 -1.282609,0.673913 -0.115937,0.01454 -0.34058,0.01454 -0.673913,0 0.463768,0.202907 0.862318,0.289864 1.195652,0.260869 0.130435,-0.01454 0.311593,-0.05802 0.543478,-0.130435 l -0.260869,0.173914 0.413043,-0.08696 -0.108695,0.23913 0.304348,-0.217391 0.152173,0.217391 -0.260869,0.173913 -0.565218,0.26087 -0.413043,0.23913 0.543478,-0.08696 0.26087,-0.173913 c 0.07246,-0.01454 0.181156,-0.04348 0.326087,-0.08696 0.04348,-0.02894 0.115937,-0.06522 0.217391,-0.108696 -0.449278,0.44928 -0.855075,0.724647 -1.217391,0.826087 -0.2029,0.05802 -0.500002,0.05802 -0.891305,0 0.37681,0.115897 0.673912,0.173927 0.891305,0.173913 0.246375,1.4e-5 0.528983,-0.04348 0.847826,-0.130434 0.159417,-0.04348 0.376808,-0.123234 0.652174,-0.239131 l -0.347826,0.347826 -1.130435,0.847826 1.260869,-0.782608 -0.326086,0.543478 0.434782,-0.478261 0.130435,-0.217391 0,2.434782 -0.130435,0.195652 0.608696,0 -0.173913,-0.130434 0,-2.76087 c 0.02898,0.08696 0.123179,0.275367 0.282608,0.565217 0.07246,0.115897 0.173909,0.253628 0.304348,0.413044 0.07246,0.07242 0.384053,0.166671 0.934783,0.282609 -0.405802,-0.231875 -0.724643,-0.57246 -0.956522,-1.021739 l 0.782609,0.543478 c 0.173907,0.115897 0.413038,0.173926 0.717391,0.173913 0.217386,1.3e-5 0.442023,-0.137677 0.673913,-0.413044 -0.492759,0.04348 -0.840585,1.4e-5 -1.043478,-0.130434 -0.0145,-0.01454 -0.07972,-0.06522 -0.195652,-0.152174 L 9.391304,13.195671 c -0.0145,-0.04348 -0.05073,-0.115897 -0.108695,-0.217392 0.144922,0.01454 0.376807,0.04348 0.695652,0.08696 0.420284,-0.08696 0.630429,-0.239117 0.630435,-0.456521 -6e-6,-0.02894 -0.0145,-0.06522 -0.04348,-0.108696 -0.521744,0.101495 -0.913048,0.115897 -1.173913,0.04348 C 9.115937,12.456539 8.913038,12.33336 8.782608,12.173931 8.739128,12.115915 8.594197,11.934814 8.347825,11.630452 M 8.108695,9.8695829 c 0.10144,0.086956 0.268113,0.2246471 0.5,0.4130431 0.07246,0.04348 0.166663,0.101495 0.282608,0.173913 -0.02899,0.01454 -0.08696,0.03628 -0.173913,0.06522 -0.08696,0.01454 -0.18841,-0.0068 -0.304347,-0.06522 -0.05798,-0.04348 -0.130435,-0.123233 -0.217392,-0.23913 L 8.108691,9.8695829"
       style="font-size:16px;font-style:normal;font-variant:normal;font-weight:normal;font-stretch:normal;line-height:125%;letter-spacing:0px;word-spacing:0px;fill:#ffffff;fill-opacity:1;stroke:none;font-family:ddvlts1a;-inkscape-font-specification:ddvlts1a"
       id="path2996" />
  </g>
</svg>
