<?xml version="1.0" encoding="UTF-8" standalone="no"?>
<!-- Created with Inkscape (http://www.inkscape.org/) -->

<svg
   xmlns:dc="http://purl.org/dc/elements/1.1/"
   xmlns:cc="http://creativecommons.org/ns#"
   xmlns:rdf="http://www.w3.org/1999/02/22-rdf-syntax-ns#"
   xmlns:svg="http://www.w3.org/2000/svg"
   xmlns="http://www.w3.org/2000/svg"
   xmlns:sodipodi="http://sodipodi.sourceforge.net/DTD/sodipodi-0.dtd"
   xmlns:inkscape="http://www.inkscape.org/namespaces/inkscape"
   width="16px"
   height="16px"
   id="svg3082"
   version="1.1"
   inkscape:version="0.48.3.1 r9886"
   sodipodi:docname="T&amp;S6.svg">
  <defs
     id="defs3084" />
  <sodipodi:namedview
     id="base"
     pagecolor="#ffffff"
     bordercolor="#666666"
     borderopacity="1.0"
     inkscape:pageopacity="0.0"
     inkscape:pageshadow="2"
     inkscape:zoom="11.098901"
     inkscape:cx="5.0106222"
     inkscape:cy="8.2151302"
     inkscape:current-layer="layer1"
     showgrid="true"
     inkscape:grid-bbox="true"
     inkscape:document-units="px"
     inkscape:window-width="826"
     inkscape:window-height="716"
     inkscape:window-x="535"
     inkscape:window-y="24"
     inkscape:window-maximized="0" />
  <metadata
     id="metadata3087">
    <rdf:RDF>
      <cc:Work
         rdf:about="">
        <dc:format>image/svg+xml</dc:format>
        <dc:type
           rdf:resource="http://purl.org/dc/dcmitype/StillImage" />
        <dc:title></dc:title>
      </cc:Work>
    </rdf:RDF>
  </metadata>
  <g
     id="layer1"
     inkscape:label="Layer 1"
     inkscape:groupmode="layer">
    <path
       inkscape:connector-curvature="0"
       d="m 7.2122573,1.6105023 c -0.07002,0.3734792 -0.151729,0.5601969 -0.245076,0.560175 l 0.03501,0.2100657 c -0.140044,0.1400437 -0.210066,0.2100656 -0.210066,0.2100656 l 0,0.4551423 c -4e-6,0.046608 -0.09337,0.1516411 -0.280087,0.3150984 -0.163392,0.1634574 -0.26842,0.2684464 -0.315099,0.3150985 -0.02335,0.023414 -0.105033,0.081619 -0.245076,0.1750547 -0.116696,0.093435 -0.175055,0.1750547 -0.175055,0.2450766 l 0.105033,0.2100656 -0.210066,0.2450766 c -0.04667,0.1634574 -0.163392,0.3968053 -0.350109,0.7002188 l -0.140043,0.070022 c -0.046674,0.023414 -0.070022,0.1750547 -0.070022,0.4551423 -2.2e-6,0.046608 -0.046674,0.1050328 -0.1400438,0.1750547 -0.070022,0.046608 -0.1050328,0.1050328 -0.1050328,0.1750547 l 0.070022,0.1400437 c -2.2e-6,0.070022 -0.070022,0.1166302 -0.2100657,0.1400438 -0.023348,0.1866521 -0.070022,0.4318162 -0.1400437,0.7352297 -0.09337,0.1634574 -0.1400438,0.2801095 -0.1400438,0.3501095 -2.2e-6,0.093435 0.023348,0.2450984 0.070022,0.4551422 0.046674,0.1866521 0.070022,0.3267834 0.070022,0.4201313 -2.2e-6,0.070022 -0.1050329,0.3267833 -0.3150985,0.7702407 -0.1867177,0.4434792 -0.2800897,0.7235667 -0.2800875,0.8402626 -2.2e-6,0.046608 0.011597,0.1166298 0.035011,0.2100658 0.046674,0.09344 0.070022,0.163457 0.070022,0.210066 -2.2e-6,0.07002 -0.046674,0.175054 -0.1400438,0.315098 -0.070022,0.11663 -0.1050328,0.210066 -0.1050328,0.280087 0,2.2e-5 0.09337,0.140044 0.2800875,0.420132 0.023348,0.04661 0.035011,0.280109 0.035011,0.700219 -2.2e-6,0.02341 0.035011,0.105032 0.1050328,0.245076 0.070022,0.11663 0.1050328,0.221751 0.1050328,0.315099 -2.2e-6,0.02341 -0.023348,0.07002 -0.070022,0.140043 -0.046674,0.07002 -0.070022,0.128447 -0.070022,0.175055 -2.2e-6,0.09343 0.081685,0.221751 0.2450765,0.38512 0.1633917,0.140044 0.2450744,0.256762 0.2450766,0.35011 -0.09337,0.210066 -0.1400437,0.326783 -0.1400437,0.350109 -2.2e-6,0.04661 0.09337,0.128447 0.2800875,0.245077 0.1867178,0.11663 0.2800854,0.22175 0.2800876,0.315098 l -0.1050331,0.245077 c 0.023348,0.210066 0.3617768,0.315098 1.0153168,0.315098 0.140044,0 0.268414,0.09344 0.385121,0.280088 0.140044,0.163457 0.245072,0.245076 0.315098,0.245076 l 0.07002,0 c 0.07002,-0.02341 0.105033,-0.04661 0.105033,-0.07002 -4e-6,-0.02341 -0.0116,-0.04661 -0.03501,-0.07002 l 0.105033,0 c 0.02335,0 0.04667,0.02341 0.07002,0.07002 0.04667,0.04661 0.08169,0.07002 0.105033,0.07002 l 0,0.140044 0.03501,-0.03501 c 0.02335,0.02341 0.02335,0.08162 0,0.175055 l 0.175054,-0.03501 0.105033,0 0.140044,-0.07002 0.210065,0.07002 0.140044,-0.105033 0.140044,0.140044 0.210066,-0.03501 c -0.02335,-0.04661 -0.05836,-0.09343 -0.105033,-0.140044 0.02333,0.07002 0.04667,0.105033 0.07002,0.105033 0.07002,-0.02341 0.151706,-0.128446 0.245076,-0.315098 l 0.175055,0.175054 0.03501,0 c 0.07002,0 0.151707,-0.03501 0.245077,-0.105032 0.116695,-0.07002 0.19838,-0.105033 0.245076,-0.105033 l 0.140044,0.175054 0.140044,-0.140043 c 0.04667,0.09344 0.128358,0.140043 0.245076,0.140043 0.04667,0 0.08169,-0.04661 0.105033,-0.140043 0.04667,-0.09344 0.1400437,-0.140044 0.2800877,-0.140044 l 0.105032,-0.03501 c -6e-6,-0.233392 0.08169,-0.350109 0.245077,-0.350109 0.04667,0 0.105033,0.01094 0.175055,0.03501 0.07002,0.02341 0.128359,0.03501 0.175054,0.03501 0.07002,0 0.105033,-0.05842 0.105033,-0.175054 -9e-6,0 0.116696,-0.163458 0.35011,-0.490154 0.233398,-0.350109 0.3501,-0.630196 0.350109,-0.840262 -9e-6,-0.04661 0.02333,-0.105033 0.07002,-0.175055 0.04667,-0.09344 0.07002,-0.163457 0.07002,-0.210065 -9e-6,-0.04661 -0.02335,-0.116631 -0.07002,-0.210066 -0.02335,-0.09344 -0.03501,-0.163457 -0.03501,-0.210066 -9e-6,-0.11663 0.03501,-0.303413 0.105033,-0.560175 0.07002,-0.256739 0.105033,-0.443457 0.105033,-0.560175 -9e-6,-0.11663 0.03501,-0.268402 0.105032,-0.455142 0.09335,-0.186652 0.140044,-0.326762 0.140044,-0.420131 -9e-6,-0.04661 -0.08171,-0.175055 -0.245076,-0.385121 -0.140044,-0.233391 -0.210066,-0.361772 -0.210066,-0.38512 0.09335,-0.093436 0.140044,-0.1750547 0.140044,-0.2450766 -9e-6,-0.046608 -0.02335,-0.1400438 -0.07002,-0.2800875 -0.02335,-0.1634574 -0.03501,-0.2917506 -0.03501,-0.3851204 -9e-6,2.19e-5 -0.07002,-0.1050328 -0.210066,-0.3150984 -0.140039,-0.2333947 -0.21006,-0.4551234 -0.21006,-0.6652109 -9e-6,-0.046608 -0.07002,-0.1050328 -0.210066,-0.1750547 C 10.981754,7.924069 10.923417,7.7607649 10.923417,7.5273513 10.923409,7.363894 10.771689,6.9321872 10.468275,6.2319465 L 10.29322,6.0919027 c -0.140043,-0.093435 -0.210065,-0.1866521 -0.210065,-0.2800875 -7e-6,-0.070022 0.0116,-0.1516411 0.03501,-0.2450766 0.04667,-0.1166302 0.07002,-0.1984683 0.07002,-0.2450766 -7e-6,-0.046608 -0.09337,-0.1634573 -0.2800877,-0.3501094 -0.18674,-0.2100656 -0.280094,-0.5134792 -0.280088,-0.9102844 -6e-6,-0.023414 -0.02335,-0.081619 -0.07002,-0.1750548 -0.02335,-0.093435 -0.03501,-0.1984682 -0.03501,-0.3150984 -7e-6,-0.1166302 -0.128381,-0.2800657 -0.385121,-0.4901532 -0.233411,-0.2100656 -0.350116,-0.4434573 -0.350109,-0.7002188 -7e-6,-0.070022 -0.128381,-0.3850985 -0.38512,-0.9452954 -0.02335,-0.023414 -0.03501,-0.2917287 -0.03501,-0.8052517 -7e-6,-0.3967615 -0.08171,-0.5951641 -0.245077,-0.595186 L 7.8424543,0.2100646 C 7.8424503,0.0700209 7.8074443,-10e-7 7.7374223,-10e-7 c -0.07002,2.19e-5 -0.105033,0.1166302 -0.105033,0.3501094 0.02333,0.2334355 -0.116696,0.6535667 -0.420131,1.2603939"
       style="font-size:16px;font-style:normal;font-variant:normal;font-weight:normal;font-stretch:normal;line-height:125%;letter-spacing:0px;word-spacing:0px;fill:#ffffff;fill-opacity:1;stroke:none;font-family:ddvlts1a;-inkscape-font-specification:ddvlts1a"
       id="path3080" />
  </g>
</svg>
